<?xml version="1.0" encoding="utf-8"?>
<!-- Generator: Adobe Illustrator 23.0.1, SVG Export Plug-In . SVG Version: 6.00 Build 0)  -->
<svg version="1.1" id="Calque_1" xmlns="http://www.w3.org/2000/svg" xmlns:xlink="http://www.w3.org/1999/xlink" x="0px" y="0px"
	 viewBox="0 0 330.6 200" style="enable-background:new 0 0 330.6 200;" xml:space="preserve">
<style type="text/css">
	.st0{fill:#EDEDED;}
	.st1{fill:none;stroke:#C1C1C1;stroke-width:2;stroke-miterlimit:10;stroke-dasharray:9.1642,6.1095;}
	.st2{fill:none;stroke:#C1C1C1;stroke-width:2;stroke-miterlimit:10;}
	.st3{fill:none;stroke:#C1C1C1;stroke-width:2;stroke-miterlimit:10;stroke-dasharray:9.6717,6.4478;}
	.st4{fill:none;stroke:#C1C1C1;stroke-width:2;stroke-miterlimit:10;stroke-dasharray:9.6711,6.4474;}
	.st5{fill:none;stroke:#C1C1C1;stroke-width:2;stroke-miterlimit:10;stroke-dasharray:9.6722,6.4482;}
	.st6{fill:none;stroke:#C1C1C1;stroke-width:2;stroke-miterlimit:10;stroke-dasharray:9.6716,6.4477;}
	.st7{fill:#FF851B;}
</style>
<g>
	<g>
		<path class="st0" d="M208.8,70.7c-5.2-8.9-12.3-16-21.2-21.2s-18.7-7.8-29.3-7.8S138,44.3,129,49.5c-8.9,5.2-16,12.3-21.2,21.2
			S100,89.4,100,100s2.6,20.3,7.8,29.3c5.2,8.9,12.3,16,21.2,21.2s18.7,7.8,29.3,7.8s20.3-2.6,29.3-7.8c8.9-5.2,16-12.3,21.2-21.2
			s7.8-18.7,7.8-29.3S214,79.7,208.8,70.7L208.8,70.7z M192.3,104.9c0,1.3-0.5,2.5-1.4,3.4c-1,1-2.1,1.4-3.4,1.4H168v19.4
			c0,1.3-0.5,2.5-1.4,3.4c-1,1-2.1,1.4-3.4,1.4h-9.7c-1.3,0-2.5-0.5-3.4-1.4c-1-1-1.4-2.1-1.4-3.4v-19.4h-19.4
			c-1.3,0-2.5-0.5-3.4-1.4c-1-1-1.4-2.1-1.4-3.4v-9.7c0-1.3,0.5-2.5,1.4-3.4c1-1,2.1-1.4,3.4-1.4h19.4V70.8c0-1.3,0.5-2.5,1.4-3.4
			c1-1,2.1-1.4,3.4-1.4h9.7c1.3,0,2.5,0.5,3.4,1.4c1,1,1.4,2.1,1.4,3.4v19.4h19.4c1.3,0,2.5,0.5,3.4,1.4c1,1,1.4,2.1,1.4,3.4v9.9
			H192.3z"/>
		<g>
			<path class="st1" d="M208.8,70.7c-5.2-8.9-12.3-16-21.2-21.2s-18.7-7.8-29.3-7.8S138,44.3,129,49.5c-8.9,5.2-16,12.3-21.2,21.2
				S100,89.4,100,100s2.6,20.3,7.8,29.3c5.2,8.9,12.3,16,21.2,21.2s18.7,7.8,29.3,7.8s20.3-2.6,29.3-7.8c8.9-5.2,16-12.3,21.2-21.2
				s7.8-18.7,7.8-29.3S214,79.7,208.8,70.7z"/>
			<g>
				<polyline class="st2" points="172.5,109.7 168,109.7 168,114.2 				"/>
				<path class="st3" d="M168,120.7v8.5c0,1.3-0.5,2.5-1.4,3.4c-1,1-2.1,1.4-3.4,1.4h-9.7c-1.3,0-2.5-0.5-3.4-1.4
					c-1-1-1.4-2.1-1.4-3.4v-11.7"/>
				<polyline class="st2" points="148.6,114.2 148.6,109.7 144.1,109.7 				"/>
				<path class="st4" d="M137.6,109.7h-8.5c-1.3,0-2.5-0.5-3.4-1.4c-1-1-1.4-2.1-1.4-3.4v-9.7c0-1.3,0.5-2.5,1.4-3.4
					c1-1,2.1-1.4,3.4-1.4h11.7"/>
				<polyline class="st2" points="144.1,90.3 148.6,90.3 148.6,85.8 				"/>
				<path class="st5" d="M148.6,79.3v-8.5c0-1.3,0.5-2.5,1.4-3.4c1-1,2.1-1.4,3.4-1.4h9.7c1.3,0,2.5,0.5,3.4,1.4
					c1,1,1.4,2.1,1.4,3.4v11.7"/>
				<polyline class="st2" points="168,85.8 168,90.3 172.5,90.3 				"/>
				<path class="st6" d="M178.9,90.3h8.5c1.3,0,2.5,0.5,3.4,1.4c1,1,1.4,2.1,1.4,3.4v9.7c0,1.3-0.5,2.5-1.4,3.4
					c-1,1-2.1,1.4-3.4,1.4h-11.7"/>
			</g>
		</g>
	</g>
</g>
<g>
	<path class="st7" d="M153.4,135c-1.6,0-3-0.6-4.1-1.7c-1.2-1.2-1.7-2.5-1.7-4.1v-18.4h-18.4c-1.6,0-3-0.6-4.1-1.7s-1.7-2.5-1.7-4.1
		v-9.7c0-1.6,0.6-3,1.7-4.1s2.5-1.7,4.1-1.7h18.4V70.8c0-1.6,0.6-3,1.7-4.1c1.2-1.2,2.5-1.7,4.1-1.7h9.7c1.6,0,3,0.6,4.1,1.7
		c1.2,1.2,1.7,2.5,1.7,4.1v18.4h18.4c1.6,0,3,0.6,4.1,1.7s1.7,2.5,1.7,4.1v9.7c0,1.6-0.6,3-1.7,4.1c-1.2,1.2-2.5,1.7-4.1,1.7H169
		v18.4c0,1.6-0.6,3-1.7,4.1s-2.5,1.7-4.1,1.7h-9.8V135z"/>
	<path class="st7" d="M163.1,66c1.3,0,2.5,0.5,3.4,1.4c1,1,1.4,2.1,1.4,3.4v19.4h19.4c1.3,0,2.5,0.5,3.4,1.4c1,1,1.4,2.1,1.4,3.4
		v9.7c0,1.3-0.5,2.5-1.4,3.4c-1,1-2.1,1.4-3.4,1.4H168v19.4c0,1.3-0.5,2.5-1.4,3.4c-1,1-2.1,1.4-3.4,1.4h-9.7
		c-1.3,0-2.5-0.5-3.4-1.4c-1-1-1.4-2.1-1.4-3.4v-19.4h-19.4c-1.3,0-2.5-0.5-3.4-1.4c-1-1-1.4-2.1-1.4-3.4V95c0-1.3,0.5-2.5,1.4-3.4
		c1-1,2.1-1.4,3.4-1.4h19.4V70.8c0-1.3,0.5-2.5,1.4-3.4c1-1,2.1-1.4,3.4-1.4H163.1 M163.1,64h-9.7c-1.8,0-3.5,0.7-4.8,2
		c-1.3,1.4-2,3-2,4.8v17.4h-17.4c-1.9,0-3.5,0.7-4.8,2s-2,3-2,4.8v9.7c0,1.9,0.7,3.5,2,4.8s3,2,4.8,2h17.4v17.4c0,1.9,0.7,3.5,2,4.8
		s3,2,4.8,2h9.7c1.8,0,3.5-0.7,4.8-2s2-3,2-4.8v-17.4h17.4c1.9,0,3.5-0.7,4.8-2s2-3,2-4.8V95c0-1.9-0.7-3.5-2-4.8s-3-2-4.8-2H170
		V70.8c0-1.9-0.7-3.5-2-4.8C166.6,64.7,165,64,163.1,64L163.1,64z"/>
</g>
</svg>
