<?xml version="1.0" encoding="utf-8"?>
<!-- Generator: Adobe Illustrator 23.0.3, SVG Export Plug-In . SVG Version: 6.00 Build 0)  -->
<svg version="1.1" id="Calque_1" xmlns="http://www.w3.org/2000/svg" xmlns:xlink="http://www.w3.org/1999/xlink" x="0px" y="0px"
	 viewBox="0 0 176.7 106.6" style="enable-background:new 0 0 176.7 106.6;" xml:space="preserve">
<style type="text/css">
	.st0{fill:#EDEDED;}
	.st1{fill:none;stroke:#C1C1C1;stroke-width:2;stroke-miterlimit:10;stroke-dasharray:9.1642,6.1095;}
	.st2{fill:none;stroke:#C1C1C1;stroke-width:2;stroke-miterlimit:10;}
	.st3{fill:none;stroke:#C1C1C1;stroke-width:2;stroke-miterlimit:10;stroke-dasharray:9.6717,6.4478;}
	.st4{fill:none;stroke:#C1C1C1;stroke-width:2;stroke-miterlimit:10;stroke-dasharray:9.6711,6.4474;}
	.st5{fill:none;stroke:#C1C1C1;stroke-width:2;stroke-miterlimit:10;stroke-dasharray:9.6722,6.4482;}
	.st6{fill:none;stroke:#C1C1C1;stroke-width:2;stroke-miterlimit:10;stroke-dasharray:9.6716,6.4477;}
	.st7{fill:#FF851B;}
</style>
<g>
	<g>
		<g>
			<path class="st0" d="M133.5,27.1c-4.7-8-11-14.3-19-19s-16.7-7-26.2-7s-18.2,2.3-26.2,7c-8,4.7-14.3,11-19,19s-7,16.7-7,26.2
				s2.3,18.2,7,26.2c4.7,8,11,14.3,19,19s16.7,7,26.2,7s18.2-2.3,26.2-7c8-4.7,14.3-11,19-19s7-16.7,7-26.2S138.2,35.1,133.5,27.1
				L133.5,27.1z M118.8,57.7c0,1.2-0.4,2.2-1.3,3c-0.9,0.9-1.9,1.3-3,1.3H97v17.4c0,1.2-0.4,2.2-1.3,3c-0.9,0.9-1.9,1.3-3,1.3h-8.7
				c-1.2,0-2.2-0.4-3-1.3c-0.9-0.9-1.3-1.9-1.3-3V62H62.4c-1.2,0-2.2-0.4-3-1.3c-0.9-0.9-1.3-1.9-1.3-3V49c0-1.2,0.4-2.2,1.3-3
				c0.9-0.9,1.9-1.3,3-1.3h17.4V27.2c0-1.2,0.4-2.2,1.3-3c0.9-0.9,1.9-1.3,3-1.3h8.7c1.2,0,2.2,0.4,3,1.3c0.9,0.9,1.3,1.9,1.3,3
				v17.4h17.4c1.2,0,2.2,0.4,3,1.3c0.9,0.9,1.3,1.9,1.3,3L118.8,57.7C118.7,57.7,118.8,57.7,118.8,57.7z"/>
			<g>
				<path class="st1" d="M133.5,27.1c-4.7-8-11-14.3-19-19s-16.7-7-26.2-7s-18.2,2.3-26.2,7c-8,4.7-14.3,11-19,19s-7,16.7-7,26.2
					s2.3,18.2,7,26.2c4.7,8,11,14.3,19,19s16.7,7,26.2,7s18.2-2.3,26.2-7c8-4.7,14.3-11,19-19s7-16.7,7-26.2S138.2,35.1,133.5,27.1z
					"/>
				<g>
					<polyline class="st2" points="101.1,62 97,62 97,66 					"/>
					<path class="st3" d="M97,71.8v7.6c0,1.2-0.4,2.2-1.3,3c-0.9,0.9-1.9,1.3-3,1.3h-8.7c-1.2,0-2.2-0.4-3-1.3
						c-0.9-0.9-1.3-1.9-1.3-3V69"/>
					<polyline class="st2" points="79.7,66 79.7,62 75.6,62 					"/>
					<path class="st4" d="M69.8,62h-7.6c-1.2,0-2.2-0.4-3-1.3c-0.9-0.9-1.3-1.9-1.3-3V49c0-1.2,0.4-2.2,1.3-3c0.9-0.9,1.9-1.3,3-1.3
						h10.5"/>
					<polyline class="st2" points="75.6,44.6 79.7,44.6 79.7,40.6 					"/>
					<path class="st5" d="M79.7,34.8v-7.6c0-1.2,0.4-2.2,1.3-3c0.9-0.9,1.9-1.3,3-1.3h8.7c1.2,0,2.2,0.4,3,1.3
						c0.9,0.9,1.3,1.9,1.3,3v10.5"/>
					<polyline class="st2" points="97,40.6 97,44.6 101.1,44.6 					"/>
					<path class="st6" d="M106.8,44.6h7.6c1.2,0,2.2,0.4,3,1.3c0.9,0.9,1.3,1.9,1.3,3v8.7c0,1.2-0.4,2.2-1.3,3
						c-0.9,0.9-1.9,1.3-3,1.3h-10.5"/>
				</g>
			</g>
		</g>
	</g>
	<g>
		<path class="st7" d="M84,84.6c-1.4,0-2.7-0.5-3.7-1.5c-1.1-1.1-1.5-2.2-1.5-3.7V63H62.3c-1.4,0-2.7-0.5-3.7-1.5
			c-1-1-1.5-2.2-1.5-3.7v-8.7c0-1.4,0.5-2.7,1.5-3.7s2.2-1.5,3.7-1.5h16.5V27.2c0-1.4,0.5-2.7,1.5-3.7c1.1-1.1,2.2-1.5,3.7-1.5h8.7
			c1.4,0,2.7,0.5,3.7,1.5c1.1,1.1,1.5,2.2,1.5,3.7v16.5h16.5c1.4,0,2.7,0.5,3.7,1.5c1,1,1.5,2.2,1.5,3.7v8.7c0,1.4-0.5,2.7-1.5,3.7
			c-1.1,1.1-2.2,1.5-3.7,1.5H97.9v16.5c0,1.4-0.5,2.7-1.5,3.7c-1,1-2.2,1.5-3.7,1.5H84V84.6z"/>
		<path class="st7" d="M92.6,22.9c1.2,0,2.2,0.4,3,1.3c0.9,0.9,1.3,1.9,1.3,3v17.4h17.4c1.2,0,2.2,0.4,3,1.3c0.9,0.9,1.3,1.9,1.3,3
			v8.7c0,1.2-0.4,2.2-1.3,3c-0.9,0.9-1.9,1.3-3,1.3H97v17.4c0,1.2-0.4,2.2-1.3,3c-0.9,0.9-1.9,1.3-3,1.3h-8.7c-1.2,0-2.2-0.4-3-1.3
			c-0.9-0.9-1.3-1.9-1.3-3V61.8H62.4c-1.2,0-2.2-0.4-3-1.3c-0.9-0.9-1.3-1.9-1.3-3v-8.7c0-1.2,0.4-2.2,1.3-3c0.9-0.9,1.9-1.3,3-1.3
			h17.4V27.2c0-1.2,0.4-2.2,1.3-3c0.9-0.9,1.9-1.3,3-1.3H92.6 M92.6,21.1H84c-1.6,0-3.1,0.6-4.3,1.8c-1.2,1.3-1.8,2.7-1.8,4.3v15.6
			H62.3c-1.7,0-3.1,0.6-4.3,1.8c-1.2,1.2-1.8,2.7-1.8,4.3v8.7c0,1.7,0.6,3.1,1.8,4.3c1.2,1.2,2.7,1.8,4.3,1.8h15.6v15.6
			c0,1.7,0.6,3.1,1.8,4.3c1.2,1.2,2.7,1.8,4.3,1.8h8.7c1.6,0,3.1-0.6,4.3-1.8s1.8-2.7,1.8-4.3V63.6h15.6c1.7,0,3.1-0.6,4.3-1.8
			c1.2-1.2,1.8-2.7,1.8-4.3v-8.7c0-1.7-0.6-3.1-1.8-4.3s-2.7-1.8-4.3-1.8H98.8V27.2c0-1.7-0.6-3.1-1.8-4.3
			C95.8,21.7,94.3,21.1,92.6,21.1L92.6,21.1z"/>
	</g>
</g>
</svg>
