<?xml version="1.0" encoding="utf-8"?>
<!-- Generator: Adobe Illustrator 23.0.1, SVG Export Plug-In . SVG Version: 6.00 Build 0)  -->
<svg version="1.1" id="Calque_1" xmlns="http://www.w3.org/2000/svg" xmlns:xlink="http://www.w3.org/1999/xlink" x="0px" y="0px"
	 viewBox="0 0 330.6 200" style="enable-background:new 0 0 330.6 200;" xml:space="preserve">
<style type="text/css">
	.st0{fill:#FF851B;}
	.st1{fill:#AA5D24;}
	.st2{clip-path:url(#SVGID_2_);fill:#9B9B9B;}
	.st3{clip-path:url(#SVGID_2_);fill:#EAEAEA;}
	.st4{clip-path:url(#SVGID_2_);fill:#BCBCBC;}
	.st5{fill:#7A7A7A;}
	.st6{fill:#B4B6BC;}
</style>
<g>
	<path class="st0" d="M271.7,37.3H58.8c-6.3,0-11.4,5.1-11.4,11.4v125.4c0,6.3,5.1,11.4,11.4,11.4h212.8c6.3,0,11.4-5.1,11.4-11.4
		V48.7C283.1,42.4,277.9,37.3,271.7,37.3L271.7,37.3z M271.7,37.3"/>
	<rect x="153.9" y="166.5" class="st1" width="22.8" height="19"/>
	<g>
		<defs>
			<rect id="SVGID_1_" x="47.4" y="13.9" width="235.7" height="172.1"/>
		</defs>
		<clipPath id="SVGID_2_">
			<use xlink:href="#SVGID_1_"  style="overflow:visible;"/>
		</clipPath>
		<path class="st2" d="M268,155.1v11.4c0,2.1-1.7,3.8-3.8,3.8H66.6c-2.1,0-3.8-1.7-3.8-3.8v-11.4l22.7-11.4l91.2,3.8l76-3.8
			L268,155.1z M268,155.1"/>
		<path class="st3" d="M68.1,160.3c31.2-12.9,66.5-12.1,97.3,2.4V25.9C133.6,11,97,10.6,65,24.9c-1.4,0.6-2.3,2-2.3,3.5v128.5
			C62.8,159.6,65.5,161.4,68.1,160.3L68.1,160.3z M68.1,160.3"/>
		<path class="st4" d="M165.4,162.7c30.7-14.5,66-15.2,97.3-2.4c2.5,1,5.3-0.7,5.3-3.5V28.4c0-1.5-0.9-2.9-2.3-3.5
			c-32-14.2-68.6-13.9-100.3,1V162.7z M165.4,162.7"/>
	</g>
	<g>
		<path class="st5" d="M180.6,137.9c-1.6,0-3.1-1-3.6-2.7c-0.6-2,0.5-4.1,2.5-4.8c3.8-1.2,7.8-2.2,11.8-3.1c2-0.4,4.1,0.9,4.5,2.9
			c0.4,2.1-0.9,4.1-2.9,4.5c-3.7,0.8-7.4,1.8-11,2.9C181.3,137.8,180.9,137.9,180.6,137.9L180.6,137.9z M180.6,137.9"/>
		<path class="st5" d="M252.8,137.9c-0.4,0-0.8-0.1-1.1-0.2c-14.3-4.5-29.2-6.2-44.2-5c-2.1,0.2-3.9-1.4-4.1-3.5
			c-0.2-2.1,1.4-3.9,3.5-4.1c16-1.3,31.8,0.5,47,5.3c2,0.6,3.1,2.8,2.5,4.8C255.9,136.8,254.4,137.9,252.8,137.9L252.8,137.9z
			 M252.8,137.9"/>
		<path class="st5" d="M252.8,122.6c-0.4,0-0.8-0.1-1.1-0.2c-22.9-7.2-47-7.2-69.9,0c-2,0.6-4.1-0.5-4.8-2.5c-0.6-2,0.5-4.1,2.5-4.8
			c24.4-7.7,50.1-7.7,74.5,0c2,0.6,3.1,2.8,2.5,4.8C255.9,121.6,254.4,122.6,252.8,122.6L252.8,122.6z M252.8,122.6"/>
		<path class="st5" d="M180.6,107.5c-1.6,0-3.1-1-3.6-2.7c-0.6-2,0.5-4.1,2.5-4.8c14-4.4,28.5-6.3,43.1-5.6c2.1,0.1,3.7,1.9,3.6,4
			c-0.1,2.1-1.8,3.7-4,3.6c-13.7-0.6-27.4,1.1-40.5,5.2C181.3,107.4,180.9,107.5,180.6,107.5L180.6,107.5z M180.6,107.5"/>
		<path class="st5" d="M252.8,107.5c-0.4,0-0.8-0.1-1.1-0.2c-4.8-1.5-9.8-2.7-14.7-3.6c-2.1-0.4-3.4-2.3-3.1-4.4
			c0.4-2.1,2.3-3.4,4.4-3.1c5.3,0.9,10.6,2.2,15.7,3.8c2,0.6,3.1,2.8,2.5,4.8C255.9,106.4,254.4,107.5,252.8,107.5L252.8,107.5z
			 M252.8,107.5"/>
		<path class="st5" d="M252.8,92.2c-0.4,0-0.8-0.1-1.1-0.2c-22.9-7.2-47-7.2-69.9,0c-2,0.6-4.1-0.5-4.8-2.5c-0.6-2,0.5-4.1,2.5-4.8
			c24.4-7.7,50.1-7.7,74.5,0c2,0.6,3.1,2.8,2.5,4.8C255.9,91.2,254.4,92.2,252.8,92.2L252.8,92.2z M252.8,92.2"/>
		<path class="st5" d="M180.6,77c-1.6,0-3.1-1-3.6-2.7c-0.6-2,0.5-4.1,2.5-4.8c7.6-2.4,15.6-4.1,23.5-5c2.1-0.3,4,1.3,4.2,3.4
			c0.2,2.1-1.3,4-3.4,4.2c-7.5,0.8-14.9,2.4-22.1,4.7C181.3,77,180.9,77,180.6,77L180.6,77z M180.6,77"/>
		<path class="st5" d="M252.8,77c-0.4,0-0.8-0.1-1.1-0.2c-10.7-3.4-21.9-5.2-33.1-5.3c-2.1,0-3.8-1.8-3.7-3.9c0-2.1,1.9-3.9,3.9-3.7
			c12,0.2,23.9,2.1,35.3,5.7c2,0.6,3.1,2.8,2.5,4.8C255.9,76,254.4,77,252.8,77L252.8,77z M252.8,77"/>
		<path class="st5" d="M180.6,61.9c-1.6,0-3.1-1-3.6-2.7c-0.6-2,0.5-4.1,2.5-4.8c16.6-5.2,33.7-6.9,51-4.9c2.1,0.2,3.6,2.1,3.4,4.2
			c-0.2,2.1-2.1,3.6-4.2,3.4c-16.2-1.8-32.3-0.2-47.8,4.6C181.3,61.8,180.9,61.9,180.6,61.9L180.6,61.9z M180.6,61.9"/>
		<path class="st5" d="M252.8,61.9c-0.4,0-0.8-0.1-1.1-0.2c-2.4-0.8-4.9-1.4-7.4-2.1c-2-0.5-3.3-2.6-2.8-4.6c0.5-2,2.5-3.3,4.6-2.8
			c2.6,0.6,5.3,1.4,7.8,2.2c2,0.6,3.1,2.8,2.5,4.8C255.9,60.8,254.4,61.9,252.8,61.9L252.8,61.9z M252.8,61.9"/>
		<path class="st5" d="M180.6,46.6c-1.6,0-3.1-1-3.6-2.7c-0.6-2,0.5-4.1,2.5-4.8c2.6-0.8,5.2-1.6,7.8-2.2c2-0.5,4.1,0.8,4.6,2.8
			c0.5,2-0.8,4.1-2.8,4.6c-2.4,0.6-4.9,1.3-7.4,2C181.3,46.6,180.9,46.6,180.6,46.6L180.6,46.6z M180.6,46.6"/>
		<path class="st5" d="M252.8,46.6c-0.4,0-0.8-0.1-1.1-0.2c-15.5-4.9-31.6-6.4-47.8-4.7c-2.1,0.3-4-1.3-4.2-3.4
			c-0.2-2.1,1.3-4,3.4-4.2c17.3-1.9,34.4-0.3,51,4.9c2,0.6,3.1,2.8,2.5,4.8C255.9,45.6,254.4,46.6,252.8,46.6L252.8,46.6z
			 M252.8,46.6"/>
	</g>
	<path class="st6" d="M78,137.9c-1.6,0-3.1-1-3.6-2.7c-0.6-2,0.5-4.1,2.5-4.8c3.8-1.2,7.8-2.2,11.8-3.1c2.1-0.4,4.1,0.9,4.5,2.9
		c0.4,2.1-0.9,4.1-2.9,4.5c-3.7,0.8-7.4,1.8-11,2.9C78.7,137.8,78.3,137.9,78,137.9L78,137.9z M78,137.9"/>
	<path class="st6" d="M150.2,137.9c-0.4,0-0.8-0.1-1.1-0.2c-14.3-4.5-29.2-6.2-44.2-5c-2.2,0.2-3.9-1.4-4.1-3.5
		c-0.2-2.1,1.4-3.9,3.5-4.1c16-1.3,31.8,0.5,47,5.3c2,0.6,3.1,2.8,2.5,4.8C153.3,136.8,151.8,137.9,150.2,137.9L150.2,137.9z
		 M150.2,137.9"/>
	<path class="st6" d="M150.2,122.6c-0.4,0-0.8-0.1-1.1-0.2c-22.9-7.2-47-7.2-69.9,0c-2,0.6-4.1-0.5-4.8-2.5c-0.6-2,0.5-4.1,2.5-4.8
		c24.4-7.7,50.1-7.7,74.5,0c2,0.6,3.1,2.8,2.5,4.8C153.3,121.6,151.8,122.6,150.2,122.6L150.2,122.6z M150.2,122.6"/>
	<path class="st6" d="M78,107.5c-1.6,0-3.1-1-3.6-2.7c-0.6-2,0.5-4.1,2.5-4.8c14-4.4,28.5-6.3,43.1-5.6c2.1,0.1,3.7,1.9,3.6,4
		c-0.1,2.1-1.9,3.7-4,3.6c-13.7-0.6-27.4,1.1-40.5,5.2C78.7,107.4,78.3,107.5,78,107.5L78,107.5z M78,107.5"/>
	<path class="st6" d="M150.2,107.5c-0.4,0-0.8-0.1-1.1-0.2c-4.8-1.5-9.8-2.7-14.7-3.6c-2.1-0.4-3.4-2.3-3.1-4.4
		c0.4-2.1,2.3-3.4,4.4-3.1c5.3,0.9,10.6,2.2,15.7,3.8c2,0.6,3.1,2.8,2.5,4.8C153.3,106.4,151.8,107.5,150.2,107.5L150.2,107.5z
		 M150.2,107.5"/>
	<path class="st6" d="M78,92.2c-1.6,0-3.1-1-3.6-2.7c-0.6-2,0.5-4.1,2.5-4.8c21.6-6.8,44.7-7.5,66.6-2.2c2,0.5,3.3,2.6,2.8,4.6
		c-0.5,2-2.6,3.3-4.6,2.8c-20.6-5-42.3-4.3-62.6,2.1C78.7,92.2,78.3,92.2,78,92.2L78,92.2z M78,92.2"/>
	<path class="st6" d="M78,77c-1.6,0-3.1-1-3.6-2.7c-0.6-2,0.5-4.1,2.5-4.8c7.6-2.4,15.6-4.1,23.5-5c2.1-0.3,4,1.3,4.2,3.4
		c0.2,2.1-1.3,4-3.4,4.2c-7.5,0.8-14.9,2.4-22.1,4.7C78.7,77,78.3,77,78,77L78,77z M78,77"/>
	<path class="st6" d="M142.6,74.9c-0.3,0-0.6,0-0.9-0.1c-8.4-2.1-17.1-3.2-25.8-3.3c-2.1,0-3.8-1.8-3.7-3.9c0-2.1,1.7-3.9,3.9-3.7
		c9.2,0.1,18.5,1.3,27.4,3.5c2,0.5,3.3,2.6,2.8,4.6C145.8,73.8,144.3,74.9,142.6,74.9L142.6,74.9z M142.6,74.9"/>
	<path class="st6" d="M78,61.9c-1.6,0-3.1-1-3.6-2.7c-0.6-2,0.5-4.1,2.5-4.8c16.6-5.2,33.7-6.9,51-4.9c2.1,0.2,3.6,2.1,3.4,4.2
		c-0.2,2.1-2.1,3.6-4.2,3.4c-16.2-1.8-32.3-0.2-47.8,4.6C78.7,61.8,78.3,61.9,78,61.9L78,61.9z M78,61.9"/>
	<path class="st6" d="M78,46.6c-1.6,0-3.1-1-3.6-2.7c-0.6-2,0.5-4.1,2.5-4.8c2.6-0.8,5.2-1.6,7.8-2.2c2-0.5,4.1,0.8,4.6,2.8
		c0.5,2-0.8,4.1-2.8,4.6c-2.4,0.6-4.9,1.3-7.4,2C78.7,46.6,78.3,46.6,78,46.6L78,46.6z M78,46.6"/>
	<path class="st6" d="M142.6,44.5c-0.3,0-0.6,0-0.9-0.1c-13.3-3.2-26.9-4.1-40.5-2.6c-2.1,0.3-4-1.3-4.2-3.4c-0.2-2.1,1.3-4,3.4-4.2
		c14.5-1.6,29-0.7,43.1,2.8c2,0.5,3.3,2.6,2.8,4.6C145.8,43.4,144.3,44.5,142.6,44.5L142.6,44.5z M142.6,44.5"/>
</g>
</svg>
