<?xml version="1.0" encoding="utf-8"?>
<!-- Generator: Adobe Illustrator 17.1.0, SVG Export Plug-In . SVG Version: 6.00 Build 0)  -->
<!DOCTYPE svg PUBLIC "-//W3C//DTD SVG 1.1//EN" "http://www.w3.org/Graphics/SVG/1.1/DTD/svg11.dtd">
<svg version="1.1" id="Calque_1" xmlns="http://www.w3.org/2000/svg" xmlns:xlink="http://www.w3.org/1999/xlink" x="0px" y="0px"
	 viewBox="0 0 300 60.4" enable-background="new 0 0 300 60.4" xml:space="preserve">
<g>
	<g>
		<path fill="#444444" d="M80.7,49.9V18.7H69.3v-6.6H100v6.6H88.6v31.2H80.7z"/>
		<path fill="#444444" d="M100.4,49.9v-28h6.9v3.4c0.6-0.9,1.2-1.7,1.9-2.2c0.7-0.5,1.3-0.9,2-1.2c0.7-0.3,1.4-0.5,2.1-0.5
			c0.7-0.1,1.5-0.1,2.2-0.1h1v7.6c-0.7-0.1-1.4-0.2-2-0.2c-4.5,0-6.8,2.3-6.8,6.8v14.6H100.4z"/>
		<path fill="#444444" d="M134.8,49.9c-0.2-0.7-0.4-1.6-0.5-2.5c-0.9,1-2,1.8-3.5,2.4c-1.4,0.6-3.1,0.9-5,0.9
			c-3.2,0-5.6-0.7-7.1-2.1c-1.5-1.4-2.2-3.3-2.2-5.5c0-2,0.3-3.6,1-4.8c0.6-1.2,1.5-2.1,2.7-2.8c1.1-0.7,2.5-1.2,4.1-1.5
			c1.6-0.3,3.3-0.6,5.1-0.9c1.9-0.3,3.1-0.6,3.8-1.1c0.6-0.4,1-1.1,1-2.1c0-0.9-0.4-1.6-1.3-2.1c-0.9-0.5-2-0.8-3.4-0.8
			c-1.7,0-2.9,0.4-3.7,1.1c-0.7,0.8-1.2,1.8-1.4,3h-6.9c0-1.4,0.3-2.8,0.7-4c0.4-1.2,1.1-2.3,2.1-3.1c1-0.9,2.2-1.5,3.8-2
			c1.6-0.5,3.4-0.7,5.7-0.7c2.2,0,4.1,0.2,5.6,0.7c1.5,0.5,2.8,1.2,3.7,2.1c0.9,0.9,1.6,2.1,2,3.5c0.4,1.4,0.6,2.9,0.6,4.7v17.7
			H134.8z M134.3,36.2c-0.4,0.4-0.9,0.7-1.6,0.9c-0.7,0.2-1.8,0.5-3.1,0.7c-2.1,0.4-3.6,0.9-4.4,1.6c-0.8,0.6-1.2,1.6-1.2,2.8
			c0,2.1,1.2,3.1,3.6,3.1c0.9,0,1.8-0.2,2.6-0.5c0.8-0.3,1.5-0.8,2.1-1.3c0.6-0.5,1.1-1.2,1.4-1.9c0.4-0.7,0.5-1.5,0.5-2.4
			L134.3,36.2z"/>
		<path fill="#444444" d="M146.1,49.9V27.1h-4.1v-5.2h4.1c0-6.8,4-10.2,11.9-10.2v6c-0.9,0-1.7,0.1-2.3,0.2
			c-0.6,0.1-1.1,0.4-1.4,0.7c-0.3,0.3-0.6,0.8-0.7,1.3c-0.1,0.5-0.2,1.2-0.2,2h4.8v5.2h-4.8v22.7H146.1z"/>
		<path fill="#444444" d="M159.8,18.5v-6.9h7.4v6.9H159.8z M159.8,49.9v-28h7.4v28H159.8z"/>
		<path fill="#444444" d="M195.5,39.7c-0.2,1.6-0.7,3.1-1.4,4.4c-0.7,1.3-1.7,2.5-2.8,3.4c-1.1,0.9-2.4,1.7-3.9,2.2
			c-1.5,0.5-3,0.8-4.7,0.8c-1.9,0-3.6-0.3-5.2-0.9c-1.6-0.6-2.9-1.6-4.1-2.8c-1.1-1.3-2-2.8-2.6-4.7c-0.6-1.9-0.9-4.1-0.9-6.6
			c0-2.5,0.3-4.7,0.9-6.5c0.6-1.8,1.5-3.3,2.6-4.5c1.1-1.2,2.5-2,4.1-2.6c1.6-0.6,3.4-0.9,5.4-0.9c1.8,0,3.5,0.2,5,0.7
			c1.5,0.5,2.8,1.2,3.9,2.2c1.1,0.9,2,2.1,2.6,3.4c0.6,1.3,1,2.8,1.1,4.4h-7.4c-0.2-1.4-0.8-2.6-1.7-3.4c-1-0.8-2.2-1.2-3.6-1.2
			c-0.8,0-1.5,0.1-2.2,0.4c-0.7,0.3-1.3,0.7-1.8,1.3c-0.5,0.6-0.9,1.5-1.2,2.5c-0.3,1-0.5,2.3-0.5,3.8c0,3.1,0.5,5.3,1.6,6.8
			c1.1,1.5,2.4,2.2,3.8,2.2c1.4,0,2.7-0.4,3.7-1.2c1-0.8,1.6-2,1.8-3.5H195.5z"/>
		<path fill="#444444" d="M207.5,49.9V18.7h-11.4v-6.6h30.7v6.6h-11.4v31.2H207.5z"/>
		<path fill="#444444" d="M228.7,37.8c0.1,2.1,0.7,3.8,1.8,5.1c1.1,1.3,2.6,1.9,4.4,1.9c1.2,0,2.3-0.3,3.2-0.8
			c0.9-0.5,1.5-1.3,1.8-2.3h7.6c-0.9,2.9-2.4,5.1-4.5,6.7c-2.2,1.6-4.7,2.3-7.7,2.3c-9.3,0-14-5.1-14-15.2c0-2.2,0.3-4.1,0.9-5.9
			c0.6-1.7,1.5-3.2,2.6-4.5c1.2-1.3,2.6-2.2,4.2-2.9c1.7-0.7,3.6-1,5.7-1c4.3,0,7.6,1.4,9.8,4.1c2.2,2.8,3.3,6.9,3.3,12.5H228.7z
			 M240.4,33.1c0-1-0.2-1.9-0.5-2.7c-0.3-0.8-0.7-1.4-1.3-1.9c-0.5-0.5-1.1-0.9-1.8-1.1c-0.7-0.2-1.4-0.4-2.1-0.4
			c-1.5,0-2.8,0.5-3.8,1.6s-1.7,2.6-1.8,4.5H240.4z"/>
		<path fill="#444444" d="M267.1,30.4c-0.2-1.3-0.7-2.2-1.4-2.8c-0.8-0.6-2-0.9-3.6-0.9c-1.5,0-2.7,0.2-3.4,0.5
			c-0.8,0.4-1.2,1-1.2,1.8c0,0.8,0.4,1.4,1.2,1.8c0.8,0.5,1.9,0.9,3.4,1.3c2.4,0.7,4.5,1.3,6.1,1.7c1.7,0.5,3,1,4,1.7
			c1,0.6,1.7,1.4,2.2,2.4c0.4,1,0.7,2.3,0.7,3.9c0,2.5-1,4.6-3.1,6.2c-2.1,1.6-5.2,2.5-9.3,2.5c-2,0-3.8-0.2-5.5-0.7
			c-1.6-0.5-3-1.1-4.2-2c-1.2-0.9-2-1.9-2.7-3.1c-0.6-1.2-1-2.5-1-4h7.6c0,1.3,0.5,2.4,1.6,3.1c1,0.7,2.4,1.1,4.1,1.1
			c1.4,0,2.6-0.2,3.6-0.7c1-0.4,1.5-1.1,1.5-2c0-1-0.4-1.8-1.1-2.2s-1.9-0.9-3.4-1.2c-2.7-0.6-4.9-1.2-6.6-1.9
			c-1.7-0.7-3-1.4-3.9-2.2c-0.9-0.8-1.6-1.7-1.9-2.6c-0.3-0.9-0.5-2-0.5-3.2c0-1.1,0.2-2.1,0.7-3c0.4-0.9,1.1-1.8,2.1-2.5
			c0.9-0.7,2.2-1.3,3.7-1.7c1.5-0.4,3.4-0.7,5.6-0.7c4,0,7,0.8,8.8,2.4c1.9,1.6,2.9,3.9,3.1,6.8H267.1z"/>
		<path fill="#444444" d="M292.7,31.4h6.9v8c0,1.5-0.2,2.9-0.7,4.2c-0.4,1.3-1.1,2.5-2,3.6c-0.9,1-2.1,1.9-3.5,2.5
			c-1.4,0.6-3.1,0.9-5.1,0.9c-2,0-3.8-0.3-5.2-0.9c-1.4-0.6-2.6-1.4-3.6-2.4c-0.9-1-1.6-2.2-2-3.6c-0.4-1.4-0.6-2.8-0.6-4.3v-25h7.3
			v7.6h15.5v5.2h-15.5v11.5c0,1.8,0.3,3.2,1,4.1c0.7,1,1.8,1.4,3.3,1.4c1.5,0,2.6-0.5,3.3-1.4c0.7-0.9,1.1-2.3,1.1-4V31.4z"/>
	</g>
	<circle fill="#6EB42C" cx="30.1" cy="44.5" r="5.7"/>
	<circle fill="#D25050" cx="30.1" cy="16.1" r="5.7"/>
	<circle fill="#E5AB25" cx="30.1" cy="30.3" r="5.7"/>
	<g>
		<path fill="#444444" d="M30.1,0.2C13.5,0.2,0,13.7,0,30.3c0,16.6,13.5,30.1,30.1,30.1s30.1-13.5,30.1-30.1
			C60.2,13.7,46.7,0.2,30.1,0.2z M30.1,52.8C19.1,52.8,9.8,44.7,8,34.2h15.4c-0.7-1.1-1-2.4-1-3.8c0-1.4,0.4-2.7,1-3.8H8
			c1.8-10.5,11-18.6,22.1-18.6s20.3,8,22.1,18.6H36.8c0.7,1.1,1,2.4,1,3.8c0,1.4-0.4,2.7-1,3.8h15.4C50.4,44.7,41.2,52.8,30.1,52.8z
			"/>
	</g>
</g>
</svg>
