<?xml version="1.0" encoding="utf-8"?>
<!-- Generator: Adobe Illustrator 21.1.0, SVG Export Plug-In . SVG Version: 6.00 Build 0)  -->
<svg version="1.1" id="Calque_1" xmlns="http://www.w3.org/2000/svg" xmlns:xlink="http://www.w3.org/1999/xlink" x="0px" y="0px"
	 viewBox="0 0 330.6 200" style="enable-background:new 0 0 330.6 200;" xml:space="preserve">
<style type="text/css">
	.st0{fill:#080A09;}
	.st1{fill:#FFF5E8;}
	.st2{fill:#929697;}
	.st3{fill:#854012;}
	.st4{fill:#F37521;}
	.st5{fill:#3D3C3C;}
	.st6{fill:#A65017;}
	.st7{fill:#4A4849;}
	.st8{fill:#A4A39F;}
	.st9{fill:#D4661D;}
	.st10{fill:#6C6F70;}
</style>
<g>
	<circle class="st0" cx="249.3" cy="128.8" r="34.5"/>
	<circle class="st1" cx="249.3" cy="128.8" r="25.2"/>
	<circle class="st2" cx="249.3" cy="128.8" r="13.5"/>
	<path class="st3" d="M264.6,94.4c0.4,0,0.5-0.6,0.1-0.7c-3.7-1.6-13.5-5.4-21.1-3.2c-9.7,2.8-27.7,19.1-30.4,25.7
		c0,0,11.6-6.3,13-6.3c2.3,0,10.4,4.5,10.9,4.5s13.4,1.7,15.1-2.7c1.7-4.5-3.7-7-3.2-9.6C249.3,101.3,252.5,95,264.6,94.4z"/>
	<circle class="st0" cx="84.6" cy="127.7" r="37.9"/>
	<circle class="st1" cx="84.6" cy="127.7" r="27.5"/>
	<circle class="st2" cx="84.6" cy="127.7" r="14.7"/>
	<path class="st4" d="M132.7,103l-12.2-4.5c-2.9-1.2-6-0.2-8.6,1.8l-31.1,24.6c-2,1.7-2.7,4.5-1.5,6.9c0.7,1.6,3.6,3.1,6.3,2
		c4.9-2.1,22-12.8,29.1-16.6c1.7-1,3.8-1.1,5.8-0.4l7.4,2.8c3.3,1.2,6.9-0.6,7.9-3.9l1.6-5.7C138.2,106.4,135.9,104.3,132.7,103z"/>
	<path class="st2" d="M139.9,88.2c0,0-2.3,9.7-2.8,14.4c-0.1,1.1-1.2,1.7-2.2,1.2c-2.2-1.1-5.8-3.9-7.1-2.9
		c-5.5,4.1-16,16.2-16,16.2l38.1,15.4l3.4-26.2l-1.2-19.8L139.9,88.2z"/>
	<path class="st5" d="M248.6,58.4c-2.2-0.5-11.8-8.5-11.8-8.5l-3.7,4.8c-1,1.4-1.1,3.2,0,4.4c0.6,0.9,0,2-1.1,1.8l-4.3-0.7
		c-1.1-0.1-2-0.9-2.5-1.8l-3.3-7.6c-0.5-1.2-2-1.8-3.2-1.2l-7.9,3.6c-1.2,0.5-1.7,2-1.1,3.2l0.9,1.6l-58.9,33.1
		c-1.6,0.9-2.7,2.3-3.3,4.1l-1.4,4.3c-0.2,0.6-0.4,1.4-0.5,2l-1.4,10.8c-0.1,1,0,2,0.2,2.9l4.5,14.9c0,0,0.4,7.5,4.1,7.7
		c2.8,0.2,26.9,0.1,37.9,0c3.4,0,6.6-1.6,8.7-4.2l33.3-42L248.6,66C248.6,66,250.8,58.8,248.6,58.4z"/>
	<path class="st6" d="M253.9,81.3c0,0,2.2,2.2,2.3,3.2c0.1,1-3.6,1.1-5,1.8c-1.4,0.7-26.9,18.1-35,28.3c-3.7,4.7-5.8,8-6.4,16.2
		c-0.1,1.5,0.1,2.9,0.6,4.3l1.7,4.4c1.2,3.2-1.1,6.6-4.5,6.6h-81.4c-1.5,0-2.2-1.8-1.1-2.9l5.7-5.2l7,2.7c0,0,8.8-7.6,11.4-10.2
		c2.6-2.6,17.1-13.2,17.1-13.2l10.8-21L229,79c0,0-2.3-3.3-5.3-3.8c-2.9-0.5,1.2-2.3,7.1-1.4C236.8,74.8,246.1,76.8,253.9,81.3z"/>
	<circle class="st7" cx="135.8" cy="115.1" r="8.8"/>
	<circle class="st7" cx="121.6" cy="114.3" r="4.7"/>
	<circle class="st8" cx="84.6" cy="128.7" r="3.8"/>
	<path class="st9" d="M210.6,57.9c0,0-43.6,0.4-49,2.3c-5.5,2-14.5,6.5-21.5,5.9c-7-0.6-23.8-3.7-29.4-5.9c-5.5-2.2-8.8-4.4-9.7-6.9
		c-0.9-2.5,0.1-4.1-4.3-4.7c-3.2-0.5-21.9-2.5-32.4-3.6c-2.8-0.2-4.2,3.2-2.1,4.9c2.7,2.1,6.8,4.9,12.9,8.5
		c17.3,10,60.8,31.2,64.2,32.2c3.3,1,10.6,2.1,10.6,2.1s0.4,0.6,1.8,0.1C153,92.2,208.6,58.8,210.6,57.9z"/>
	<path class="st4" d="M211.3,60.1c0,0,0.1-4.4-4.5-6c-4.7-1.6-24.3-6.3-26.4-6.6c-2.1-0.4-10-0.4-12.7,0c-2.6,0.4-17.1,8.1-18.2,10
		s-3.4,6-3.4,8.8s11.1,4.9,11.1,4.9s37.1-8.1,37.7-8.1c0.6,0,6.8,1.1,7.5,1C203,63.9,210.2,62.4,211.3,60.1z"/>
	<path class="st7" d="M139.9,66c-7-0.6-23.8-3.7-29.4-5.9c-3.7-1.5-6.4-3-8-4.5l-1.2,1.1c-1.4,1.2-1.1,3.3,0.4,4.3
		c0,0,30.4,14.6,32.4,14.6c2.1,0,14.6-2.2,15.1-2.7c0.5-0.5,5-5.3-3.7-7.3C143.6,66,141.7,66.2,139.9,66z"/>
	<g>
		
			<rect x="240" y="96.3" transform="matrix(0.9564 -0.2921 0.2921 0.9564 -20.3788 75.4798)" class="st8" width="5.2" height="19.3"/>
		<path class="st10" d="M250.4,131.6L250.4,131.6c-1.8,0.6-3.8-0.5-4.4-2.3l-4.1-13.4c-0.2-1,0.2-2,1.2-2.3l3.2-1
			c1-0.2,2,0.2,2.3,1.2l4.1,13.4C253.3,129,252.3,131,250.4,131.6z"/>
		<circle class="st8" cx="249.3" cy="127.9" r="2.1"/>
		<path class="st4" d="M242.6,100.6l-2.9,0.9c-1,0.4-2.1-0.2-2.5-1.4l-2.6-8.6c-0.4-1,0.2-2.1,1.4-2.5l2.9-0.9
			c1-0.4,2.1,0.2,2.5,1.4l2.6,8.6C244.2,99.2,243.5,100.3,242.6,100.6z"/>
	</g>
	<path class="st7" d="M164.5,95.1c5-3.1,52-32.4,60.4-37.7l-2.9-6.6c-0.5-1.2-2-1.8-3.2-1.2l-7.7,3.4c-1.2,0.6-1.8,2.1-1.1,3.3
		l0.9,1.6l-58.9,33.1c-1.6,0.9-2.7,2.3-3.3,4.1l-1.4,4.3c-0.2,0.6-0.4,1.4-0.5,2l-1.4,10.8c-0.1,1,0,2,0.2,2.9l4.5,14.9
		c0,0,0,1.1,0.4,2.6l9.2-8l-4.3-2.7c0,0-2.3-7.5-0.7-13.9S159,98.6,164.5,95.1z"/>
	<path class="st9" d="M230.9,73.8c-6-1-10.2,0.9-7.1,1.4c2.9,0.5,5.3,3.8,5.3,3.8l-51,17.2c-0.6,0.2-1.2,0.7-1.5,1.2l-10.3,20.2
		c0,0-14.6,10.7-17.1,13.2c-1.7,1.7-6.3,5.8-9.1,8.2c5-1.5,15.4-4.8,17.2-7.4c2.5-3.4,18.1-13.8,30.5-21.8
		C200,102,240.1,85.3,243.3,85c1.8-0.1,6.3,0.2,9.8,0.7c1.5-0.4,3.2-0.6,3.2-1.4c-0.1-1-2.3-3.2-2.3-3.2
		C246.1,76.8,236.9,74.8,230.9,73.8z"/>
	<path class="st8" d="M82.9,109.6l-3.2,4.8c-1.5,2.2-0.5,5.3,2,6.3l55.6,21.4c2.1,0.9,4.5,0.4,6.3-1.1l3.2-2.9c2.7-2.5,2-7-1.5-8.4
		l-55.6-22.2C87.3,106.4,84.4,107.3,82.9,109.6z"/>
	<path class="st0" d="M145.3,129.6l-8.6-3.4c-2.5,3.4-6.5,9.1-9.3,12l9.7,3.8c2.1,0.9,4.5,0.4,6.3-1.1l3.2-2.9
		C149.5,135.5,148.8,131,145.3,129.6z"/>
	<path class="st4" d="M253.9,81.3c0,0,10.8,1,11.2-1.7s-12.3-34.9-36.3-44.9c-1.6-0.6-3.4-0.2-4.7,0.9c-1.7,1.7-3.9,4.1-3.4,5
		c0.7,1.6,20,14.5,21,15.1c2.7,1.8,3.2,2.2,2.7,4.9c0,0-2.8,7.7-7.5,8c-4.4,0.2-20.2-11.6-54.9,14.4c-1.4,1-0.2,3.2,1.4,2.7
		C199.7,81,236.4,72,253.9,81.3z"/>
</g>
</svg>
