<?xml version="1.0" encoding="utf-8"?>
<!-- Generator: Adobe Illustrator 17.1.0, SVG Export Plug-In . SVG Version: 6.00 Build 0)  -->
<!DOCTYPE svg PUBLIC "-//W3C//DTD SVG 1.1//EN" "http://www.w3.org/Graphics/SVG/1.1/DTD/svg11.dtd">
<svg version="1.1" id="Calque_1" xmlns="http://www.w3.org/2000/svg" xmlns:xlink="http://www.w3.org/1999/xlink" x="0px" y="0px"
	 viewBox="58.7 92.8 182.6 114.4" enable-background="new 58.7 92.8 182.6 114.4" xml:space="preserve">
<g>
	<path fill="#768391" d="M117.9,177h5.7c3.5,0,6.3,2.7,6.6,6.1h5.5V176c0-0.8,0.7-1.5,1.5-1.5s1.5,0.7,1.5,1.5v8.6
		c0,0.8-0.7,1.5-1.5,1.5h-7.4c-1,2.4-3.3,4.1-6.1,4.1H118c-3.6,0-6.6-3-6.6-6.6l0,0C111.3,180,114.3,177,117.9,177z"/>
	<path fill="#950708" d="M75.8,147.4h-6.6c-1.7,0-3.2,1.1-3.8,2.7l-1,2.6h-0.1c-1.4,0-2.7,1-3,2.4l0,0c-0.3,1.6,0.9,3.1,2.5,3.1h6.7
		L75.8,147.4z"/>
	<path fill="#F5964E" d="M182.5,114.3c0,0-6.3-9.4-4.5-10.7c1.8-1.3,3.3-1.3,5.1-3.8c1.7-2.3,3.6-6.8,11.5-7c1.2,0,2.3,0.8,2.6,1.9
		c0.7,2.3,1.4,6.5,0.3,10.5c-0.4,1.3-1.6,2.1-3,1.9c-2.1-0.3-5.1-0.6-5.3,0.7c-0.5,1.9,0.8,3.5,0.8,3.5L182.5,114.3z"/>
	<circle fill="#07070A" stroke="#000000" stroke-miterlimit="10" cx="217.7" cy="183.3" r="23.6"/>
	<circle fill="#FFF5E8" cx="217.7" cy="183.3" r="16.5"/>
	<circle fill="#929697" cx="217.7" cy="183.3" r="9.1"/>
	<circle fill="#07070A" stroke="#000000" stroke-miterlimit="10" cx="87.7" cy="183.6" r="23.6"/>
	<circle fill="#FFF5E8" cx="87.7" cy="183.6" r="16.5"/>
	<circle fill="#929697" cx="87.7" cy="183.6" r="9.1"/>
	<g>
		<circle fill="#6B463C" cx="181.7" cy="106.8" r="3"/>
		<path fill="#5C3C33" d="M182.3,108.2L182.3,108.2c0,0,0.1,0,0.1-0.1c0.7-0.4,1-1.3,0.6-2c-0.3-0.6-1-0.9-1.7-0.7l0,0l-3.8,0.8
			l1,3.7L182.3,108.2z"/>
		<circle fill="#6B463C" cx="177.6" cy="108.2" r="2"/>
	</g>
	<path fill="#F57C21" d="M58.7,174.4c0,0-0.3-20.5,23.1-35.6l2-3.3c0,0,54.2-4.8,55.5-4.3s3.2,2.1,1.4,5s-15.2,17.5-5.8,26.7
		c0,0,3.8,13.3,40.2,5c0,0,14.6-10.7,15.5-25c0.7-11.6-6.9-24.2-9.8-28.6c-0.6-0.8-0.2-2,0.7-2.4l4.8-2.2c0.6-0.3,1.3,0,1.6,0.6
		c2.3,4.8,11.3,24.1,13.3,24.2c2.3,0.1,8.4,4,5.8,10.9c0,0-10.6,6-10.8,6.7c-0.1,0.7-6.1,16.3-13.7,23.2c0,0-4.9,6.2-17,6.2
		c-12,0-56.9,0-56.9,0s-3.8-2.5,0.3-5.6c0,0,2.9-1.9,1.8-3.1C108.8,170.7,67.1,171.4,58.7,174.4z"/>
	<path fill="#FF984A" d="M108.3,142.1c13.6,0.6,16.7,11.1,15.3,20.8c-1,6.7-6.9,10.4-10.9,11.6c0.2-0.4,0.3-0.9-0.1-1.2
		c-1.9-2.1-41.7-1.6-51.4,1.3c1.4-3,3.6-7.4,7-13.8C77.9,142.7,94.7,141.4,108.3,142.1z"/>
	<path fill="#D96E1D" d="M192.9,175.7c-2.8,0.9-5.4-1.7-4.6-4.5c1.3-4.3,4.3-11.2,11.4-20.6c5-6.7,7.7-4.6,7.7-4.6s17.1-6.2,29.4,8
		c1.9,2.2,0.5,5.7-2.4,6c-6.2,0.7-15.2,1.6-17,1.9C210.1,163,202.2,172.7,192.9,175.7z"/>
	<path fill="#08090C" stroke="#000000" stroke-miterlimit="10" d="M143.8,124v4.8c0,1.5-1.2,2.7-2.6,2.8l-55.6,4
		c-1.1,0.1-2-0.8-2-1.9c0-2.5-0.1-6.8-0.7-9.4c-0.3-1.2,0.6-2.3,1.8-2.4c9.8-0.4,43-1.7,54.8-2.1C141.9,119.8,143.8,121.7,143.8,124
		z"/>
	<path fill="#F5964E" d="M207.3,146.7c-1.6-2.5-2.6-7.8-3.2-11.5c2.7,1,7,4.7,4.7,10.6C208.9,145.8,208.3,146.2,207.3,146.7z"/>
	<path fill="#768391" d="M100.6,187.6h14v-4h-14c-1.1,0-2,0.9-2,2l0,0C98.6,186.7,99.5,187.6,100.6,187.6z"/>
	<path fill="#A8A8A8" d="M194.3,92.9c0.1,0,0.2,0,0.2,0c1.2,0,2.3,0.8,2.6,1.9c0.7,2.3,1.4,6.5,0.3,10.5c-0.4,1.3-1.6,2.1-3,1.9
		c-0.1,0-0.2,0-0.2,0C194.8,103.3,194.5,96.3,194.3,92.9z"/>
</g>
</svg>
