<?xml version="1.0" encoding="utf-8"?>
<!-- Generator: Adobe Illustrator 21.1.0, SVG Export Plug-In . SVG Version: 6.00 Build 0)  -->
<svg version="1.1" id="Calque_1" xmlns="http://www.w3.org/2000/svg" xmlns:xlink="http://www.w3.org/1999/xlink" x="0px" y="0px"
	 viewBox="0 0 259.2 111.5" style="enable-background:new 0 0 259.2 111.5;" xml:space="preserve">
<style type="text/css">
	.st0{fill:#FF8D35;}
	.st1{fill:#AD6024;}
	.st2{fill:#07070A;}
	.st3{fill:#FFF5E8;}
	.st4{fill:#19212E;}
	.st5{fill:#929697;}
	.st6{enable-background:new    ;}
</style>
<g>
	<g>
		<path class="st0" d="M0,7.3v76c0,3.8,3.1,6.9,6.9,6.9h245.4c3.8,0,6.9-3.1,6.9-6.9V44c0-2-0.4-4.1-1.2-5.9L245.8,9.5l-3.9-9.1H6.9
			C3.1,0.4,0,3.5,0,7.3z"/>
	</g>
	<g>
		<path class="st1" d="M6.9,88.9h245.4c3.8,0,6.9-3.1,6.9-6.9V68.2H0V82C0,85.9,3.1,88.9,6.9,88.9z"/>
	</g>
	<g>
		<circle class="st2" cx="41.6" cy="90.4" r="20.7"/>
		<path d="M41.6,111.6c-11.7,0-21.2-9.5-21.2-21.2s9.5-21.2,21.2-21.2c11.7,0,21.2,9.5,21.2,21.2S53.3,111.6,41.6,111.6z M41.6,70.2
			c-11.1,0-20.2,9.1-20.2,20.2s9.1,20.2,20.2,20.2c11.1,0,20.2-9.1,20.2-20.2S52.7,70.2,41.6,70.2z"/>
	</g>
	<g>
		<path class="st3" d="M28.7,90.4c0,1.5,0.2,2.9,0.7,4.3c0.2,0.4,0.3,0.9,0.6,1.3c1.3,2.6,3.4,4.8,6,6c0.4,0.2,0.9,0.4,1.4,0.6
			c1.3,0.5,2.8,0.7,4.3,0.7s2.9-0.2,4.3-0.7c0.4-0.2,0.9-0.3,1.3-0.6c2.6-1.3,4.8-3.4,6-6c0.2-0.4,0.4-0.9,0.6-1.3
			c0.5-1.3,0.7-2.8,0.7-4.3s-0.2-2.9-0.7-4.3c-0.1-0.4-0.3-0.9-0.6-1.3c-1.2-2.6-3.4-4.8-6-6.1c-0.4-0.2-0.9-0.4-1.4-0.6
			c-1.3-0.5-2.8-0.7-4.3-0.7s-2.9,0.2-4.3,0.7c-0.5,0.1-0.9,0.3-1.4,0.6c-2.6,1.3-4.8,3.4-6,6c-0.2,0.4-0.4,0.9-0.6,1.4
			C28.9,87.4,28.7,88.9,28.7,90.4z"/>
	</g>
	<g>
		<circle class="st2" cx="203.5" cy="90.4" r="20.7"/>
		<path d="M203.5,111.6c-11.7,0-21.2-9.5-21.2-21.2s9.5-21.2,21.2-21.2s21.2,9.5,21.2,21.2S215.2,111.6,203.5,111.6z M203.5,70.2
			c-11.1,0-20.2,9.1-20.2,20.2s9.1,20.2,20.2,20.2s20.2-9.1,20.2-20.2S214.6,70.2,203.5,70.2z"/>
	</g>
	<g>
		<path class="st3" d="M190.6,90.4c0,1.5,0.2,2.9,0.7,4.3c0.2,0.4,0.3,0.9,0.6,1.3c1.3,2.6,3.4,4.8,6,6c0.4,0.2,0.9,0.4,1.4,0.6
			c1.3,0.5,2.8,0.7,4.3,0.7s2.9-0.2,4.3-0.7c0.4-0.2,0.9-0.3,1.3-0.6c2.6-1.3,4.8-3.4,6-6c0.2-0.4,0.4-0.9,0.6-1.3
			c0.5-1.3,0.7-2.8,0.7-4.3s-0.2-2.9-0.7-4.3c-0.1-0.4-0.3-0.9-0.6-1.3c-1.2-2.6-3.4-4.8-6-6.1c-0.4-0.2-0.9-0.4-1.4-0.6
			c-1.3-0.5-2.8-0.7-4.3-0.7s-2.9,0.2-4.3,0.7c-0.5,0.1-0.9,0.3-1.4,0.6c-2.6,1.3-4.8,3.4-6,6c-0.2,0.4-0.4,0.9-0.6,1.4
			C190.8,87.4,190.6,88.9,190.6,90.4z"/>
	</g>
	<g>
		<path class="st4" d="M172.1,16.4v22.9c0,3.8,3.1,6.9,6.9,6.9h25.7c1.9,0,3.6-0.7,4.8-2c1.3-1.2,2.1-3,2.1-4.9V16.4
			c0-3.8-3.1-6.9-6.9-6.9H179c-1.9,0-3.6,0.7-4.8,2C172.9,12.7,172.1,14.5,172.1,16.4z"/>
	</g>
	<g>
		<path class="st4" d="M228.7,23.3v26.8c0,3.4,2.7,6.1,6.1,6.1h24.4V44c0-2-0.4-4.1-1.2-5.9L245.8,9.5h-3.3
			C234.9,9.5,228.7,15.7,228.7,23.3z"/>
	</g>
	<g>
		<path class="st4" d="M16.1,16.4v22.9c0,3.8,3.1,6.9,6.9,6.9h25.7c1.9,0,3.5-0.7,4.8-1.9s2.1-3,2.1-5V16.4c0-3.8-3.1-6.9-6.9-6.9
			H23c-1.9,0-3.6,0.7-4.8,2C16.9,12.7,16.1,14.5,16.1,16.4z"/>
	</g>
	<g>
		<path class="st4" d="M62.3,16.4v22.9c0,3.8,3.1,6.9,6.9,6.9h89.7c1.9,0,3.5-0.7,4.8-1.9s2.1-3,2.1-5V16.4c0-3.8-3.1-6.9-6.9-6.9
			H69.2c-1.9,0-3.6,0.7-4.8,2C63.1,12.7,62.3,14.5,62.3,16.4z"/>
	</g>
	<g>
		<circle class="st5" cx="203.5" cy="90.4" r="5.3"/>
	</g>
	<g>
		<circle class="st5" cx="41.6" cy="90.4" r="5.3"/>
	</g>
	<g class="st6">
		<g>
			<path class="st3" d="M82.9,20.4c-2.1,0-3.3,1.2-3.3,3.6v8.7c0,2.4,1.2,3.6,3.3,3.6c2.8,0,3.1-2,3.2-3.3c0.1-1,0.9-1.3,2-1.3
				c1.4,0,2.1,0.4,2.1,2c0,3.8-3.1,6.2-7.5,6.2c-3.9,0-7.2-1.9-7.2-7.2V24c0-5.2,3.3-7.2,7.2-7.2c4.3,0,7.4,2.3,7.4,5.9
				c0,1.6-0.7,2-2,2c-1.2,0-2-0.3-2-1.3C86,22.5,85.8,20.4,82.9,20.4z"/>
		</g>
		<g>
			<path class="st3" d="M91.3,38c0-0.1,0-0.2,0.1-0.3l6-19.7c0.3-0.9,1.4-1.4,2.6-1.4s2.3,0.4,2.6,1.4l6,19.7c0,0.1,0.1,0.2,0.1,0.3
				c0,1-1.5,1.7-2.6,1.7c-0.7,0-1.2-0.2-1.4-0.8l-1.2-4.2h-7.2l-1.2,4.2c-0.2,0.6-0.7,0.8-1.4,0.8C92.8,39.7,91.3,39,91.3,38z
				 M102.7,31.5l-2.7-9.6l-2.7,9.6H102.7z"/>
		</g>
		<g>
			<path class="st3" d="M110.9,18.1c0-0.7,0.6-1.3,1.5-1.3h6.3c4,0,7.1,1.9,7.1,7V24c0,5.1-3.2,7.1-7.3,7.1H115v7.3
				c0,0.8-1,1.3-2,1.3s-2-0.4-2-1.3L110.9,18.1L110.9,18.1z M115,20.4V28h3.5c2,0,3.3-1.2,3.3-3.6V24c0-2.4-1.3-3.6-3.3-3.6H115z"/>
		</g>
		<g>
			<path class="st3" d="M141.9,16.8c4.1,0,7.3,1.9,7.3,7.2v8.5c0,5.2-3.2,7.2-7.3,7.2h-5.5c-1.1,0-1.8-0.6-1.8-1.3V18.1
				c0-0.7,0.7-1.3,1.8-1.3C136.4,16.8,141.9,16.8,141.9,16.8z M138.6,20.4v15.7h3.3c2.1,0,3.3-1.2,3.3-3.6V24c0-2.4-1.2-3.6-3.3-3.6
				H138.6z"/>
		</g>
	</g>
</g>
</svg>
