<?xml version="1.0" encoding="utf-8"?>
<!-- Generator: Adobe Illustrator 17.1.0, SVG Export Plug-In . SVG Version: 6.00 Build 0)  -->
<!DOCTYPE svg PUBLIC "-//W3C//DTD SVG 1.1//EN" "http://www.w3.org/Graphics/SVG/1.1/DTD/svg11.dtd">
<svg version="1.1" id="Calque_1" xmlns="http://www.w3.org/2000/svg" xmlns:xlink="http://www.w3.org/1999/xlink" x="0px" y="0px"
	 viewBox="53.5 96.8 192.9 106.6" enable-background="new 53.5 96.8 192.9 106.6" xml:space="preserve">
<g>
	<circle fill="#080A09" cx="218.3" cy="173.5" r="28.1"/>
	<circle fill="#FFF5E8" cx="218.3" cy="173.5" r="20.5"/>
	<circle fill="#929697" cx="218.3" cy="173.5" r="11"/>
	<path fill="#854012" d="M230.7,145.5c0.3,0,0.4-0.5,0.1-0.6c-3-1.3-11-4.4-17.2-2.6c-7.9,2.3-22.5,15.5-24.7,20.9
		c0,0,9.4-5.1,10.6-5.1c1.9,0,8.5,3.7,8.9,3.7s10.9,1.4,12.3-2.2c1.4-3.7-3-5.7-2.6-7.8C218.3,151.1,220.9,146,230.7,145.5z"/>
	<circle fill="#080A09" cx="84.3" cy="172.6" r="30.8"/>
	<circle fill="#FFF5E8" cx="84.3" cy="172.6" r="22.4"/>
	<circle fill="#929697" cx="84.3" cy="172.6" r="12"/>
	<path fill="#F37521" d="M123.4,152.5l-9.9-3.7c-2.4-1-4.9-0.2-7,1.5l-25.3,20c-1.6,1.4-2.2,3.7-1.2,5.6c0.6,1.3,2.9,2.5,5.1,1.6
		c4-1.7,17.9-10.4,23.7-13.5c1.4-0.8,3.1-0.9,4.7-0.3l6,2.3c2.7,1,5.6-0.5,6.4-3.2l1.3-4.6C127.9,155.3,126,153.6,123.4,152.5z"/>
	<path fill="#929697" d="M129.3,140.5c0,0-1.9,7.9-2.3,11.7c-0.1,0.9-1,1.4-1.8,1c-1.8-0.9-4.7-3.2-5.8-2.4
		c-4.5,3.3-13,13.2-13,13.2l31,12.5l2.8-21.3l-1-16.1L129.3,140.5z"/>
	<path fill="#3D3C3C" d="M217.7,116.2c-1.8-0.4-9.6-6.9-9.6-6.9l-3,3.9c-0.8,1.1-0.9,2.6,0,3.6c0.5,0.7,0,1.6-0.9,1.5l-3.5-0.6
		c-0.9-0.1-1.6-0.7-2-1.5L196,110c-0.4-1-1.6-1.5-2.6-1l-6.4,2.9c-1,0.4-1.4,1.6-0.9,2.6l0.7,1.3l-47.9,26.9
		c-1.3,0.7-2.2,1.9-2.7,3.3l-1.1,3.5c-0.2,0.5-0.3,1.1-0.4,1.6l-1.1,8.8c-0.1,0.8,0,1.6,0.2,2.4l3.7,12.1c0,0,0.3,6.1,3.3,6.3
		c2.3,0.2,21.9,0.1,30.8,0c2.8,0,5.4-1.3,7.1-3.4l27.1-34.2l11.9-20.7C217.7,122.4,219.5,116.6,217.7,116.2z"/>
	<path fill="#A65017" d="M222,134.9c0,0,1.8,1.8,1.9,2.6c0.1,0.8-2.9,0.9-4.1,1.5c-1.1,0.6-21.9,14.7-28.5,23
		c-3,3.8-4.7,6.5-5.2,13.2c-0.1,1.2,0.1,2.4,0.5,3.5l1.4,3.6c1,2.6-0.9,5.4-3.7,5.4h-66.2c-1.2,0-1.8-1.5-0.9-2.4l4.6-4.2l5.7,2.2
		c0,0,7.2-6.2,9.3-8.3s13.9-10.7,13.9-10.7l8.8-17.1l42.3-14.2c0,0-1.9-2.7-4.3-3.1c-2.4-0.4,1-1.9,5.8-1.1S215.7,131.2,222,134.9z"
		/>
	<circle fill="#4A4849" cx="125.9" cy="162.4" r="7.2"/>
	<circle fill="#4A4849" cx="114.4" cy="161.7" r="3.8"/>
	<circle fill="#A4A39F" cx="84.3" cy="173.4" r="3.1"/>
	<path fill="#D4661D" d="M186.8,115.8c0,0-35.5,0.3-39.9,1.9c-4.5,1.6-11.8,5.3-17.5,4.8s-19.4-3-23.9-4.8s-7.2-3.6-7.9-5.6
		c-0.7-2,0.1-3.3-3.5-3.8c-2.6-0.4-17.8-2-26.4-2.9c-2.3-0.2-3.4,2.6-1.7,4c2.2,1.7,5.5,4,10.5,6.9c14.1,8.1,49.5,25.4,52.2,26.2
		c2.7,0.8,8.6,1.7,8.6,1.7s0.3,0.5,1.5,0.1C139.9,143.7,185.2,116.6,186.8,115.8z"/>
	<path fill="#F37521" d="M187.4,117.6c0,0,0.1-3.6-3.7-4.9s-19.8-5.1-21.5-5.4s-8.1-0.3-10.3,0c-2.1,0.3-13.9,6.6-14.8,8.1
		s-2.8,4.9-2.8,7.2s9,4,9,4s30.2-6.6,30.7-6.6s5.5,0.9,6.1,0.8C180.6,120.7,186.5,119.5,187.4,117.6z"/>
	<path fill="#4A4849" d="M129.3,122.4c-5.7-0.5-19.4-3-23.9-4.8c-3-1.2-5.2-2.4-6.5-3.7l-1,0.9c-1.1,1-0.9,2.7,0.3,3.5
		c0,0,24.7,11.9,26.4,11.9s11.9-1.8,12.3-2.2c0.4-0.4,4.1-4.3-3-5.9C132.3,122.4,130.7,122.6,129.3,122.4z"/>
	<g>
		
			<rect x="210.7" y="147.1" transform="matrix(-0.9564 0.2921 -0.2921 -0.9564 461.6077 240.9791)" fill="#A4A39F" width="4.2" height="15.7"/>
		<path fill="#6C6F70" d="M219.2,175.8L219.2,175.8c-1.5,0.5-3.1-0.4-3.6-1.9l-3.3-10.9c-0.2-0.8,0.2-1.6,1-1.9l2.6-0.8
			c0.8-0.2,1.6,0.2,1.9,1l3.3,10.9C221.5,173.7,220.7,175.3,219.2,175.8z"/>
		<circle fill="#A4A39F" cx="218.3" cy="172.8" r="1.7"/>
		<path fill="#F37521" d="M212.8,150.6l-2.4,0.7c-0.8,0.3-1.7-0.2-2-1.1l-2.1-7c-0.3-0.8,0.2-1.7,1.1-2l2.4-0.7
			c0.8-0.3,1.7,0.2,2,1.1l2.1,7C214.1,149.4,213.6,150.3,212.8,150.6z"/>
	</g>
	<path fill="#4A4849" d="M149.3,146.1c4.1-2.5,42.3-26.4,49.1-30.7L196,110c-0.4-1-1.6-1.5-2.6-1l-6.3,2.8c-1,0.5-1.5,1.7-0.9,2.7
		l0.7,1.3L139,142.7c-1.3,0.7-2.2,1.9-2.7,3.3l-1.1,3.5c-0.2,0.5-0.3,1.1-0.4,1.6l-1.1,8.8c-0.1,0.8,0,1.6,0.2,2.4l3.7,12.1
		c0,0,0,0.9,0.3,2.1l7.5-6.5l-3.5-2.2c0,0-1.9-6.1-0.6-11.3C142.6,151.3,144.8,148.9,149.3,146.1z"/>
	<path fill="#D4661D" d="M203.3,128.8c-4.9-0.8-8.3,0.7-5.8,1.1c2.4,0.4,4.3,3.1,4.3,3.1l-41.5,14c-0.5,0.2-1,0.6-1.2,1l-8.4,16.4
		c0,0-11.9,8.7-13.9,10.7c-1.4,1.4-5.1,4.7-7.4,6.7c4.1-1.2,12.5-3.9,14-6c2-2.8,14.7-11.2,24.8-17.7c10-6.4,42.6-20,45.2-20.2
		c1.5-0.1,5.1,0.2,8,0.6c1.2-0.3,2.6-0.5,2.6-1.1c-0.1-0.8-1.9-2.6-1.9-2.6C215.7,131.2,208.2,129.6,203.3,128.8z"/>
	<path fill="#A4A39F" d="M82.9,157.9l-2.6,3.9c-1.2,1.8-0.4,4.3,1.6,5.1l45.2,17.4c1.7,0.7,3.7,0.3,5.1-0.9l2.6-2.4
		c2.2-2,1.6-5.7-1.2-6.8l-45.2-18.1C86.5,155.3,84.1,156,82.9,157.9z"/>
	<path fill="#080A09" d="M133.7,174.2l-7-2.8c-2,2.8-5.3,7.4-7.6,9.8l7.9,3.1c1.7,0.7,3.7,0.3,5.1-0.9l2.6-2.4
		C137.1,179,136.5,175.3,133.7,174.2z"/>
	<path fill="#F37521" d="M222,134.9c0,0,8.8,0.8,9.1-1.4s-10-28.4-29.5-36.5c-1.3-0.5-2.8-0.2-3.8,0.7c-1.4,1.4-3.2,3.3-2.8,4.1
		c0.6,1.3,16.3,11.8,17.1,12.3c2.2,1.5,2.6,1.8,2.2,4c0,0-2.3,6.3-6.1,6.5c-3.6,0.2-16.4-9.4-44.7,11.7c-1.1,0.8-0.2,2.6,1.1,2.2
		C177.9,134.6,207.8,127.3,222,134.9z"/>
</g>
</svg>
