<?xml version="1.0" encoding="utf-8"?>
<!-- Generator: Adobe Illustrator 21.1.0, SVG Export Plug-In . SVG Version: 6.00 Build 0)  -->
<svg version="1.1" id="Calque_1" xmlns="http://www.w3.org/2000/svg" xmlns:xlink="http://www.w3.org/1999/xlink" x="0px" y="0px"
	 viewBox="0 0 259.2 111.5" style="enable-background:new 0 0 259.2 111.5;" xml:space="preserve">
<style type="text/css">
	.st0{fill:#FF8D35;}
	.st1{fill:#AD6024;}
	.st2{fill:#07070A;stroke:#000000;stroke-miterlimit:10;}
	.st3{fill:#FFF5E8;}
	.st4{fill:#19212E;}
	.st5{fill:#929697;}
</style>
<path class="st0" d="M0,6.9l0,76c0,3.8,3.1,6.9,6.9,6.9h245.4c3.8,0,6.9-3.1,6.9-6.9V43.6c0-2-0.4-4.1-1.2-5.9L245.8,9.1L241.9,0
	L6.9,0C3.1,0,0,3.1,0,6.9z"/>
<path class="st1" d="M6.9,88.5h245.4c3.8,0,6.9-3.1,6.9-6.9V67.8H0l0,13.8C0,85.4,3.1,88.5,6.9,88.5z"/>
<circle class="st2" cx="41.6" cy="89.9" r="20.7"/>
<path class="st3" d="M28.7,89.9c0,1.5,0.2,2.9,0.7,4.3c0.2,0.4,0.3,0.9,0.6,1.3c1.3,2.6,3.4,4.8,6,6c0.4,0.2,0.9,0.4,1.4,0.6
	c1.3,0.5,2.8,0.7,4.3,0.7c1.5,0,2.9-0.2,4.3-0.7c0.4-0.2,0.9-0.3,1.3-0.6c2.6-1.3,4.8-3.4,6-6c0.2-0.4,0.4-0.9,0.6-1.3
	c0.5-1.3,0.7-2.8,0.7-4.3c0-1.5-0.2-2.9-0.7-4.3c-0.1-0.4-0.3-0.9-0.6-1.3c-1.2-2.6-3.4-4.8-6-6.1c-0.4-0.2-0.9-0.4-1.4-0.6
	c-1.3-0.5-2.8-0.7-4.3-0.7c-1.5,0-2.9,0.2-4.3,0.7c-0.5,0.1-0.9,0.3-1.4,0.6c-2.6,1.3-4.8,3.4-6,6c-0.2,0.4-0.4,0.9-0.6,1.4
	C28.9,86.9,28.7,88.4,28.7,89.9z"/>
<circle class="st2" cx="203.5" cy="89.9" r="20.7"/>
<path class="st3" d="M190.6,89.9c0,1.5,0.2,2.9,0.7,4.3c0.2,0.4,0.3,0.9,0.6,1.3c1.3,2.6,3.4,4.8,6,6c0.4,0.2,0.9,0.4,1.4,0.6
	c1.3,0.5,2.8,0.7,4.3,0.7c1.5,0,2.9-0.2,4.3-0.7c0.4-0.2,0.9-0.3,1.3-0.6c2.6-1.3,4.8-3.4,6-6c0.2-0.4,0.4-0.9,0.6-1.3
	c0.5-1.3,0.7-2.8,0.7-4.3c0-1.5-0.2-2.9-0.7-4.3c-0.1-0.4-0.3-0.9-0.6-1.3c-1.2-2.6-3.4-4.8-6-6.1c-0.4-0.2-0.9-0.4-1.4-0.6
	c-1.3-0.5-2.8-0.7-4.3-0.7c-1.5,0-2.9,0.2-4.3,0.7c-0.5,0.1-0.9,0.3-1.4,0.6c-2.6,1.3-4.8,3.4-6,6c-0.2,0.4-0.4,0.9-0.6,1.4
	C190.8,86.9,190.6,88.4,190.6,89.9z"/>
<path class="st4" d="M172.1,16v22.9c0,3.8,3.1,6.9,6.9,6.9h25.7c1.9,0,3.6-0.7,4.8-2c1.3-1.2,2.1-3,2.1-4.9V16
	c0-3.8-3.1-6.9-6.9-6.9h-25.7c-1.9,0-3.6,0.7-4.8,2C172.9,12.3,172.1,14.1,172.1,16z"/>
<path class="st4" d="M228.7,22.9v26.8c0,3.4,2.7,6.1,6.1,6.1h24.4V43.6c0-2-0.4-4.1-1.2-5.9L245.8,9.1h-3.3
	C234.9,9.1,228.7,15.3,228.7,22.9z"/>
<g>
	<path class="st4" d="M120.1,16v22.9c0,3.8,3.1,6.9,6.9,6.9h25.7c1.9,0,3.6-0.7,4.8-1.9c1.3-1.2,2.1-3,2.1-5V16
		c0-3.8-3.1-6.9-6.9-6.9H127c-1.9,0-3.6,0.7-4.8,2C120.9,12.3,120.1,14.1,120.1,16z"/>
	<path class="st4" d="M68.1,16v22.9c0,3.8,3.1,6.9,6.9,6.9h25.7c1.9,0,3.6-0.7,4.8-2c1.3-1.2,2.1-3,2.1-4.9V16
		c0-3.8-3.1-6.9-6.9-6.9H75c-1.9,0-3.5,0.7-4.8,1.9C68.9,12.3,68.1,14.1,68.1,16z"/>
	<path class="st4" d="M16.1,16v22.9c0,3.8,3.1,6.9,6.9,6.9h25.7c1.9,0,3.5-0.7,4.8-1.9c1.3-1.2,2.1-3,2.1-5V16
		c0-3.8-3.1-6.9-6.9-6.9H23c-1.9,0-3.6,0.7-4.8,2C16.9,12.3,16.1,14.1,16.1,16z"/>
</g>
<circle class="st5" cx="203.5" cy="89.9" r="5.3"/>
<circle class="st5" cx="41.6" cy="89.9" r="5.3"/>
</svg>
