<?xml version="1.0" encoding="utf-8"?>
<!-- Generator: Adobe Illustrator 17.1.0, SVG Export Plug-In . SVG Version: 6.00 Build 0)  -->
<!DOCTYPE svg PUBLIC "-//W3C//DTD SVG 1.1//EN" "http://www.w3.org/Graphics/SVG/1.1/DTD/svg11.dtd">
<svg version="1.1" id="Calque_1" xmlns="http://www.w3.org/2000/svg" xmlns:xlink="http://www.w3.org/1999/xlink" x="0px" y="0px"
	 viewBox="32.2 103.3 259.2 117.9" enable-background="new 32.2 103.3 259.2 117.9" xml:space="preserve">
<linearGradient id="SVGID_1_" gradientUnits="userSpaceOnUse" x1="264.3963" y1="189.75" x2="279.9308" y2="189.75" gradientTransform="matrix(1 0 0 -1 0 350)">
	<stop  offset="0" style="stop-color:#6A8991"/>
	<stop  offset="0.53" style="stop-color:#335C64"/>
	<stop  offset="1" style="stop-color:#02383C"/>
</linearGradient>
<path fill="url(#SVGID_1_)" d="M265.1,151.8c0,0,6.9,7.7,8.5,16.9C273.5,168.7,258.9,162.5,265.1,151.8z"/>
<polygon fill="#CCCCCC" points="264.8,153 270.1,160.3 268,158.6 268.8,160.7 269.9,161.4 270.6,162.6 270.6,164 270.1,164 
	271.3,164.7 271.3,165.4 271.1,165.8 269.5,165.8 268.4,164.6 266.5,163.2 264.7,161.3 264.7,159.3 264.1,157.1 "/>
<path fill="#404041" d="M277.3,202.3c2.1-0.1,4.2-0.2,6.3-0.4l-8.9-28.9l-32.3-13.5l-29.8,1.1l-130,0.6L45.9,167l-6.2,35.3H277.3z"
	/>
<path fill="#19212E" d="M184.4,109.2l-6.3,1.5l-3,1.9c0,0,17.5,3.5,35.4,29.2l25.4-3C235.8,138.8,220,120.5,184.4,109.2z"/>
<path fill="#FFDEC4" d="M46.9,130.2l-1.5-0.8c-2.7-0.1-12.2,21.8-8.2,25.1C37.2,154.5,50.2,141.6,46.9,130.2z"/>
<path fill="#FF8D35" d="M54.2,115.1c1.6-3.1-7.3-3.6-5.6-5.8c0,0,84.2-13.5,135.8,0l-6.3,1.5c0,0,22.4,8.5,33.2,29.5l24.8-2.8
	c21.7,4.9,45.3,8.7,52.5,32.7l-0.3,20.4l2.2,2.2l-0.6,7.7l-2.8,0.8c0,0-5.9,1.8-9,1.8c0,0,1.6-30.9-26.9-30.5
	c-27.1-0.8-26.8,27.9-26.8,27.9h-132c0,0,2.6-29.1-28.6-27.9c-26.1,1-22.5,31.2-22.5,31.2l-3.9-1.1c0,0-3.9-24-4.7-31.5
	c0,0,2.8-5,2.8-9.7C35.7,161.4,42,127.8,54.2,115.1z"/>
<path fill="#AD6024" d="M291.4,184.5l-1.4,15.9l-2.8,0.8c0,0-5.9,1.8-9,1.8c0,0,1.6-30.9-26.9-30.5c-27.1-0.8-26.8,27.9-26.8,27.9
	h-132c0,0,2.6-29.1-28.6-27.9c-26.1,1-22.5,31.2-22.5,31.2l-6.5-1.6c0,0-1.4-8.9-2.7-17.5c1.6-0.5,5.7-0.8,6-0.9
	c4.4-14,16.1-21.3,28.2-22c21.8-1.3,31.3,21,33.6,33.3c38.6-0.2,77.3-0.4,115.9-0.6c7.6-43.2,50.9-40.4,67.2-10.7
	C283.4,183.8,289,184.2,291.4,184.5z"/>
<path fill="#19212E" d="M73.9,114.5c-8.2,0.7-10.5,19-11.7,27H129l3.4-31.6C121.5,110,83.7,110.8,73.9,114.5L73.9,114.5z
	 M203.8,141.5c-3.9-7-19.1-30.2-51.8-31.3c-5.7-0.2-11.4-0.3-17-0.2l-2.2,31.6h71V141.5z"/>
<path fill="#FFAD6E" d="M196.2,132.3c0,0-4.3,8,1.5,14.5C197.7,146.8,217.9,138.8,196.2,132.3z"/>
<path fill="#FFDEC4" d="M284.9,166.5c-3.6-9.5-9.3-13.3-17.3-17.3c-7.7-0.8-7.9,4.9-4.8,10.1C265.9,164.6,279.7,175.1,284.9,166.5z"
	/>
<path fill="#594A42" d="M133.7,150.1v-1c0-0.9,0.5-1.6,1.2-1.6l14.7-0.1c0.7,0,1.2,0.7,1.2,1.6v1L133.7,150.1z"/>
<path fill="#594A42" d="M103.5,150.5v-1c0-0.9,0.5-1.6,1.2-1.6l14.7-0.1c0.7,0,1.2,0.7,1.2,1.6v1L103.5,150.5z"/>
<g>
	<circle fill="#07070A" stroke="#000000" stroke-miterlimit="10" cx="67.1" cy="199.3" r="21.9"/>
	<circle fill="#FFF5E8" cx="67.1" cy="199.3" r="15.5"/>
	<circle fill="#929697" cx="67.1" cy="199.3" r="7.5"/>
</g>
<g>
	<circle fill="#07070A" stroke="#000000" stroke-miterlimit="10" cx="251.9" cy="199.3" r="21.9"/>
	<circle fill="#FFF5E8" cx="251.9" cy="199.3" r="15.5"/>
	<circle fill="#929697" cx="251.9" cy="199.3" r="7.5"/>
</g>
</svg>
