<?xml version="1.0" encoding="utf-8"?>
<!-- Generator: Adobe Illustrator 21.1.0, SVG Export Plug-In . SVG Version: 6.00 Build 0)  -->
<svg version="1.1" id="Calque_1" xmlns="http://www.w3.org/2000/svg" xmlns:xlink="http://www.w3.org/1999/xlink" x="0px" y="0px"
	 viewBox="0 0 342.5 200" style="enable-background:new 0 0 342.5 200;" xml:space="preserve">
<style type="text/css">
	.st0{fill:#F7BE56;}
	.st1{fill:#B6B6B7;}
	.st2{fill:#E56353;}
	.st3{fill:#3F4854;}
	.st4{fill:#FFFFFF;}
	.st5{fill:#07070A;}
	.st6{fill:#FFF5E8;}
	.st7{fill:#19212E;}
	.st8{fill:#888E91;}
	.st9{fill:#929697;}
	.st10{enable-background:new    ;}
	.st11{fill:#FF8D35;}
</style>
<g>
	<path class="st0" d="M332.7,141.8v6.6c0,1.4-1.1,2.5-2.5,2.5h-3.7v-11.6h3.7C331.5,139.2,332.7,140.4,332.7,141.8z"/>
</g>
<g>
	<polygon class="st1" points="251.1,124.5 251.1,148.4 30.8,148.4 30.8,146.4 26.7,146.4 26.7,134.7 30.8,134.7 30.8,124.5 	"/>
</g>
<g>
	<path class="st1" d="M328.9,134.7V151c0,1.9-1.6,3.5-3.5,3.5h-80.2v-19.7L328.9,134.7L328.9,134.7z"/>
</g>
<g>
	<path class="st2" d="M31.6,135.7v11.9h-3c-0.9,0-1.7-0.7-1.7-1.7v-8.6c0-0.9,0.7-1.7,1.7-1.7L31.6,135.7L31.6,135.7z"/>
</g>
<g>
	<path class="st3" d="M39.2,34.5H214c16.3,0,29.4,13.2,29.4,29.4v67.8H9.8V63.9C9.8,47.7,23,34.5,39.2,34.5z"/>
</g>
<g>
	<path class="st3" d="M328.9,117.7v17.7h-83.7v-76h37.6c2.7,0,5.3,1.1,7.1,3.1C295.7,69,300.8,80.1,305,96l19.8,13.9
		C327.4,111.7,328.9,114.6,328.9,117.7z"/>
</g>
<g>
	<path class="st4" d="M297.6,99.7h-35.1V68.4h3.7C283.6,68.4,297.6,82.4,297.6,99.7z"/>
</g>
<g>
	<path class="st3" d="M272.2,108.4c-1.3,0.8-2.7,1.1-4.2,1.1c-1.4,0-2.9-0.4-4.3-1.1l0.7-2.7c2.2,1.2,4.5,1.1,6.8,0L272.2,108.4z"/>
</g>
<g>
	<path class="st5" d="M278.3,144.7c0,11.2,9.1,20.3,20.3,20.3c11.2,0,20.2-9.1,20.2-20.3s-9.1-20.3-20.2-20.3
		C287.4,124.5,278.3,133.5,278.3,144.7z"/>
	<path d="M298.6,165.5c-11.5,0-20.8-9.3-20.8-20.8c0-11.4,9.3-20.7,20.8-20.8c11.4,0,20.7,9.3,20.7,20.8S310,165.5,298.6,165.5z
		 M298.6,124.9c-10.9,0.1-19.8,9-19.8,19.8c0,10.9,8.9,19.8,19.8,19.8s19.7-8.9,19.7-19.8S309.5,124.9,298.6,124.9z"/>
</g>
<g>
	<path class="st5" d="M39.9,144.7c0,11.2,9.1,20.3,20.3,20.3s20.2-9.1,20.2-20.3s-9.1-20.3-20.2-20.3
		C49,124.5,39.9,133.5,39.9,144.7z"/>
	<path d="M60.2,165.5c-11.5,0-20.8-9.3-20.8-20.8c0-11.4,9.3-20.7,20.8-20.8c11.4,0,20.7,9.3,20.7,20.8S71.6,165.5,60.2,165.5z
		 M60.2,124.9c-10.9,0.1-19.8,9-19.8,19.8c0,10.9,8.9,19.8,19.8,19.8s19.7-8.9,19.7-19.8S71.1,124.9,60.2,124.9z"/>
</g>
<g>
	<path class="st6" d="M47.5,144.7c0,7,5.7,12.8,12.8,12.8c6.9,0,12.6-5.7,12.6-12.8s-5.7-12.6-12.6-12.6
		C53.2,132.1,47.5,137.6,47.5,144.7z"/>
</g>
<g>
	<path class="st6" d="M286,144.7c0,7,5.7,12.8,12.8,12.8c6.9,0,12.6-5.7,12.6-12.8s-5.7-12.6-12.6-12.6
		C291.7,132.1,286,137.6,286,144.7z"/>
</g>
<g>
	<path class="st7" d="M225.1,143.2v6.1c0,4.1-3.3,7.4-7.4,7.4h-40.9c-4.1,0-7.4-3.3-7.4-7.4v-6.1c0-4.1,3.3-7.4,7.4-7.4h40.9
		C221.8,135.9,225.1,139.2,225.1,143.2z"/>
</g>
<g>
	<rect x="183.1" y="135.9" class="st8" width="28.4" height="20.9"/>
</g>
<g>
	<g>
		<rect x="248.7" y="137.1" class="st3" width="21.7" height="3.3"/>
	</g>
	<g>
		<rect x="248.7" y="141" class="st3" width="21.7" height="3.3"/>
	</g>
	<g>
		<rect x="248.7" y="144.7" class="st3" width="21.7" height="3.3"/>
	</g>
	<g>
		<rect x="248.7" y="148.6" class="st3" width="21.7" height="3.3"/>
	</g>
</g>
<g>
	<circle class="st9" cx="60.2" cy="145.1" r="5.3"/>
</g>
<g>
	<circle class="st9" cx="298.7" cy="145.1" r="5.3"/>
</g>
<g>
	<g>
		<path class="st7" d="M54.3,66.7v31.6c0,5.2,4.3,9.5,9.5,9.5h123.7c2.6,0,4.8-1,6.6-2.6c1.8-1.7,2.9-4.1,2.9-6.9V66.7
			c0-5.2-4.3-9.5-9.5-9.5H63.8c-2.6,0-5,1-6.6,2.8C55.4,61.6,54.3,64.1,54.3,66.7z"/>
	</g>
</g>
<g class="st10">
	<path class="st11" d="M97.5,100.2c-1.1,0-2.2-0.6-2.6-2l-1.8-5.9h-9.7l-1.8,5.9c-0.4,1.4-1.6,2-2.6,2c-1.5,0-2.9-1.1-2.9-2.7
		c0-0.3,0-0.6,0.1-0.9l9-28.4c0.7-2.2,1.9-2.4,3.1-2.4s2.4,0.2,3.1,2.4l8.9,28.4c0.1,0.3,0.1,0.6,0.1,0.9
		C100.4,99.1,98.9,100.2,97.5,100.2z M88.2,76.3l-3.1,10.3h6.2L88.2,76.3z"/>
	<path class="st11" d="M106.1,100.2c-1.4,0-2.8-0.9-2.8-2.6v-1.2c0-1.7,1.4-2.6,2.8-2.6s2.8,0.9,2.8,2.6v1.2
		C108.9,99.3,107.5,100.2,106.1,100.2z"/>
	<path class="st11" d="M124.1,99.9h-7.4c-1.5,0-2.8-1.3-2.8-2.8V68.9c0-1.5,1.3-2.8,2.8-2.8h7.4c5.4,0,9.8,4.2,9.8,9.6v14.6
		C133.9,95.7,129.5,99.9,124.1,99.9z M128.2,75.7c0-2.3-1.8-4-4.1-4h-4.6v22.6h4.6c2.3,0,4.1-1.7,4.1-4V75.7z"/>
	<path class="st11" d="M141.1,100.2c-1.4,0-2.8-0.9-2.8-2.6v-1.2c0-1.7,1.4-2.6,2.8-2.6s2.8,0.9,2.8,2.6v1.2
		C144,99.3,142.6,100.2,141.1,100.2z"/>
	<path class="st11" d="M163.4,85.3l5.1,10.8c0.2,0.4,0.3,0.9,0.3,1.3c0,1.6-1.5,2.8-3,2.8c-1,0-1.9-0.5-2.4-1.7l-5.9-12.4h-2.9v11.3
		c0,1.9-1.4,2.8-2.8,2.8c-1.4,0-2.8-0.9-2.8-2.8V68.9c0-1.5,1.3-2.8,2.8-2.8h7.7c5.4,0,9.8,4.4,9.8,9.8v0.4
		C169.2,80.4,166.9,83.9,163.4,85.3z M163.6,75.9c0-2.3-1.7-4.2-4-4.2h-5v8.8h5.1c2.2,0,3.8-1.9,3.8-4.2L163.6,75.9L163.6,75.9z"/>
	<path class="st11" d="M175.6,100.2c-1.4,0-2.8-0.9-2.8-2.6v-1.2c0-1.7,1.4-2.6,2.8-2.6c1.4,0,2.8,0.9,2.8,2.6v1.2
		C178.5,99.3,177,100.2,175.6,100.2z"/>
</g>
</svg>
