<?xml version="1.0" encoding="utf-8"?>
<!-- Generator: Adobe Illustrator 25.3.1, SVG Export Plug-In . SVG Version: 6.00 Build 0)  -->
<svg version="1.1" id="Calque_1" xmlns="http://www.w3.org/2000/svg" xmlns:xlink="http://www.w3.org/1999/xlink" x="0px" y="0px"
	 viewBox="0 0 330.6 200" style="enable-background:new 0 0 330.6 200;" xml:space="preserve">
<style type="text/css">
	.st0{fill:url(#SVGID_1_);}
	.st1{fill:#CCCCCC;}
	.st2{fill:#404041;}
	.st3{fill:#19212E;}
	.st4{fill:#FFDEC4;}
	.st5{fill:#FF8D35;}
	.st6{fill:#AD6024;}
	.st7{fill:#FFAD6E;}
	.st8{fill:#594A42;}
	.st9{fill:#07070A;stroke:#000000;stroke-miterlimit:10;}
	.st10{fill:#FFF5E8;}
	.st11{fill:#929697;}
	.st12{fill:#999999;}
</style>
<g>
	
		<linearGradient id="SVGID_1_" gradientUnits="userSpaceOnUse" x1="279.4544" y1="737.6898" x2="296.7372" y2="737.6898" gradientTransform="matrix(0.9903 -0.1388 0.1388 0.9903 -111.3881 -628.4791)">
		<stop  offset="0" style="stop-color:#6A8991"/>
		<stop  offset="0.53" style="stop-color:#335C64"/>
		<stop  offset="1" style="stop-color:#02383C"/>
	</linearGradient>
	<path class="st0" d="M267.2,53.9c0,0,8.8,7.4,12,17.3C279.1,71.2,262,66.6,267.2,53.9z"/>
	<polygon class="st1" points="267.1,55.2 274,62.4 271.5,60.8 272.7,63.1 274,63.7 275,64.9 275.2,66.4 274.6,66.5 276,67.1 
		276.1,67.9 276,68.3 274.2,68.5 272.8,67.4 270.5,66.2 268.2,64.3 267.9,62.1 266.9,59.9 	"/>
	<path class="st2" d="M288.4,107.6c2.3-0.4,4.6-0.9,6.9-1.4L281,75.8l-37.6-9.9l-32.7,5.8L67.6,92.3l-39.5,12.1l-1.4,39.9
		L288.4,107.6z"/>
	<path class="st3" d="M171.8,19.4l-6.7,2.7l-3,2.5c0,0,19.9,1.2,43.5,26.7l27.6-7.2C232.9,44,212.7,26.4,171.8,19.4z"/>
	<path class="st4" d="M23.5,63.7L21.7,63c-3,0.3-10.1,26-5.1,28.9C16.5,92,28.9,75.8,23.5,63.7z"/>
	<path class="st5" d="M29.2,45.9c1.3-3.6-8.6-2.8-7-5.6c0,0,90.7-27.9,149.6-21l-6.7,2.7c0,0,26,6,41.1,27.4l26.9-6.9
		c24.6,2.1,51.3,2.6,62.9,27.9l2.9,22.5l2.7,2l0.5,8.6l-2.9,1.3c0,0-6.3,2.9-9.6,3.4c0,0-3-34.3-34.3-29.4
		c-29.9,3.3-25.2,34.8-25.2,34.8L84.4,134.1c0,0-1.6-32.5-35.8-26.3c-28.6,5.1-19.9,37.8-19.9,37.8l-4.4-0.6c0,0-8-25.8-10-33.9
		c0,0,2.3-6,1.6-11.1C15.9,99.9,17.7,61.9,29.2,45.9z"/>
	<path class="st6" d="M301.2,85.9l0.9,17.8l-2.9,1.3c0,0-6.3,2.9-9.6,3.4c0,0-3-34.3-34.3-29.4c-29.9,3.3-25.2,34.8-25.2,34.8
		L84.5,134.1c0,0-1.6-32.5-35.8-26.3c-28.6,5.1-19.9,37.8-19.9,37.8l-7.4-0.8c0,0-3-9.6-5.7-18.9c1.7-0.8,6.1-1.8,6.5-1.9
		c2.7-16.1,14.4-26,27.7-28.6c23.9-4.8,37.7,18.3,42.2,31.5c42.5-6.2,85.1-12.3,127.6-18.6c1.7-48.8,49.8-52.3,72.4-22.2
		C292.3,86.3,298.5,85.8,301.2,85.9z"/>
	<path class="st3" d="M50.8,42.3c-8.9,2.1-8.7,22.5-8.7,31.5l73.6-10.3l-1.1-35.4C102.6,30,61,36.7,50.8,42.3L50.8,42.3z M198,52
		c-5.3-7.1-25.7-30.3-61.9-26.5c-6.3,0.7-12.6,1.5-18.7,2.4l2.4,35.1L198,52L198,52z"/>
	<path class="st7" d="M188.3,43c0,0-3.5,9.5,3.9,15.7C192.2,58.7,213.2,46.8,188.3,43z"/>
	<path class="st4" d="M291.3,66.9c-5.4-9.9-12.3-13.2-21.7-16.3c-8.6,0.3-8,6.7-3.7,11.8C270,67.8,286.9,77.3,291.3,66.9z"/>
	<path class="st8" d="M122.1,72.3l-0.2-1.1c-0.1-1,0.3-1.9,1-2l16.2-2.4c0.8-0.1,1.4,0.6,1.5,1.6l0.2,1.1L122.1,72.3z"/>
	<path class="st8" d="M89,77.3l-0.2-1.1c-0.1-1,0.3-1.9,1-2l16.2-2.4c0.8-0.1,1.4,0.6,1.5,1.6l0.2,1.1L89,77.3z"/>
	<g>
		<circle class="st9" cx="56.4" cy="136.7" r="24.4"/>
		<circle class="st10" cx="56.4" cy="136.7" r="17.2"/>
		<circle class="st11" cx="56.4" cy="136.7" r="8.3"/>
	</g>
	<g>
		<circle class="st9" cx="260" cy="108.2" r="24.4"/>
		
			<ellipse transform="matrix(2.163785e-02 -0.9998 0.9998 2.163785e-02 146.2546 365.8342)" class="st10" cx="260" cy="108.2" rx="17.2" ry="17.2"/>
		
			<ellipse transform="matrix(0.9903 -0.1388 0.1388 0.9903 -12.4987 37.1379)" class="st11" cx="260" cy="108.2" rx="8.3" ry="8.3"/>
	</g>
</g>
<ellipse class="st12" cx="261" cy="158.5" rx="25.4" ry="2.6"/>
</svg>
