<?xml version="1.0" encoding="utf-8"?>
<!-- Generator: Adobe Illustrator 21.1.0, SVG Export Plug-In . SVG Version: 6.00 Build 0)  -->
<svg version="1.1" id="Calque_1" xmlns="http://www.w3.org/2000/svg" xmlns:xlink="http://www.w3.org/1999/xlink" x="0px" y="0px"
	 viewBox="0 0 330.6 200" style="enable-background:new 0 0 330.6 200;" xml:space="preserve">
<style type="text/css">
	.st0{fill:#F7BE56;}
	.st1{fill:#19212E;}
	.st2{fill:#E56353;}
	.st3{fill:#AD6024;}
	.st4{fill:#FF8D35;}
	.st5{fill:#07070A;stroke:#000000;stroke-miterlimit:10;}
	.st6{fill:#FFF5E8;}
	.st7{fill:#64798A;}
	.st8{fill:#D5D6DB;}
	.st9{fill:#929697;}
</style>
<g>
	<path class="st0" d="M314.4,150.9v8c0,1.7-1.3,3-3,3h-4.5v-14h4.5C312.9,147.7,314.4,149.2,314.4,150.9z"/>
	<polygon class="st1" points="215.6,129.9 215.6,158.9 41.7,158.9 41.7,156.6 36.7,156.6 36.7,142.3 41.7,142.3 41.7,129.9 	"/>
	<path class="st1" d="M309.8,142.3V162c0,2.3-1.9,4.2-4.2,4.2h-97v-23.8h101.3V142.3z"/>
	<path class="st2" d="M37.8,142.3v14.4h-3.6c-1.1,0-2.1-0.8-2.1-2.1v-10.4c0-1.1,0.8-2.1,2.1-2.1h3.6V142.3z"/>
	<rect x="16.2" y="21.1" class="st3" width="190.1" height="117.6"/>
	<path class="st4" d="M309.8,121.7v21.4H208.5V51.2H254c3.3,0,6.4,1.3,8.6,3.8c7,7.9,13.2,21.3,18.3,40.5l24,16.8
		C307.9,114.5,309.8,118,309.8,121.7z"/>
	<path class="st1" d="M271.9,99.9h-42.5V62.1h4.5C254.9,62.1,271.9,79,271.9,99.9z"/>
	<path class="st1" d="M241.2,110.5c-1.6,1-3.3,1.3-5.1,1.3c-1.7,0-3.5-0.5-5.2-1.3l0.8-3.3c2.7,1.5,5.4,1.3,8.2,0L241.2,110.5z"/>
	<path class="st5" d="M248.5,154.4c0,13.6,11,24.6,24.6,24.6s24.4-11,24.4-24.6c0-13.6-11-24.6-24.4-24.6
		C259.5,129.9,248.5,140.8,248.5,154.4z"/>
	<path class="st5" d="M47.8,154.4c0,13.6,11,24.6,24.6,24.6s24.4-11,24.4-24.6c0-13.6-11-24.6-24.4-24.6
		C58.8,129.9,47.8,140.8,47.8,154.4z"/>
	<path class="st6" d="M57,154.4c0,8.5,6.9,15.5,15.5,15.5c8.3,0,15.2-6.9,15.2-15.5c0-8.6-6.9-15.2-15.2-15.2
		C63.9,139.1,57,145.8,57,154.4z"/>
	<path class="st6" d="M257.9,154.4c0,8.5,6.9,15.5,15.5,15.5c8.3,0,15.2-6.9,15.2-15.5c0-8.6-6.9-15.2-15.2-15.2
		C264.7,139.1,257.9,145.8,257.9,154.4z"/>
	<path class="st7" d="M184.2,152.7v7.4c0,5-4,9-9,9h-49.5c-5,0-9-4-9-9v-7.4c0-5,4-9,9-9h49.5C180.2,143.7,184.2,147.7,184.2,152.7z
		"/>
	<rect x="133.4" y="143.7" class="st8" width="34.4" height="25.3"/>
	<g>
		<rect x="212.7" y="145.2" class="st4" width="26.3" height="4"/>
		<rect x="212.7" y="149.9" class="st4" width="26.3" height="4"/>
		<rect x="212.7" y="154.5" class="st4" width="26.3" height="4"/>
		<rect x="212.7" y="159.1" class="st4" width="26.3" height="4"/>
	</g>
	<circle class="st9" cx="72.4" cy="154.9" r="6.4"/>
	<circle class="st9" cx="273.2" cy="154.9" r="6.4"/>
</g>
</svg>
