<?xml version="1.0" encoding="utf-8"?>
<!-- Generator: Adobe Illustrator 21.1.0, SVG Export Plug-In . SVG Version: 6.00 Build 0)  -->
<svg version="1.1" id="Calque_1" xmlns="http://www.w3.org/2000/svg" xmlns:xlink="http://www.w3.org/1999/xlink" x="0px" y="0px"
	 viewBox="0 0 342.5 200" style="enable-background:new 0 0 342.5 200;" xml:space="preserve">
<style type="text/css">
	.st0{fill:#F7BE56;}
	.st1{fill:#19212E;}
	.st2{fill:#E56353;}
	.st3{fill:#AD6024;}
	.st4{fill:#FF8D35;}
	.st5{fill:#07070A;}
	.st6{fill:#FFF5E8;}
	.st7{fill:#64798A;}
	.st8{fill:#D5D6DB;}
	.st9{fill:#929697;}
	.st10{enable-background:new    ;}
</style>
<g>
	<g>
		<path class="st0" d="M332.7,141.8v6.6c0,1.4-1.1,2.5-2.5,2.5h-3.7v-11.6h3.7C331.5,139.2,332.7,140.4,332.7,141.8z"/>
	</g>
	<g>
		<polygon class="st1" points="251.1,124.5 251.1,148.4 30.8,148.4 30.8,146.4 26.7,146.4 26.7,134.7 30.8,134.7 30.8,124.5 		"/>
	</g>
	<g>
		<path class="st1" d="M328.9,134.7V151c0,1.9-1.6,3.5-3.5,3.5h-80.2v-19.7L328.9,134.7L328.9,134.7z"/>
	</g>
	<g>
		<path class="st2" d="M31.6,135.7v11.9h-3c-0.9,0-1.7-0.7-1.7-1.7v-8.6c0-0.9,0.7-1.7,1.7-1.7L31.6,135.7L31.6,135.7z"/>
	</g>
	<g>
		<rect x="9.8" y="34.5" class="st3" width="233.6" height="97.2"/>
	</g>
	<g>
		<path class="st4" d="M328.9,117.7v17.7h-83.7v-76h37.6c2.7,0,5.3,1.1,7.1,3.1C295.7,69,300.8,80.1,305,96l19.8,13.9
			C327.4,111.7,328.9,114.6,328.9,117.7z"/>
	</g>
	<g>
		<path class="st1" d="M297.6,99.7h-35.1V68.4h3.7C283.6,68.4,297.6,82.4,297.6,99.7z"/>
	</g>
	<g>
		<path class="st1" d="M272.2,108.4c-1.3,0.8-2.7,1.1-4.2,1.1c-1.4,0-2.9-0.4-4.3-1.1l0.7-2.7c2.2,1.2,4.5,1.1,6.8,0L272.2,108.4z"
			/>
	</g>
	<g>
		<path class="st5" d="M278.3,144.7c0,11.2,9.1,20.3,20.3,20.3c11.2,0,20.2-9.1,20.2-20.3s-9.1-20.3-20.2-20.3
			C287.4,124.5,278.3,133.5,278.3,144.7z"/>
		<path d="M298.6,165.5c-11.5,0-20.8-9.3-20.8-20.8c0-11.4,9.3-20.7,20.8-20.8c11.4,0,20.7,9.3,20.7,20.8S310,165.5,298.6,165.5z
			 M298.6,124.9c-10.9,0.1-19.8,9-19.8,19.8c0,10.9,8.9,19.8,19.8,19.8s19.7-8.9,19.7-19.8S309.5,124.9,298.6,124.9z"/>
	</g>
	<g>
		<path class="st5" d="M39.9,144.7c0,11.2,9.1,20.3,20.3,20.3s20.2-9.1,20.2-20.3s-9.1-20.3-20.2-20.3
			C49,124.5,39.9,133.5,39.9,144.7z"/>
		<path d="M60.2,165.5c-11.5,0-20.8-9.3-20.8-20.8c0-11.4,9.3-20.7,20.8-20.8c11.4,0,20.7,9.3,20.7,20.8S71.6,165.5,60.2,165.5z
			 M60.2,124.9c-10.9,0.1-19.8,9-19.8,19.8c0,10.9,8.9,19.8,19.8,19.8s19.7-8.9,19.7-19.8S71.1,124.9,60.2,124.9z"/>
	</g>
	<g>
		<path class="st6" d="M47.5,144.7c0,7,5.7,12.8,12.8,12.8c6.9,0,12.6-5.7,12.6-12.8s-5.7-12.6-12.6-12.6
			C53.2,132.1,47.5,137.6,47.5,144.7z"/>
	</g>
	<g>
		<path class="st6" d="M286,144.7c0,7,5.7,12.8,12.8,12.8c6.9,0,12.6-5.7,12.6-12.8s-5.7-12.6-12.6-12.6
			C291.7,132.1,286,137.6,286,144.7z"/>
	</g>
	<g>
		<path class="st7" d="M225.1,143.2v6.1c0,4.1-3.3,7.4-7.4,7.4h-40.9c-4.1,0-7.4-3.3-7.4-7.4v-6.1c0-4.1,3.3-7.4,7.4-7.4h40.9
			C221.8,135.9,225.1,139.2,225.1,143.2z"/>
	</g>
	<g>
		<rect x="183.1" y="135.9" class="st8" width="28.4" height="20.9"/>
	</g>
	<g>
		<g>
			<rect x="248.7" y="137.1" class="st4" width="21.7" height="3.3"/>
		</g>
		<g>
			<rect x="248.7" y="141" class="st4" width="21.7" height="3.3"/>
		</g>
		<g>
			<rect x="248.7" y="144.7" class="st4" width="21.7" height="3.3"/>
		</g>
		<g>
			<rect x="248.7" y="148.6" class="st4" width="21.7" height="3.3"/>
		</g>
	</g>
	<g>
		<circle class="st9" cx="60.2" cy="145.1" r="5.3"/>
	</g>
	<g>
		<circle class="st9" cx="298.7" cy="145.1" r="5.3"/>
	</g>
	<g>
		<g>
			<path class="st1" d="M54.3,66.7v31.6c0,5.2,4.3,9.5,9.5,9.5h123.7c2.6,0,4.8-1,6.6-2.6c1.8-1.7,2.9-4.1,2.9-6.9V66.7
				c0-5.2-4.3-9.5-9.5-9.5H63.8c-2.6,0-5,1-6.6,2.8C55.4,61.6,54.3,64.1,54.3,66.7z"/>
		</g>
		<g class="st10">
			<path class="st6" d="M82.6,72.2c-2.9,0-4.5,1.6-4.5,5v12c0,3.4,1.6,5,4.6,5c3.9,0,4.3-2.8,4.4-4.6c0.1-1.3,1.3-1.8,2.8-1.8
				c1.9,0,2.8,0.6,2.8,2.8c0,5.2-4.3,8.5-10.3,8.5c-5.4,0-9.9-2.7-9.9-9.9v-12c0-7.2,4.5-9.9,10-9.9c6,0,10.3,3.2,10.3,8.2
				c0,2.2-0.9,2.8-2.8,2.8c-1.6,0-2.8-0.5-2.8-1.8C87,75.1,86.7,72.2,82.6,72.2z"/>
			<path class="st6" d="M95.3,96.5c0-0.1,0-0.3,0.1-0.4l8.3-27.1c0.4-1.3,2-1.9,3.6-1.9s3.2,0.6,3.6,1.9l8.3,27.1
				c0,0.2,0.1,0.3,0.1,0.4c0,1.3-2,2.3-3.5,2.3c-0.9,0-1.7-0.3-1.9-1.1l-1.6-5.7h-9.9l-1.6,5.7c-0.2,0.8-0.9,1.1-1.9,1.1
				C97.3,98.8,95.3,97.9,95.3,96.5z M111,87.5l-3.8-13.2l-3.8,13.2H111z"/>
			<path class="st6" d="M123.3,69c0-0.9,0.8-1.7,2.1-1.7h8.7c5.5,0,9.8,2.6,9.8,9.7v0.3c0,7.1-4.4,9.8-10.1,9.8H129v10
				c0,1.2-1.4,1.8-2.8,1.8c-1.4,0-2.8-0.6-2.8-1.8L123.3,69L123.3,69z M128.9,72.2v10.4h4.8c2.8,0,4.5-1.6,4.5-5v-0.5
				c0-3.4-1.7-5-4.5-5L128.9,72.2L128.9,72.2z"/>
			<path class="st6" d="M167.8,72.2c-2.9,0-4.5,1.6-4.5,5v12c0,3.4,1.6,5,4.6,5c3.9,0,4.3-2.8,4.4-4.6c0.1-1.3,1.3-1.8,2.8-1.8
				c1.9,0,2.8,0.6,2.8,2.8c0,5.2-4.3,8.5-10.3,8.5c-5.4,0-9.9-2.7-9.9-9.9v-12c0-7.2,4.5-9.9,10-9.9c6,0,10.3,3.2,10.3,8.2
				c0,2.2-0.9,2.8-2.8,2.8c-1.6,0-2.8-0.5-2.8-1.8C172.2,75.1,171.9,72.2,167.8,72.2z"/>
		</g>
	</g>
</g>
</svg>
