<?xml version="1.0" encoding="utf-8"?>
<!-- Generator: Adobe Illustrator 25.3.1, SVG Export Plug-In . SVG Version: 6.00 Build 0)  -->
<svg version="1.1" id="Calque_1" xmlns="http://www.w3.org/2000/svg" xmlns:xlink="http://www.w3.org/1999/xlink" x="0px" y="0px"
	 viewBox="0 0 259.2 129" style="enable-background:new 0 0 259.2 129;" xml:space="preserve">
<style type="text/css">
	.st0{fill:url(#SVGID_1_);}
	.st1{fill:#CCCCCC;}
	.st2{fill:#404041;}
	.st3{fill:#19212E;}
	.st4{fill:#FFDEC4;}
	.st5{fill:#FF8D35;}
	.st6{fill:#AD6024;}
	.st7{fill:#FFAD6E;}
	.st8{fill:#594A42;}
	.st9{fill:#07070A;stroke:#000000;stroke-miterlimit:10;}
	.st10{fill:#FFF5E8;}
	.st11{fill:#929697;}
	.st12{fill:#999999;}
</style>
<g>
	
		<linearGradient id="SVGID_1_" gradientUnits="userSpaceOnUse" x1="239.0063" y1="714.2313" x2="254.5694" y2="714.2313" gradientTransform="matrix(0.9903 -0.1388 0.1388 0.9903 -107.5724 -633.6263)">
		<stop  offset="0" style="stop-color:#6A8991"/>
		<stop  offset="0.53" style="stop-color:#335C64"/>
		<stop  offset="1" style="stop-color:#02383C"/>
	</linearGradient>
	<path class="st0" d="M227.7,32c0,0,7.9,6.7,10.8,15.6C238.5,47.6,223.1,43.5,227.7,32z"/>
	<polygon class="st1" points="227.6,33.2 233.9,39.7 231.6,38.3 232.7,40.3 233.9,40.9 234.8,42 235,43.3 234.4,43.4 235.7,43.9 
		235.8,44.6 235.6,45 234,45.3 232.8,44.2 230.8,43.2 228.7,41.5 228.4,39.5 227.5,37.4 	"/>
	<path class="st2" d="M246.9,80.5c2-0.4,4.2-0.8,6.2-1.2l-12.9-27.5l-33.9-8.9l-29.5,5.2L48,66.7L12.4,77.6l-1.2,35.9L246.9,80.5z"
		/>
	<path class="st3" d="M141.8,1l-6,2.4l-2.7,2.3c0,0,17.9,1,39.2,24.1l24.8-6.5C196.9,23.2,178.7,7.3,141.8,1z"/>
	<path class="st4" d="M8.3,40.9l-1.6-0.6C4,40.6-2.4,63.7,2,66.3C2,66.4,13.2,51.7,8.3,40.9z"/>
	<path class="st5" d="M13.4,24.9c1.2-3.3-7.7-2.6-6.3-5c0,0,81.7-25.1,134.7-18.9l-6,2.4c0,0,23.4,5.4,37,24.6l24.2-6.2
		c22.2,1.9,46.2,2.4,56.6,25.2l2.6,20.3l2.4,1.8l0.5,7.8l-2.7,1.2c0,0-5.6,2.6-8.7,3c0,0-2.7-30.9-30.9-26.5
		c-27,3-22.7,31.4-22.7,31.4l-131,18.4c0,0-1.5-29.3-32.2-23.7c-25.7,4.6-18,34.1-18,34.1l-4-0.5c0,0-7.2-23.3-9-30.6
		c0,0,2.1-5.4,1.4-10C1.5,73.5,3.1,39.3,13.4,24.9z"/>
	<path class="st6" d="M258.4,60.8l0.8,16l-2.7,1.2c0,0-5.6,2.6-8.7,3c0,0-2.7-30.9-30.9-26.5c-27,3-22.7,31.4-22.7,31.4l-131,18.4
		c0,0-1.5-29.3-32.2-23.7c-25.7,4.6-18,34.1-18,34.1L6.4,114c0,0-2.7-8.6-5.1-17c1.5-0.8,5.5-1.6,5.8-1.7
		c2.4-14.5,13-23.4,24.9-25.8c21.5-4.3,34,16.5,38,28.3c38.2-5.5,76.6-11.1,114.9-16.7c1.6-44,44.9-47.1,65.2-20
		C250.4,61.2,256,60.8,258.4,60.8z"/>
	<path class="st3" d="M32.9,21.6c-8,1.9-7.8,20.3-7.8,28.4l66.3-9.3l-1-31.9C79.5,10.5,42.1,16.6,32.9,21.6L32.9,21.6z M165.5,30.3
		c-4.8-6.4-23.1-27.3-55.7-23.8c-5.6,0.6-11.4,1.3-16.9,2.2L95,40.3L165.5,30.3L165.5,30.3z"/>
	<path class="st7" d="M156.7,22.3c0,0-3.2,8.5,3.5,14.1C160.2,36.4,179.1,25.7,156.7,22.3z"/>
	<path class="st4" d="M249.5,43.8c-4.9-9-11-11.9-19.5-14.7c-7.8,0.3-7.2,6-3.3,10.7C230.3,44.6,245.5,53.1,249.5,43.8z"/>
	<path class="st8" d="M97.1,48.6l-0.1-1c-0.1-0.9,0.3-1.7,0.9-1.8l14.6-2.1c0.7-0.1,1.3,0.6,1.4,1.4l0.1,1L97.1,48.6z"/>
	<path class="st8" d="M67.3,53.2l-0.1-1c-0.1-0.9,0.3-1.7,0.9-1.8l14.6-2.1c0.7-0.1,1.3,0.6,1.4,1.4l0.1,1L67.3,53.2z"/>
	<g>
		<circle class="st9" cx="38" cy="106.7" r="22"/>
		<circle class="st10" cx="38" cy="106.7" r="15.5"/>
		<circle class="st11" cx="38" cy="106.7" r="7.5"/>
	</g>
	<g>
		<circle class="st9" cx="221.3" cy="81" r="22"/>
		
			<ellipse transform="matrix(2.163782e-02 -0.9998 0.9998 2.163782e-02 135.5886 300.4686)" class="st10" cx="221.3" cy="81" rx="15.5" ry="15.5"/>
		<ellipse transform="matrix(0.9903 -0.1388 0.1388 0.9903 -9.0939 31.499)" class="st11" cx="221.3" cy="81" rx="7.5" ry="7.5"/>
	</g>
</g>
<ellipse class="st12" cx="222.1" cy="126.3" rx="22.8" ry="2.4"/>
</svg>
