<?xml version="1.0" encoding="utf-8"?>
<!-- Generator: Adobe Illustrator 21.1.0, SVG Export Plug-In . SVG Version: 6.00 Build 0)  -->
<svg version="1.1" id="Calque_1" xmlns="http://www.w3.org/2000/svg" xmlns:xlink="http://www.w3.org/1999/xlink" x="0px" y="0px"
	 viewBox="0 0 325.5 133.1" style="enable-background:new 0 0 325.5 133.1;" xml:space="preserve">
<style type="text/css">
	.st0{fill:#F7BE56;}
	.st1{fill:#B6B6B7;}
	.st2{fill:#E56353;}
	.st3{fill:#3F4854;}
	.st4{fill:#FFFFFF;}
	.st5{fill:#07070A;}
	.st6{fill:#FFF5E8;}
	.st7{fill:#19212E;}
	.st8{fill:#888E91;}
	.st9{fill:#929697;}
	.st10{enable-background:new    ;}
	.st11{fill:#FF8D35;}
</style>
<g>
	<path class="st0" d="M324.1,108.5v6.6c0,1.4-1.1,2.5-2.5,2.5h-3.7V106h3.7C322.9,105.9,324.1,107.1,324.1,108.5z"/>
</g>
<g>
	<polygon class="st1" points="242.5,91.2 242.5,115.1 22.1,115.1 22.1,113.1 18,113.1 18,101.4 22.1,101.4 22.1,91.2 	"/>
</g>
<g>
	<path class="st1" d="M320.3,101.4v16.3c0,1.9-1.6,3.5-3.5,3.5h-80.2v-19.7L320.3,101.4L320.3,101.4z"/>
</g>
<g>
	<path class="st2" d="M22.9,102.4v11.9h-3c-0.9,0-1.7-0.7-1.7-1.7V104c0-0.9,0.7-1.7,1.7-1.7L22.9,102.4L22.9,102.4z"/>
</g>
<g>
	<path class="st3" d="M30.4,1.2h175c16.2,0,29.3,13.1,29.3,29.3v67.9H1.1V30.5C1.1,14.3,14.2,1.2,30.4,1.2z"/>
</g>
<g>
	<path class="st3" d="M320.3,84.4v17.7h-83.7v-76h37.6c2.7,0,5.3,1.1,7.1,3.1c5.8,6.5,10.9,17.6,15.1,33.5l19.8,13.9
		C318.8,78.4,320.3,81.3,320.3,84.4z"/>
</g>
<g>
	<path class="st4" d="M289,66.4h-35.1V35.1h3.7C275,35.1,289,49.1,289,66.4z"/>
</g>
<g>
	<path class="st3" d="M263.6,75.1c-1.3,0.8-2.7,1.1-4.2,1.1c-1.4,0-2.9-0.4-4.3-1.1l0.7-2.7c2.2,1.2,4.5,1.1,6.8,0L263.6,75.1z"/>
</g>
<g>
	<path class="st5" d="M269.6,111.4c0,11.2,9.1,20.3,20.3,20.3c11.2,0,20.2-9.1,20.2-20.3s-9.1-20.3-20.2-20.3
		C278.8,91.2,269.6,100.2,269.6,111.4z"/>
	<path d="M290,132.2c-11.5,0-20.8-9.3-20.8-20.8c0-11.4,9.3-20.7,20.8-20.8c11.4,0,20.7,9.3,20.7,20.8S301.4,132.2,290,132.2z
		 M290,91.6c-10.9,0.1-19.8,9-19.8,19.8c0,10.9,8.9,19.8,19.8,19.8s19.7-8.9,19.7-19.8S300.9,91.6,290,91.6z"/>
</g>
<g>
	<path class="st5" d="M31.3,111.4c0,11.2,9.1,20.3,20.3,20.3s20.2-9.1,20.2-20.3s-9.1-20.3-20.2-20.3
		C40.3,91.2,31.3,100.2,31.3,111.4z"/>
	<path d="M51.5,132.2c-11.5,0-20.8-9.3-20.8-20.8c0-11.4,9.3-20.7,20.8-20.8c11.4,0,20.7,9.3,20.7,20.8S62.9,132.2,51.5,132.2z
		 M51.5,91.6c-10.9,0.1-19.8,9-19.8,19.8c0,10.9,8.9,19.8,19.8,19.8s19.7-8.9,19.7-19.8S62.4,91.6,51.5,91.6z"/>
</g>
<g>
	<path class="st6" d="M38.8,111.4c0,7,5.7,12.8,12.8,12.8c6.9,0,12.6-5.7,12.6-12.8s-5.7-12.6-12.6-12.6
		C44.5,98.8,38.8,104.3,38.8,111.4z"/>
</g>
<g>
	<path class="st6" d="M277.4,111.4c0,7,5.7,12.8,12.8,12.8c6.9,0,12.6-5.7,12.6-12.8s-5.7-12.6-12.6-12.6
		C283.1,98.8,277.4,104.3,277.4,111.4z"/>
</g>
<g>
	<path class="st7" d="M216.5,109.9v6.1c0,4.1-3.3,7.4-7.4,7.4h-40.9c-4.1,0-7.4-3.3-7.4-7.4v-6.1c0-4.1,3.3-7.4,7.4-7.4h40.9
		C213.1,102.6,216.5,105.9,216.5,109.9z"/>
</g>
<g>
	<rect x="174.5" y="102.6" class="st8" width="28.4" height="20.9"/>
</g>
<g>
	<g>
		<rect x="240" y="103.8" class="st3" width="21.7" height="3.3"/>
	</g>
	<g>
		<rect x="240" y="107.7" class="st3" width="21.7" height="3.3"/>
	</g>
	<g>
		<rect x="240" y="111.4" class="st3" width="21.7" height="3.3"/>
	</g>
	<g>
		<rect x="240" y="115.3" class="st3" width="21.7" height="3.3"/>
	</g>
</g>
<g>
	<circle class="st9" cx="51.5" cy="111.8" r="5.3"/>
</g>
<g>
	<circle class="st9" cx="290.1" cy="111.8" r="5.3"/>
</g>
<g>
	<g>
		<path class="st7" d="M45.6,33.4V65c0,5.2,4.3,9.5,9.5,9.5h123.7c2.6,0,4.8-1,6.6-2.6c1.8-1.7,2.9-4.1,2.9-6.9V33.4
			c0-5.2-4.3-9.5-9.5-9.5H55.1c-2.6,0-5,1-6.6,2.8C46.8,28.3,45.6,30.8,45.6,33.4z"/>
	</g>
</g>
<g class="st10">
	<path class="st11" d="M88.8,66.9c-1.1,0-2.2-0.6-2.6-2L84.4,59h-9.7l-1.8,5.9c-0.4,1.4-1.6,2-2.6,2c-1.5,0-2.9-1.1-2.9-2.7
		c0-0.3,0-0.6,0.1-0.9l9-28.4c0.7-2.2,1.9-2.4,3.1-2.4s2.4,0.2,3.1,2.4l8.9,28.4c0.1,0.3,0.1,0.6,0.1,0.9
		C91.8,65.8,90.3,66.9,88.8,66.9z M79.6,43l-3.1,10.3h6.2L79.6,43z"/>
	<path class="st11" d="M97.4,66.9c-1.4,0-2.8-0.9-2.8-2.6v-1.2c0-1.7,1.4-2.6,2.8-2.6s2.8,0.9,2.8,2.6v1.2
		C100.2,66,98.8,66.9,97.4,66.9z"/>
	<path class="st11" d="M115.4,66.6H108c-1.5,0-2.8-1.3-2.8-2.8V35.6c0-1.5,1.3-2.8,2.8-2.8h7.4c5.4,0,9.8,4.2,9.8,9.6V57
		C125.2,62.4,120.9,66.6,115.4,66.6z M119.5,42.4c0-2.3-1.8-4-4.1-4h-4.6V61h4.6c2.3,0,4.1-1.7,4.1-4V42.4z"/>
	<path class="st11" d="M132.5,66.9c-1.4,0-2.8-0.9-2.8-2.6v-1.2c0-1.7,1.4-2.6,2.8-2.6s2.8,0.9,2.8,2.6v1.2
		C135.3,66,133.9,66.9,132.5,66.9z"/>
	<path class="st11" d="M154.8,52l5.1,10.8c0.2,0.4,0.3,0.9,0.3,1.3c0,1.6-1.5,2.8-3,2.8c-1,0-1.9-0.5-2.4-1.7l-5.9-12.4H146v11.3
		c0,1.9-1.4,2.8-2.8,2.8c-1.4,0-2.8-0.9-2.8-2.8V35.6c0-1.5,1.3-2.8,2.8-2.8h7.7c5.4,0,9.8,4.4,9.8,9.8V43
		C160.6,47.1,158.3,50.6,154.8,52z M154.9,42.6c0-2.3-1.7-4.2-4-4.2h-5v8.8h5.1c2.2,0,3.8-1.9,3.8-4.2L154.9,42.6L154.9,42.6z"/>
	<path class="st11" d="M167,66.9c-1.4,0-2.8-0.9-2.8-2.6v-1.2c0-1.7,1.4-2.6,2.8-2.6c1.4,0,2.8,0.9,2.8,2.6v1.2
		C169.8,66,168.4,66.9,167,66.9z"/>
</g>
</svg>
