<?xml version="1.0" encoding="utf-8"?>
<!-- Generator: Adobe Illustrator 21.1.0, SVG Export Plug-In . SVG Version: 6.00 Build 0)  -->
<svg version="1.1" id="Calque_1" xmlns="http://www.w3.org/2000/svg" xmlns:xlink="http://www.w3.org/1999/xlink" x="0px" y="0px"
	 viewBox="0 0 246.3 131.4" style="enable-background:new 0 0 246.3 131.4;" xml:space="preserve">
<style type="text/css">
	.st0{fill:#F7BE56;}
	.st1{fill:#19212E;}
	.st2{fill:#E56353;}
	.st3{fill:#AD6024;}
	.st4{fill:#FF8D35;}
	.st5{fill:#07070A;stroke:#000000;stroke-miterlimit:10;}
	.st6{fill:#FFF5E8;}
	.st7{fill:#64798A;}
	.st8{fill:#D5D6DB;}
	.st9{fill:#929697;}
</style>
<path class="st0" d="M246.3,107.8v6.6c0,1.4-1.1,2.5-2.5,2.5h-3.7v-11.6h3.7C245.2,105.3,246.3,106.4,246.3,107.8z"/>
<polygon class="st1" points="165.1,90.6 165.1,114.4 21.8,114.4 21.8,112.5 17.8,112.5 17.8,100.7 21.8,100.7 21.8,90.6 "/>
<path class="st1" d="M242.6,100.7v16.2c0,1.9-1.6,3.5-3.5,3.5h-79.9v-19.7H242.6z"/>
<path class="st2" d="M18.7,100.7v11.8h-3c-0.9,0-1.6-0.7-1.6-1.6v-8.5c0-0.9,0.7-1.6,1.6-1.6H18.7z"/>
<rect x="0.9" y="1" class="st3" width="156.5" height="96.8"/>
<path class="st4" d="M242.6,83.8v17.6h-83.4V25.7h37.5c2.7,0,5.2,1.1,7,3.1c5.8,6.5,10.8,17.5,15,33.4l19.8,13.9
	C241.1,77.8,242.6,80.7,242.6,83.8z"/>
<path class="st1" d="M211.4,65.9h-34.9V34.7h3.7C197.4,34.7,211.4,48.7,211.4,65.9z"/>
<path class="st1" d="M186,74.5c-1.3,0.7-2.7,1.1-4.2,1.1c-1.4,0-2.9-0.4-4.3-1.1l0.7-2.7c2.2,1.2,4.5,1.1,6.8,0L186,74.5z"/>
<path class="st5" d="M192.2,110.8c0,11.1,9,20.2,20.2,20.2c11.1,0,20.2-9,20.2-20.2s-9-20.2-20.2-20.2
	C201.2,90.6,192.2,99.6,192.2,110.8z"/>
<path class="st5" d="M26.9,110.8c0,11.1,9,20.2,20.2,20.2c11.1,0,20.2-9,20.2-20.2s-9-20.2-20.2-20.2
	C35.9,90.6,26.9,99.6,26.9,110.8z"/>
<path class="st6" d="M34.4,110.7c0,7,5.7,12.7,12.7,12.7c6.9,0,12.6-5.7,12.6-12.7S54,98.1,47.1,98.1
	C40.1,98.1,34.4,103.7,34.4,110.7z"/>
<path class="st6" d="M199.8,110.7c0,7,5.7,12.7,12.7,12.7c6.9,0,12.6-5.7,12.6-12.7s-5.7-12.6-12.6-12.6
	C205.5,98.1,199.8,103.7,199.8,110.7z"/>
<path class="st7" d="M139.2,109.3v6c0,4.1-3.3,7.4-7.4,7.4H91.1c-4.1,0-7.4-3.3-7.4-7.4v-6c0-4.1,3.3-7.4,7.4-7.4h40.7
	C135.9,102,139.2,105.3,139.2,109.3z"/>
<rect x="97.3" y="102" class="st8" width="28.3" height="20.8"/>
<g>
	<rect x="162.6" y="103.2" class="st4" width="21.6" height="3.3"/>
	<rect x="162.6" y="107" class="st4" width="21.6" height="3.3"/>
	<rect x="162.6" y="110.8" class="st4" width="21.6" height="3.3"/>
	<rect x="162.6" y="114.7" class="st4" width="21.6" height="3.3"/>
</g>
<circle class="st9" cx="47.1" cy="111.1" r="5.3"/>
<circle class="st9" cx="212.5" cy="111.1" r="5.3"/>
</svg>
