<?xml version="1.0" encoding="utf-8"?>
<!-- Generator: Adobe Illustrator 21.1.0, SVG Export Plug-In . SVG Version: 6.00 Build 0)  -->
<svg version="1.1" id="Calque_1" xmlns="http://www.w3.org/2000/svg" xmlns:xlink="http://www.w3.org/1999/xlink" x="0px" y="0px"
	 viewBox="0 0 330.6 200" style="enable-background:new 0 0 330.6 200;" xml:space="preserve">
<style type="text/css">
	.st0{fill:url(#SVGID_1_);}
	.st1{fill:#CCCCCC;}
	.st2{fill:#404041;}
	.st3{fill:#19212E;}
	.st4{fill:#FFDEC4;}
	.st5{fill:#FF8D35;}
	.st6{fill:#AD6024;}
	.st7{fill:#FFAD6E;}
	.st8{fill:#594A42;}
	.st9{fill:#07070A;stroke:#000000;stroke-miterlimit:10;}
	.st10{fill:#FFF5E8;}
	.st11{fill:#929697;}
</style>
<g>
	
		<linearGradient id="SVGID_1_" gradientUnits="userSpaceOnUse" x1="279.4544" y1="104.2251" x2="296.7372" y2="104.2251" gradientTransform="matrix(1 0 0 -1 0 202)">
		<stop  offset="0" style="stop-color:#6A8991"/>
		<stop  offset="0.53" style="stop-color:#335C64"/>
		<stop  offset="1" style="stop-color:#02383C"/>
	</linearGradient>
	<path class="st0" d="M280.2,88.4c0,0,7.7,8.6,9.5,18.8C289.6,107.2,273.3,100.3,280.2,88.4z"/>
	<polygon class="st1" points="279.9,89.7 285.8,97.8 283.5,95.9 284.4,98.3 285.6,99.1 286.4,100.4 286.4,101.9 285.8,101.9 
		287.1,102.7 287.1,103.5 286.9,103.9 285.1,103.9 283.9,102.6 281.8,101.1 279.8,98.9 279.8,96.7 279.1,94.3 	"/>
	<path class="st2" d="M293.8,144.6c2.3-0.1,4.7-0.2,7-0.4l-9.9-32.2l-35.9-15l-33.2,1.2L77.2,98.8l-40.8,6.5l-6.9,39.3H293.8z"/>
	<path class="st3" d="M190.5,41l-7,1.7l-3.3,2.1c0,0,19.5,3.9,39.4,32.5l28.3-3.3C247.6,73.9,230.1,53.6,190.5,41z"/>
	<path class="st4" d="M37.5,64.3l-1.7-0.9c-3-0.1-13.6,24.3-9.1,27.9C26.7,91.4,41.2,77,37.5,64.3z"/>
	<path class="st5" d="M45.6,47.5c1.8-3.4-8.1-4-6.2-6.5c0,0,93.7-15,151.1,0l-7,1.7c0,0,24.9,9.5,36.9,32.8l27.6-3.1
		c24.1,5.5,50.4,9.7,58.4,36.4l-0.3,22.7l2.4,2.4l-0.7,8.6l-3.1,0.9c0,0-6.6,2-10,2c0,0,1.8-34.4-29.9-33.9
		c-30.1-0.9-29.8,31-29.8,31H88.1c0,0,2.9-32.4-31.8-31c-29,1.1-25,34.7-25,34.7l-4.3-1.2c0,0-4.3-26.7-5.2-35c0,0,3.1-5.6,3.1-10.8
		C25,99.1,32,61.7,45.6,47.5z"/>
	<path class="st6" d="M309.5,124.8l-1.6,17.7l-3.1,0.9c0,0-6.6,2-10,2c0,0,1.8-34.4-29.9-33.9c-30.1-0.9-29.8,31-29.8,31H88.2
		c0,0,2.9-32.4-31.8-31c-29,1.1-25,34.7-25,34.7l-7.2-1.8c0,0-1.6-9.9-3-19.5c1.8-0.6,6.3-0.9,6.7-1c4.9-15.6,17.9-23.7,31.4-24.5
		c24.3-1.4,34.8,23.4,37.4,37c42.9-0.2,86-0.4,128.9-0.7c8.5-48.1,56.6-44.9,74.8-11.9C300.6,124,306.8,124.4,309.5,124.8z"/>
	<path class="st3" d="M67.5,46.9c-9.1,0.8-11.7,21.1-13,30h74.3l3.8-35.2C120.5,41.9,78.4,42.8,67.5,46.9L67.5,46.9z M212,76.9
		c-4.3-7.8-21.2-33.6-57.6-34.8c-6.3-0.2-12.7-0.3-18.9-0.2L133,77h79V76.9z"/>
	<path class="st7" d="M203.6,66.7c0,0-4.8,8.9,1.7,16.1C205.3,82.8,227.7,73.9,203.6,66.7z"/>
	<path class="st4" d="M302.3,104.7c-4-10.6-10.3-14.8-19.2-19.2c-8.6-0.9-8.8,5.5-5.3,11.2C281.1,102.6,296.5,114.3,302.3,104.7z"/>
	<path class="st8" d="M134,86.5v-1.1c0-1,0.6-1.8,1.3-1.8l16.4-0.1c0.8,0,1.3,0.8,1.3,1.8v1.1L134,86.5z"/>
	<path class="st8" d="M100.5,86.9v-1.1c0-1,0.6-1.8,1.3-1.8l16.4-0.1c0.8,0,1.3,0.8,1.3,1.8v1.1L100.5,86.9z"/>
	<g>
		<circle class="st9" cx="60" cy="141.2" r="24.4"/>
		<circle class="st10" cx="60" cy="141.2" r="17.2"/>
		<circle class="st11" cx="60" cy="141.2" r="8.3"/>
	</g>
	<g>
		<circle class="st9" cx="265.6" cy="141.2" r="24.4"/>
		<circle class="st10" cx="265.6" cy="141.2" r="17.2"/>
		<circle class="st11" cx="265.6" cy="141.2" r="8.3"/>
	</g>
</g>
</svg>
