<?xml version="1.0" encoding="utf-8"?>
<!-- Generator: Adobe Illustrator 21.1.0, SVG Export Plug-In . SVG Version: 6.00 Build 0)  -->
<svg version="1.1" id="Calque_1" xmlns="http://www.w3.org/2000/svg" xmlns:xlink="http://www.w3.org/1999/xlink" x="0px" y="0px"
	 viewBox="0 0 342.5 200" style="enable-background:new 0 0 342.5 200;" xml:space="preserve">
<style type="text/css">
	.st0{fill:#FF8D35;}
	.st1{fill:#AD6024;}
	.st2{fill:#07070A;}
	.st3{fill:#FFF5E8;}
	.st4{fill:#19212E;}
	.st5{fill:#929697;}
	.st6{enable-background:new    ;}
</style>
<g>
	<g>
		<path class="st0" d="M18.4,42.6v89.6c0,4.5,3.7,8.1,8.1,8.1h289.4c4.5,0,8.1-3.7,8.1-8.1V85.9c0-2.4-0.5-4.8-1.4-7l-14.4-33.7
			l-4.6-10.7H26.6C22.1,34.5,18.4,38.2,18.4,42.6z"/>
	</g>
	<g>
		<path class="st1" d="M26.6,138.9h289.4c4.5,0,8.1-3.7,8.1-8.1v-16.3H18.4v16.3C18.4,135.2,22.1,138.9,26.6,138.9z"/>
	</g>
	<g>
		<circle class="st2" cx="67.5" cy="140.5" r="24.4"/>
		<path d="M67.5,165.5c-13.8,0-25-11.2-25-25s11.2-25,25-25s25,11.2,25,25S81.3,165.5,67.5,165.5z M67.5,116.7
			c-13.1,0-23.8,10.7-23.8,23.8s10.7,23.8,23.8,23.8s23.8-10.7,23.8-23.8C91.3,127.4,80.6,116.7,67.5,116.7z"/>
	</g>
	<g>
		<path class="st3" d="M52.3,140.5c0,1.8,0.2,3.4,0.8,5.1c0.2,0.5,0.4,1.1,0.7,1.5c1.5,3.1,4,5.7,7.1,7.1c0.5,0.2,1.1,0.5,1.7,0.7
			c1.5,0.6,3.3,0.8,5.1,0.8s3.4-0.2,5.1-0.8c0.5-0.2,1.1-0.4,1.5-0.7c3.1-1.5,5.7-4,7.1-7.1c0.2-0.5,0.5-1.1,0.7-1.5
			c0.6-1.5,0.8-3.3,0.8-5.1s-0.2-3.4-0.8-5.1c-0.1-0.5-0.4-1.1-0.7-1.5c-1.4-3.1-4-5.7-7.1-7.2c-0.5-0.2-1.1-0.5-1.7-0.7
			c-1.5-0.6-3.3-0.8-5.1-0.8s-3.4,0.2-5.1,0.8c-0.6,0.1-1.1,0.4-1.7,0.7c-3.1,1.5-5.7,4-7.1,7.1c-0.2,0.5-0.5,1.1-0.7,1.7
			C52.5,137,52.3,138.7,52.3,140.5z"/>
	</g>
	<g>
		<circle class="st2" cx="258.4" cy="140.5" r="24.4"/>
		<path d="M258.4,165.5c-13.8,0-25-11.2-25-25s11.2-25,25-25c13.8,0,25,11.2,25,25S272.2,165.5,258.4,165.5z M258.4,116.7
			c-13.1,0-23.8,10.7-23.8,23.8s10.7,23.8,23.8,23.8c13.1,0,23.8-10.7,23.8-23.8C282.2,127.4,271.5,116.7,258.4,116.7z"/>
	</g>
	<g>
		<path class="st3" d="M243.2,140.5c0,1.8,0.2,3.4,0.8,5.1c0.2,0.5,0.4,1.1,0.7,1.5c1.5,3.1,4,5.7,7.1,7.1c0.5,0.2,1.1,0.5,1.7,0.7
			c1.5,0.6,3.3,0.8,5.1,0.8c1.8,0,3.4-0.2,5.1-0.8c0.5-0.2,1.1-0.4,1.5-0.7c3.1-1.5,5.7-4,7.1-7.1c0.2-0.5,0.5-1.1,0.7-1.5
			c0.6-1.5,0.8-3.3,0.8-5.1s-0.2-3.4-0.8-5.1c-0.1-0.5-0.4-1.1-0.7-1.5c-1.4-3.1-4-5.7-7.1-7.2c-0.5-0.2-1.1-0.5-1.7-0.7
			c-1.5-0.6-3.3-0.8-5.1-0.8c-1.8,0-3.4,0.2-5.1,0.8c-0.6,0.1-1.1,0.4-1.7,0.7c-3.1,1.5-5.7,4-7.1,7.1c-0.2,0.5-0.5,1.1-0.7,1.7
			C243.4,137,243.2,138.7,243.2,140.5z"/>
	</g>
	<g>
		<path class="st4" d="M221.4,53.4v27c0,4.5,3.7,8.1,8.1,8.1h30.3c2.2,0,4.2-0.8,5.7-2.4c1.5-1.4,2.5-3.5,2.5-5.8v-27
			c0-4.5-3.7-8.1-8.1-8.1h-30.3c-2.2,0-4.2,0.8-5.7,2.4C222.3,49,221.4,51.1,221.4,53.4z"/>
	</g>
	<g>
		<path class="st4" d="M288.1,61.5v31.6c0,4,3.2,7.2,7.2,7.2h28.8V85.9c0-2.4-0.5-4.8-1.4-7l-14.4-33.7h-3.9
			C295.4,45.2,288.1,52.5,288.1,61.5z"/>
	</g>
	<g>
		<path class="st4" d="M37.4,53.4v27c0,4.5,3.7,8.1,8.1,8.1h30.3c2.2,0,4.1-0.8,5.7-2.2c1.5-1.4,2.5-3.5,2.5-5.9v-27
			c0-4.5-3.7-8.1-8.1-8.1H45.6c-2.2,0-4.2,0.8-5.7,2.4C38.4,49,37.4,51.1,37.4,53.4z"/>
	</g>
	<g>
		<path class="st4" d="M91.9,53.4v27c0,4.5,3.7,8.1,8.1,8.1h105.8c2.2,0,4.1-0.8,5.7-2.2s2.5-3.5,2.5-5.9v-27c0-4.5-3.7-8.1-8.1-8.1
			H100c-2.2,0-4.2,0.8-5.7,2.4C92.8,49,91.9,51.1,91.9,53.4z"/>
	</g>
	<g>
		<circle class="st5" cx="258.4" cy="140.5" r="6.2"/>
	</g>
	<g>
		<circle class="st5" cx="67.5" cy="140.5" r="6.2"/>
	</g>
	<g class="st6">
		<path class="st3" d="M116.2,58c-2.5,0-3.9,1.4-3.9,4.2v10.4c0,2.8,1.4,4.2,3.9,4.2c3.3,0,3.7-2.4,3.8-3.9c0.1-1.2,1.1-1.5,2.4-1.5
			c1.7,0,2.5,0.5,2.5,2.4c0,4.5-3.7,7.3-8.8,7.3c-4.6,0-8.5-2.2-8.5-8.5V62.3c0-6.1,3.9-8.5,8.5-8.5c5.1,0,8.7,2.7,8.7,7
			c0,1.9-0.8,2.4-2.4,2.4c-1.4,0-2.4-0.4-2.4-1.5C119.8,60.6,119.6,58,116.2,58z"/>
		<path class="st3" d="M126.1,78.8c0-0.1,0-0.2,0.1-0.4l7.1-23.2c0.4-1.1,1.7-1.7,3.1-1.7c1.4,0,2.7,0.5,3.1,1.7l7.1,23.2
			c0,0.1,0.1,0.2,0.1,0.4c0,1.2-1.8,2-3.1,2c-0.8,0-1.4-0.2-1.7-0.9l-1.3-5h-8.5l-1.4,5c-0.2,0.7-0.8,0.9-1.7,0.9
			C127.9,80.7,126.1,80,126.1,78.8z M139.5,71.2l-3.2-11.3l-3.2,11.3H139.5z"/>
		<path class="st3" d="M149.2,55.3c0-0.8,0.7-1.5,1.8-1.5h7.4c4.7,0,8.4,2.2,8.4,8.3v0.2c0,6-3.8,8.4-8.6,8.4H154v8.6
			c0,0.9-1.2,1.5-2.4,1.5c-1.2,0-2.4-0.5-2.4-1.5V55.3H149.2z M154,58v9h4.1c2.4,0,3.9-1.4,3.9-4.2v-0.5c0-2.8-1.5-4.2-3.9-4.2H154z
			"/>
		<path class="st3" d="M185.8,53.8c4.8,0,8.6,2.2,8.6,8.5v10c0,6.1-3.8,8.5-8.6,8.5h-6.5c-1.3,0-2.1-0.7-2.1-1.5V55.3
			c0-0.8,0.8-1.5,2.1-1.5h6.5V53.8z M181.9,58v18.5h3.9c2.5,0,3.9-1.4,3.9-4.2v-10c0-2.8-1.4-4.2-3.9-4.2H181.9z"/>
	</g>
</g>
</svg>
