<?xml version="1.0" encoding="utf-8"?>
<!-- Generator: Adobe Illustrator 21.1.0, SVG Export Plug-In . SVG Version: 6.00 Build 0)  -->
<svg version="1.1" id="Calque_1" xmlns="http://www.w3.org/2000/svg" xmlns:xlink="http://www.w3.org/1999/xlink" x="0px" y="0px"
	 viewBox="0 0 330.6 200" style="enable-background:new 0 0 330.6 200;" xml:space="preserve">
<style type="text/css">
	.st0{fill:#768391;}
	.st1{fill:#950708;}
	.st2{fill:#F5964E;}
	.st3{fill:#07070A;stroke:#000000;stroke-miterlimit:10;}
	.st4{fill:#FFF5E8;}
	.st5{fill:#929697;}
	.st6{fill:#6B463C;}
	.st7{fill:#5C3C33;}
	.st8{fill:#F57C21;}
	.st9{fill:#FF984A;}
	.st10{fill:#D96E1D;}
	.st11{fill:#08090C;stroke:#000000;stroke-miterlimit:10;}
	.st12{fill:#A8A8A8;}
</style>
<g>
	<path class="st0" d="M128.6,130.9h6.5c4,0,7.2,3.1,7.6,7h6.3v-8.1c0-0.9,0.8-1.7,1.7-1.7s1.7,0.8,1.7,1.7v9.8
		c0,0.9-0.8,1.7-1.7,1.7h-8.5c-1.1,2.7-3.8,4.7-7,4.7h-6.5c-4.1,0-7.6-3.4-7.6-7.6l0,0C121,134.3,124.4,130.9,128.6,130.9z"/>
	<path class="st1" d="M80.4,97h-7.6c-1.9,0-3.7,1.3-4.4,3.1l-1.1,3h-0.1c-1.6,0-3.1,1.1-3.4,2.7l0,0c-0.3,1.8,1,3.5,2.9,3.5h7.7
		L80.4,97z"/>
	<path class="st2" d="M202.5,59.1c0,0-7.2-10.8-5.2-12.3c2.1-1.5,3.8-1.5,5.8-4.4c1.9-2.6,4.1-7.8,13.2-8c1.4,0,2.6,0.9,3,2.2
		c0.8,2.6,1.6,7.4,0.3,12c-0.5,1.5-1.8,2.4-3.4,2.2c-2.4-0.3-5.8-0.7-6.1,0.8c-0.6,2.2,0.9,4,0.9,4L202.5,59.1z"/>
	<circle class="st3" cx="242.8" cy="138.1" r="27"/>
	<circle class="st4" cx="242.8" cy="138.1" r="18.9"/>
	<circle class="st5" cx="242.8" cy="138.1" r="10.4"/>
	<circle class="st3" cx="94" cy="138.5" r="27"/>
	<circle class="st4" cx="94" cy="138.5" r="18.9"/>
	<circle class="st5" cx="94" cy="138.5" r="10.4"/>
	<g>
		<circle class="st6" cx="201.6" cy="50.5" r="3.4"/>
		<path class="st7" d="M202.3,52.1L202.3,52.1c0,0,0.1,0,0.1-0.1c0.8-0.5,1.1-1.5,0.7-2.3c-0.3-0.7-1.1-1-1.9-0.8l0,0l-4.4,0.9
			l1.1,4.2L202.3,52.1z"/>
		<circle class="st6" cx="196.9" cy="52.1" r="2.3"/>
	</g>
	<path class="st8" d="M60.8,127.9c0,0-0.3-23.5,26.4-40.8l2.3-3.8c0,0,62.1-5.5,63.5-4.9c1.5,0.6,3.7,2.4,1.6,5.7s-17.4,20-6.6,30.6
		c0,0,4.4,15.2,46,5.7c0,0,16.7-12.3,17.7-28.6c0.8-13.3-7.9-27.7-11.2-32.7c-0.7-0.9-0.2-2.3,0.8-2.7l5.5-2.5
		c0.7-0.3,1.5,0,1.8,0.7c2.6,5.5,12.9,27.6,15.2,27.7c2.6,0.1,9.6,4.6,6.6,12.5c0,0-12.1,6.9-12.4,7.7c-0.1,0.8-7,18.7-15.7,26.6
		c0,0-5.6,7.1-19.5,7.1c-13.7,0-65.1,0-65.1,0s-4.4-2.9,0.3-6.4c0,0,3.3-2.2,2.1-3.5C118.1,123.7,70.4,124.5,60.8,127.9z"/>
	<path class="st9" d="M117.6,91c15.6,0.7,19.1,12.7,17.5,23.8c-1.1,7.7-7.9,11.9-12.5,13.3c0.2-0.5,0.3-1-0.1-1.4
		c-2.2-2.4-47.7-1.8-58.9,1.5c1.6-3.4,4.1-8.5,8-15.8C82.8,91.6,102,90.2,117.6,91z"/>
	<path class="st10" d="M214.4,129.4c-3.2,1-6.2-1.9-5.3-5.2c1.5-4.9,4.9-12.8,13.1-23.6c5.7-7.7,8.8-5.3,8.8-5.3s19.6-7.1,33.7,9.2
		c2.2,2.5,0.6,6.5-2.7,6.9c-7.1,0.8-17.4,1.8-19.5,2.2C234.1,114.9,225.1,126,214.4,129.4z"/>
	<path class="st11" d="M158.2,70.2v5.5c0,1.7-1.4,3.1-3,3.2l-63.7,4.6c-1.3,0.1-2.3-0.9-2.3-2.2c0-2.9-0.1-7.8-0.8-10.8
		c-0.3-1.4,0.7-2.6,2.1-2.7c11.2-0.5,49.2-1.9,62.7-2.4C156,65.4,158.2,67.6,158.2,70.2z"/>
	<path class="st2" d="M230.9,96.2c-1.8-2.9-3-8.9-3.7-13.2c3.1,1.1,8,5.4,5.4,12.1C232.7,95.2,232.1,95.6,230.9,96.2z"/>
	<path class="st0" d="M108.8,143.1h16v-4.6h-16c-1.3,0-2.3,1-2.3,2.3l0,0C106.5,142,107.5,143.1,108.8,143.1z"/>
	<path class="st12" d="M216,34.6c0.1,0,0.2,0,0.2,0c1.4,0,2.6,0.9,3,2.2c0.8,2.6,1.6,7.4,0.3,12c-0.5,1.5-1.8,2.4-3.4,2.2
		c-0.1,0-0.2,0-0.2,0C216.6,46.5,216.3,38.5,216,34.6z"/>
</g>
</svg>
