<?xml version="1.0" encoding="utf-8"?>
<!-- Generator: Adobe Illustrator 21.1.0, SVG Export Plug-In . SVG Version: 6.00 Build 0)  -->
<svg version="1.1" id="Calque_1" xmlns="http://www.w3.org/2000/svg" xmlns:xlink="http://www.w3.org/1999/xlink" x="0px" y="0px"
	 viewBox="0 0 325.5 133.1" style="enable-background:new 0 0 325.5 133.1;" xml:space="preserve">
<style type="text/css">
	.st0{fill:#F7BE56;}
	.st1{fill:#19212E;}
	.st2{fill:#E56353;}
	.st3{fill:#AD6024;}
	.st4{fill:#FF8D35;}
	.st5{fill:#07070A;}
	.st6{fill:#FFF5E8;}
	.st7{fill:#64798A;}
	.st8{fill:#D5D6DB;}
	.st9{fill:#929697;}
	.st10{enable-background:new    ;}
</style>
<g>
	<path class="st0" d="M324.1,108.5v6.6c0,1.4-1.1,2.5-2.5,2.5h-3.7V106h3.7C322.9,105.9,324.1,107.1,324.1,108.5z"/>
</g>
<g>
	<polygon class="st1" points="242.5,91.2 242.5,115.1 22.2,115.1 22.2,113.2 18.1,113.2 18.1,101.4 22.2,101.4 22.2,91.2 	"/>
</g>
<g>
	<path class="st1" d="M320.3,101.4v16.3c0,1.9-1.6,3.5-3.5,3.5h-80.2v-19.7L320.3,101.4L320.3,101.4z"/>
</g>
<g>
	<path class="st2" d="M23,102.4v11.9h-3c-0.9,0-1.7-0.7-1.7-1.7V104c0-0.9,0.7-1.7,1.7-1.7L23,102.4L23,102.4z"/>
</g>
<g>
	<rect x="1.2" y="1.2" class="st3" width="233.6" height="97.2"/>
</g>
<g>
	<path class="st4" d="M320.3,84.4v17.7h-83.7v-76h37.6c2.7,0,5.3,1.1,7.1,3.1c5.8,6.5,10.9,17.6,15.1,33.5l19.8,13.9
		C318.8,78.4,320.3,81.3,320.3,84.4z"/>
</g>
<g>
	<path class="st1" d="M289,66.4h-35.1V35.1h3.7C275,35.1,289,49.1,289,66.4z"/>
</g>
<g>
	<path class="st1" d="M263.6,75.1c-1.3,0.8-2.7,1.1-4.2,1.1c-1.4,0-2.9-0.4-4.3-1.1l0.7-2.7c2.2,1.2,4.5,1.1,6.8,0L263.6,75.1z"/>
</g>
<g>
	<path class="st5" d="M269.7,111.4c0,11.2,9.1,20.3,20.3,20.3c11.2,0,20.2-9.1,20.2-20.3s-9.1-20.3-20.2-20.3
		C278.8,91.2,269.7,100.2,269.7,111.4z"/>
	<path d="M290,132.2c-11.5,0-20.8-9.3-20.8-20.8c0-11.4,9.3-20.7,20.8-20.8c11.4,0,20.7,9.3,20.7,20.8S301.4,132.2,290,132.2z
		 M290,91.6c-10.9,0.1-19.8,9-19.8,19.8c0,10.9,8.9,19.8,19.8,19.8c10.9,0,19.7-8.9,19.7-19.8S300.9,91.6,290,91.6z"/>
</g>
<g>
	<path class="st5" d="M31.3,111.4c0,11.2,9.1,20.3,20.3,20.3s20.2-9.1,20.2-20.3s-9.1-20.3-20.2-20.3
		C40.4,91.2,31.3,100.2,31.3,111.4z"/>
	<path d="M51.6,132.2c-11.5,0-20.8-9.3-20.8-20.8c0-11.4,9.3-20.7,20.8-20.8c11.4,0,20.7,9.3,20.7,20.8S63,132.2,51.6,132.2z
		 M51.6,91.6c-10.9,0.1-19.8,9-19.8,19.8c0,10.9,8.9,19.8,19.8,19.8c10.9,0,19.7-8.9,19.7-19.8S62.5,91.6,51.6,91.6z"/>
</g>
<g>
	<path class="st6" d="M38.9,111.4c0,7,5.7,12.8,12.8,12.8c6.9,0,12.6-5.7,12.6-12.8s-5.7-12.6-12.6-12.6
		C44.6,98.8,38.9,104.3,38.9,111.4z"/>
</g>
<g>
	<path class="st6" d="M277.4,111.4c0,7,5.7,12.8,12.8,12.8c6.9,0,12.6-5.7,12.6-12.8s-5.7-12.6-12.6-12.6
		C283.1,98.8,277.4,104.3,277.4,111.4z"/>
</g>
<g>
	<path class="st7" d="M216.5,110v6.1c0,4.1-3.3,7.4-7.4,7.4h-40.9c-4.1,0-7.4-3.3-7.4-7.4V110c0-4.1,3.3-7.4,7.4-7.4h40.9
		C213.2,102.6,216.5,105.9,216.5,110z"/>
</g>
<g>
	<rect x="174.5" y="102.6" class="st8" width="28.4" height="20.9"/>
</g>
<g>
	<g>
		<rect x="240.1" y="103.8" class="st4" width="21.7" height="3.3"/>
	</g>
	<g>
		<rect x="240.1" y="107.7" class="st4" width="21.7" height="3.3"/>
	</g>
	<g>
		<rect x="240.1" y="111.5" class="st4" width="21.7" height="3.3"/>
	</g>
	<g>
		<rect x="240.1" y="115.3" class="st4" width="21.7" height="3.3"/>
	</g>
</g>
<g>
	<circle class="st9" cx="51.6" cy="111.8" r="5.3"/>
</g>
<g>
	<circle class="st9" cx="290.1" cy="111.8" r="5.3"/>
</g>
<g>
	<g>
		<path class="st1" d="M45.7,33.5v31.6c0,5.2,4.3,9.5,9.5,9.5h123.7c2.6,0,4.8-1,6.6-2.6c1.8-1.7,2.9-4.1,2.9-6.9V33.5
			c0-5.2-4.3-9.5-9.5-9.5H55.2c-2.6,0-5,1-6.6,2.8C46.8,28.4,45.7,30.9,45.7,33.5z"/>
	</g>
	<g class="st10">
		<path class="st6" d="M74,38.9c-2.9,0-4.5,1.6-4.5,5v12c0,3.4,1.6,5,4.6,5c3.9,0,4.3-2.8,4.4-4.6c0.1-1.3,1.3-1.8,2.8-1.8
			c1.9,0,2.8,0.6,2.8,2.8c0,5.2-4.3,8.5-10.3,8.5c-5.4,0-9.9-2.7-9.9-9.9v-12c0-7.2,4.5-9.9,10-9.9c6,0,10.3,3.2,10.3,8.2
			c0,2.2-0.9,2.8-2.8,2.8c-1.6,0-2.8-0.5-2.8-1.8C78.4,41.9,78.1,38.9,74,38.9z"/>
		<path class="st6" d="M86.7,63.2c0-0.1,0-0.3,0.1-0.4l8.3-27.1c0.4-1.3,2-1.9,3.6-1.9c1.6,0,3.2,0.6,3.6,1.9l8.3,27.1
			c0,0.2,0.1,0.3,0.1,0.4c0,1.3-2,2.3-3.5,2.3c-0.9,0-1.7-0.3-1.9-1.1l-1.6-5.7h-9.9l-1.6,5.7c-0.2,0.8-0.9,1.1-1.9,1.1
			C88.7,65.6,86.7,64.6,86.7,63.2z M102.4,54.3l-3.8-13.2l-3.8,13.2H102.4z"/>
		<path class="st6" d="M114.7,35.8c0-0.9,0.8-1.7,2.1-1.7h8.7c5.5,0,9.8,2.6,9.8,9.7V44c0,7.1-4.4,9.8-10.1,9.8h-4.8v10
			c0,1.2-1.4,1.8-2.8,1.8c-1.4,0-2.8-0.6-2.8-1.8V35.8z M120.3,38.9v10.4h4.8c2.8,0,4.5-1.6,4.5-5v-0.5c0-3.4-1.7-5-4.5-5H120.3z"/>
		<path class="st6" d="M159.2,38.9c-2.9,0-4.5,1.6-4.5,5v12c0,3.4,1.6,5,4.6,5c3.9,0,4.3-2.8,4.4-4.6c0.1-1.3,1.3-1.8,2.8-1.8
			c1.9,0,2.8,0.6,2.8,2.8c0,5.2-4.3,8.5-10.3,8.5c-5.4,0-9.9-2.7-9.9-9.9v-12c0-7.2,4.5-9.9,10-9.9c6,0,10.3,3.2,10.3,8.2
			c0,2.2-0.9,2.8-2.8,2.8c-1.6,0-2.8-0.5-2.8-1.8C163.6,41.9,163.3,38.9,159.2,38.9z"/>
	</g>
</g>
</svg>
