<?xml version="1.0" encoding="utf-8"?>
<!-- Generator: Adobe Illustrator 21.1.0, SVG Export Plug-In . SVG Version: 6.00 Build 0)  -->
<svg version="1.1" id="Calque_1" xmlns="http://www.w3.org/2000/svg" xmlns:xlink="http://www.w3.org/1999/xlink" x="0px" y="0px"
	 viewBox="0 0 342.5 200" style="enable-background:new 0 0 342.5 200;" xml:space="preserve">
<style type="text/css">
	.st0{fill:#FF8D35;}
	.st1{fill:#AD6024;}
	.st2{fill:#07070A;stroke:#000000;stroke-miterlimit:10;}
	.st3{fill:#FFF5E8;}
	.st4{fill:#19212E;}
	.st5{fill:#929697;}
</style>
<g>
	<path class="st0" d="M18.3,42.9v89.7c0,4.5,3.6,8.1,8.1,8.1h289.4c4.5,0,8.1-3.6,8.1-8.1V86.3c0-2.5-0.5-4.8-1.4-7l-14.3-33.7
		l-4.6-10.8H26.6C22,34.8,18.3,38.4,18.3,42.9z"/>
	<path class="st1" d="M26.6,139.3h289.4c4.5,0,8.1-3.6,8.1-8.1v-16.3H18.3v16.3C18.3,135.6,22,139.3,26.6,139.3z"/>
	<circle class="st2" cx="67.4" cy="140.8" r="24.4"/>
	<path class="st3" d="M52.1,140.8c0,1.8,0.2,3.5,0.8,5c0.2,0.6,0.4,1.1,0.7,1.6c1.5,3.1,4,5.6,7.2,7.2c0.6,0.2,1.1,0.5,1.6,0.7
		c1.5,0.6,3.3,0.8,5,0.8s3.5-0.2,5-0.8c0.6-0.2,1.1-0.4,1.6-0.7c3.1-1.5,5.6-4,7.2-7.2c0.2-0.6,0.5-1.1,0.7-1.6
		c0.6-1.6,0.8-3.3,0.8-5c0-1.8-0.2-3.5-0.8-5c-0.1-0.6-0.4-1.1-0.7-1.6c-1.5-3.1-4-5.6-7-7.2c-0.6-0.2-1.1-0.5-1.6-0.7
		c-1.6-0.6-3.3-0.8-5-0.8s-3.5,0.2-5,0.8c-0.6,0.1-1.1,0.4-1.6,0.7c-3.1,1.5-5.6,4-7.2,7.2c-0.2,0.6-0.5,1.1-0.7,1.6
		C52.5,137.4,52.1,139,52.1,140.8z"/>
	<circle class="st2" cx="258.4" cy="140.8" r="24.4"/>
	<path class="st3" d="M243.2,140.8c0,1.8,0.2,3.5,0.8,5c0.2,0.6,0.4,1.1,0.7,1.6c1.5,3.1,4,5.6,7.2,7.2c0.6,0.2,1.1,0.5,1.6,0.7
		c1.5,0.6,3.3,0.8,5,0.8s3.5-0.2,5-0.8c0.6-0.2,1.1-0.4,1.6-0.7c3.1-1.5,5.6-4,7.2-7.2c0.2-0.6,0.5-1.1,0.7-1.6
		c0.6-1.6,0.8-3.3,0.8-5c0-1.8-0.2-3.5-0.8-5c-0.1-0.6-0.4-1.1-0.7-1.6c-1.5-3.1-4-5.6-7-7.2c-0.6-0.2-1.1-0.5-1.6-0.7
		c-1.6-0.6-3.3-0.8-5-0.8s-3.5,0.2-5,0.8c-0.6,0.1-1.1,0.4-1.6,0.7c-3.1,1.5-5.6,4-7.2,7.2c-0.2,0.6-0.5,1.1-0.7,1.6
		C243.4,137.4,243.2,139,243.2,140.8z"/>
	<path class="st4" d="M221.4,53.7v27c0,4.5,3.6,8.1,8.1,8.1h30.4c2.2,0,4.2-0.8,5.6-2.3c1.5-1.5,2.5-3.5,2.5-5.9v-27
		c0-4.5-3.6-8.1-8.1-8.1h-30.4c-2.2,0-4.2,0.8-5.6,2.3C222.3,49.4,221.4,51.5,221.4,53.7z"/>
	<path class="st4" d="M288.1,61.9v31.6c0,4,3.3,7.3,7.3,7.3h28.8V86.3c0-2.5-0.5-4.8-1.4-7l-14.3-33.7h-3.9
		C295.4,45.6,288.1,52.9,288.1,61.9z"/>
	<g>
		<path class="st4" d="M160.1,53.7v27c0,4.5,3.6,8.1,8.1,8.1h30.3c2.2,0,4.2-0.8,5.6-2.2c1.5-1.5,2.5-3.6,2.5-5.9v-27
			c0-4.5-3.6-8.1-8.1-8.1h-30.3c-2.2,0-4.2,0.8-5.6,2.3C161,49.4,160.1,51.5,160.1,53.7z"/>
		<path class="st4" d="M98.7,53.7v27c0,4.5,3.6,8.1,8.1,8.1h30.3c2.2,0,4.2-0.8,5.6-2.3c1.5-1.5,2.5-3.5,2.5-5.9v-27
			c0-4.5-3.6-8.1-8.1-8.1h-30.3c-2.2,0-4.1,0.8-5.6,2.2C99.7,49.4,98.7,51.5,98.7,53.7z"/>
		<path class="st4" d="M37.4,53.7v27c0,4.5,3.6,8.1,8.1,8.1h30.3c2.2,0,4.1-0.8,5.6-2.2c1.5-1.5,2.5-3.6,2.5-5.9v-27
			c0-4.5-3.6-8.1-8.1-8.1H45.4c-2.2,0-4.2,0.8-5.6,2.3C38.3,49.4,37.4,51.5,37.4,53.7z"/>
	</g>
	<circle class="st5" cx="258.4" cy="140.8" r="6.2"/>
	<circle class="st5" cx="67.5" cy="140.8" r="6.2"/>
</g>
</svg>
