<?xml version="1.0" encoding="utf-8"?>
<!-- Generator: Adobe Illustrator 21.1.0, SVG Export Plug-In . SVG Version: 6.00 Build 0)  -->
<svg version="1.1" id="Calque_1" xmlns="http://www.w3.org/2000/svg" xmlns:xlink="http://www.w3.org/1999/xlink" x="0px" y="0px"
	 viewBox="0 0 330.6 200" style="enable-background:new 0 0 330.6 200;" xml:space="preserve">
<style type="text/css">
	.st0{opacity:0.4;}
	.st1{fill:#324C5B;}
	.st2{fill:#4A4849;}
	.st3{fill:#C7CAD1;}
	.st4{fill:#F9F9F9;}
	.st5{fill:#333333;}
	.st6{fill:#F37521;}
	.st7{fill:#999999;}
	.st8{opacity:0.4;clip-path:url(#SVGID_2_);}
	.st9{clip-path:url(#SVGID_2_);}
	.st10{fill:#ECB98C;}
	.st11{clip-path:url(#SVGID_4_);}
	.st12{fill:#F6E2CA;}
	.st13{fill:#A57842;}
	.st14{fill:#E05B4A;}
	.st15{clip-path:url(#SVGID_6_);}
	.st16{fill:#E8A244;}
	.st17{fill:#EED8A2;}
	.st18{fill:#EFC849;}
	.st19{fill:#D1933E;}
</style>
<g>
	<g class="st0">
		<polygon class="st1" points="210.7,143.8 218.7,142.7 211.2,85.7 214.8,31.2 203.9,30.5 202,16.1 129.7,25.6 111.9,24.5 111.7,28 
			99.9,29.6 100.5,34.5 94.4,35.3 105.2,128.2 103.6,152 108,152.2 109.1,162.2 163.3,155.8 206.5,158.7 207,150.8 211.5,150.2 		
			"/>
	</g>
	<g>
		
			<rect x="104.3" y="20" transform="matrix(0.9914 -0.1309 0.1309 0.9914 -9.6324 21.1115)" class="st2" width="103" height="127.7"/>
	</g>
	<g>
		
			<rect x="91.8" y="37.7" transform="matrix(6.505833e-02 -0.9979 0.9979 6.505833e-02 56.4857 238.7786)" class="st3" width="127.7" height="103"/>
	</g>
	<g>
		
			<rect x="97.9" y="26.6" transform="matrix(0.9933 -0.1156 0.1156 0.9933 -9.4548 17.8835)" class="st4" width="103" height="127.7"/>
	</g>
	<g>
		<path class="st5" d="M102.1,60l-2.2-18.9l18.9-2.2l2.2,18.9L102.1,60z M102,42.8l1.8,15.2l15.2-1.8L117.1,41L102,42.8z"/>
	</g>
	<g>
		<polygon class="st6" points="108.6,55.3 104,49.2 106.3,47.5 108.8,51 115,44.4 117,46.3 		"/>
	</g>
	<g>
		<g>
			<rect x="125" y="38" transform="matrix(0.9933 -0.1156 0.1156 0.9933 -3.4625 18.2036)" class="st7" width="60.2" height="1.8"/>
		</g>
		<g>
			
				<rect x="125.6" y="43.4" transform="matrix(0.9933 -0.1156 0.1156 0.9933 -4.076 18.3114)" class="st7" width="60.2" height="1.8"/>
		</g>
		<g>
			
				<rect x="126.3" y="50.2" transform="matrix(0.9933 -0.1156 0.1156 0.9933 -4.9549 16.7787)" class="st7" width="31.6" height="1.8"/>
		</g>
	</g>
	<g>
		<path class="st5" d="M104.6,82l-2.2-18.9l18.9-2.2l2.2,18.9L104.6,82z M104.5,64.7l1.8,15.2l15.2-1.8L119.7,63L104.5,64.7z"/>
	</g>
	<g>
		<polygon class="st6" points="111.1,77.3 106.6,71.2 108.8,69.5 111.4,72.9 117.6,66.3 119.6,68.2 		"/>
	</g>
	<g>
		<g>
			
				<rect x="127.6" y="60" transform="matrix(0.9933 -0.1156 0.1156 0.9933 -5.9853 18.6471)" class="st7" width="60.2" height="1.8"/>
		</g>
		<g>
			
				<rect x="128.2" y="65.3" transform="matrix(0.9933 -0.1156 0.1156 0.9933 -6.5988 18.7548)" class="st7" width="60.2" height="1.8"/>
		</g>
		<g>
			
				<rect x="128.9" y="72.1" transform="matrix(0.9933 -0.1156 0.1156 0.9933 -7.4776 17.2218)" class="st7" width="31.6" height="1.8"/>
		</g>
	</g>
	<g>
		<path class="st5" d="M107.2,103.9L105,85.1l18.9-2.2l2.2,18.9L107.2,103.9z M107.1,86.7l1.8,15.2l15.2-1.8l-1.8-15.2L107.1,86.7z"
			/>
	</g>
	<g>
		<polygon class="st6" points="113.7,99.3 109.1,93.1 111.4,91.5 113.9,94.9 120.1,88.3 122.2,90.2 		"/>
	</g>
	<g>
		<g>
			
				<rect x="130.1" y="82" transform="matrix(0.9933 -0.1156 0.1156 0.9933 -8.5079 19.0899)" class="st7" width="60.2" height="1.8"/>
		</g>
		<g>
			
				<rect x="130.8" y="87.3" transform="matrix(0.9933 -0.1156 0.1156 0.9933 -9.1215 19.1979)" class="st7" width="60.2" height="1.8"/>
		</g>
		<g>
			
				<rect x="131.5" y="94.1" transform="matrix(0.9933 -0.1156 0.1156 0.9933 -10.0005 17.6654)" class="st7" width="31.6" height="1.8"/>
		</g>
	</g>
	<g>
		<path class="st5" d="M109.8,125.9l-2.2-18.9l18.9-2.2l2.2,18.9L109.8,125.9z M109.6,108.7l1.8,15.2l15.2-1.8l-1.8-15.2
			L109.6,108.7z"/>
	</g>
	<g>
		<polygon class="st6" points="116.3,121.2 111.7,115.1 113.9,113.4 116.5,116.9 122.7,110.3 124.7,112.2 		"/>
	</g>
	<g>
		<g>
			
				<rect x="132.7" y="103.9" transform="matrix(0.9933 -0.1156 0.1156 0.9933 -11.0304 19.5326)" class="st7" width="60.2" height="1.8"/>
		</g>
		<g>
			
				<rect x="133.3" y="109.3" transform="matrix(0.9933 -0.1157 0.1157 0.9933 -11.6446 19.6416)" class="st7" width="60.2" height="1.8"/>
		</g>
		<g>
			
				<rect x="134" y="116.1" transform="matrix(0.9933 -0.1156 0.1156 0.9933 -12.5229 18.1079)" class="st7" width="31.6" height="1.8"/>
		</g>
	</g>
	<g>
		<path class="st5" d="M112.3,147.8l-2.2-18.9l18.9-2.2l2.2,18.9L112.3,147.8z M112.2,130.6l1.8,15.2l15.2-1.8l-1.8-15.2
			L112.2,130.6z"/>
	</g>
	<g>
		<polygon class="st6" points="118.8,143.2 114.2,137.1 116.5,135.4 119.1,138.8 125.2,132.2 127.3,134.1 		"/>
	</g>
	<g>
		<g>
			
				<rect x="135.3" y="125.9" transform="matrix(0.9933 -0.1157 0.1157 0.9933 -13.5538 19.9769)" class="st7" width="60.2" height="1.8"/>
		</g>
		<g>
			
				<rect x="135.9" y="131.2" transform="matrix(0.9933 -0.1156 0.1156 0.9933 -14.1666 20.0833)" class="st7" width="60.2" height="1.8"/>
		</g>
		<g>
			
				<rect x="136.6" y="138" transform="matrix(0.9933 -0.1157 0.1157 0.9933 -15.0473 18.5535)" class="st7" width="31.6" height="1.8"/>
		</g>
	</g>
	<g>
		<defs>
			<rect id="SVGID_1_" x="72.1" y="13.8" width="186.5" height="172.5"/>
		</defs>
		<clipPath id="SVGID_2_">
			<use xlink:href="#SVGID_1_"  style="overflow:visible;"/>
		</clipPath>
		<g class="st8">
			<path class="st1" d="M244.1,170.1c0.4-0.7,0.8-1.3,1.2-1.9c6.8-9.7,3.4-11.6,1.4-14.6c-2-3-5.6-9.3-9.6-19.2
				c-4-9.9-14.4-14.3-14.4-14.3c-6.6-3.5-19.8-16.4-22.8-8.3c-0.5,1.3-0.3,2.7,0.2,4.2l-14-17.2l-14.7-10.5l3.9,16.3l20.2,23.8
				c-0.8-0.5-1.6-0.8-2.4-0.8c-6.9,0.2-9.4,4.9-5,11.6c4.4,6.7,6.2,13.9,6.2,13.9s2.2,11.8,3.8,19.9c1.6,8.1-0.4,10.2,5.6,21.7
				c6,11.6,4.8,18.3,4.8,18.3l28-3c-1.9-10-0.3-21.1,3-30.3c0.3,0.1,0.6,0.1,0.8-0.1l6.3-4.9c0.5-0.4,0.3-1.3-0.3-2.1L244.1,170.1z
				 M218.2,133.9c0,1.4,0.3,3.1,0.8,5.1l-9.8-12.1C213.7,131,218.2,133.9,218.2,133.9z M206.4,151.3c-1.1-6.2-3.3-12.7-6-17.3
				l24.7,29.2C221.3,164.7,208.4,162.6,206.4,151.3z"/>
		</g>
		<g class="st9">
			<g>
				<g>
					<path class="st10" d="M207.8,197.3c0,0,1.2-6.7-4.8-18.3c-6-11.6-4-13.7-5.6-21.7c-1.6-8.1-3.8-19.9-3.8-19.9
						s-1.8-7.2-6.2-13.9c-4.4-6.7-1.8-11.3,5-11.6c5.2-0.2,11.1,12.3,13.1,23.6c2,11.3,15,13.4,18.8,11.8c3.8-1.6-7.2-21.1-7-29.2
						c0,0-21.2-14.1-18.2-22.2c3-8.1,16.2,4.8,22.8,8.3c0,0,10.4,4.4,14.4,14.3c4,9.9,7.6,16.2,9.6,19.2c2,3,5.4,4.9-1.4,14.6
						c-6.8,9.7-11.6,27.1-8.8,41.9L207.8,197.3z"/>
				</g>
				<g>
					<defs>
						<path id="SVGID_3_" d="M207.8,197.3c0,0,1.2-6.7-4.8-18.3c-6-11.6-4-13.7-5.6-21.7c-1.6-8.1-3.8-19.9-3.8-19.9
							s-1.8-7.2-6.2-13.9c-4.4-6.7-1.8-11.3,5-11.6c5.2-0.2,11.1,12.3,13.1,23.6c2,11.3,15,13.4,18.8,11.8c3.8-1.6-7.2-21.1-7-29.2
							c0,0-21.2-14.1-18.2-22.2c3-8.1,16.2,4.8,22.8,8.3c0,0,10.4,4.4,14.4,14.3c4,9.9,7.6,16.2,9.6,19.2c2,3,5.4,4.9-1.4,14.6
							c-6.8,9.7-11.6,27.1-8.8,41.9L207.8,197.3z"/>
					</defs>
					<clipPath id="SVGID_4_">
						<use xlink:href="#SVGID_3_"  style="overflow:visible;"/>
					</clipPath>
					<g class="st11">
						<path class="st12" d="M183.1,123.9c0,0-4.7-7.7,0.5-8c5.2-0.3,17.7,11.9,4.7,13.9L183.1,123.9z"/>
					</g>
					<g class="st11">
						<g>
							<path class="st13" d="M218.4,99.2c-0.3,1.4,0.7,3.1,1.4,4.2c1.4,2.2,3,4.2,4.7,6.1c1.8,2.1,3.6,4.1,5.4,6.2
								c1.4,1.6,2.8,3.1,3.8,4.9c1.2,2,2.1,4.2,2.8,6.4c0.7,2.2,1.2,4.6,2.2,6.7c0.1,0.3,0.5,0.1,0.5-0.2c-0.3-2-1-4.1-1.7-6
								c-0.6-1.8-1.3-3.5-2.1-5.2c-1-2.1-2.3-3.9-3.9-5.6c-3.5-3.9-7.2-7.7-10.3-11.9c-1-1.4-3-3.7-2.7-5.6
								C218.6,99.1,218.4,99.1,218.4,99.2L218.4,99.2z"/>
						</g>
					</g>
					<g class="st11">
						<path class="st12" d="M205.4,91.1c0,0-6.3,3.7,0,7.8c6.3,4.1,7.3-0.1,5.1-3.7C208.2,91.7,205.4,91.1,205.4,91.1z"/>
					</g>
				</g>
			</g>
			<g>
				<g>
					<path class="st14" d="M228.1,151.6c-0.6-0.8-0.8-1.7-0.3-2.1l6.3-4.9c0.5-0.4,1.4,0,2,0.8l9.4,11.6c0.6,0.8,0.8,1.7,0.3,2.1
						l-6.3,4.9c-0.5,0.4-1.4,0-2-0.8L228.1,151.6z"/>
				</g>
				<g>
					<defs>
						<polygon id="SVGID_5_" points="239.4,149.3 185.5,83.1 170.8,72.6 174.8,88.9 231.5,155.7 						"/>
					</defs>
					<clipPath id="SVGID_6_">
						<use xlink:href="#SVGID_5_"  style="overflow:visible;"/>
					</clipPath>
					<g class="st15">
						<polygon class="st16" points="239.4,150.6 193.1,93.3 170.8,73.9 183.5,99.1 231.5,157 						"/>
					</g>
					<g class="st15">
						<path class="st17" d="M193.2,90.3c0.5,1.2-9-3.9-9-3.9l-5.1-1.9l0.8,5.4l0.7,6.9c0,0-18.2-22.2-17.8-22.6
							c0.5-0.4,1.2-10.9,4.5-10.2c3.3,0.7,20.4,17.8,22.1,18.8C191,83.8,193.2,90.3,193.2,90.3z"/>
					</g>
					<g class="st15">
						<path class="st1" d="M176.9,75.2l-5.9,4.2c0,0-10.7-16.5-10.3-17.3C161.2,61.3,176.9,75.2,176.9,75.2z"/>
					</g>
					<g class="st15">
						<path class="st18" d="M238.9,153.6l-54.6-67.1l-1.1-5c0,0,19.6,13.6,21.2,15.1c1.7,1.5,16.3,15.7,17.8,17.3
							c1.5,1.6,12.2,24.7,13.4,25.7c1.2,1,7.7,12.6,7.7,12.6L238.9,153.6z"/>
					</g>
					<g class="st15">
						<path class="st19" d="M234.1,155.6l-54.2-65.7c0,0-4.8-3.9-4.8-3.5c-0.1,0.3,0.8,12.9,2,14.3c1.2,1.4,13,19.8,17.9,24
							c4.9,4.2,17.2,21.3,21.4,25c4.2,3.7,21.5,14.6,21.5,14.6L234.1,155.6z"/>
					</g>
				</g>
			</g>
		</g>
	</g>
</g>
</svg>
