<?xml version="1.0" encoding="utf-8"?>
<!-- Generator: Adobe Illustrator 21.1.0, SVG Export Plug-In . SVG Version: 6.00 Build 0)  -->
<svg version="1.1" id="Calque_1" xmlns="http://www.w3.org/2000/svg" xmlns:xlink="http://www.w3.org/1999/xlink" x="0px" y="0px"
	 viewBox="0 0 176.7 106.6" style="enable-background:new 0 0 176.7 106.6;" xml:space="preserve">
<style type="text/css">
	.st0{opacity:0.4;}
	.st1{fill:#324C5B;}
	.st2{fill:#4A4849;}
	.st3{fill:#C7CAD1;}
	.st4{fill:#F9F9F9;}
	.st5{fill:#333333;}
	.st6{fill:#F37521;}
	.st7{fill:#999999;}
	.st8{opacity:0.4;clip-path:url(#SVGID_2_);}
	.st9{clip-path:url(#SVGID_2_);}
	.st10{fill:#ECB98C;}
	.st11{clip-path:url(#SVGID_4_);}
	.st12{fill:#F6E2CA;}
	.st13{fill:#A57842;}
	.st14{fill:#E05B4A;}
	.st15{clip-path:url(#SVGID_6_);}
	.st16{fill:#E8A244;}
	.st17{fill:#EED8A2;}
	.st18{fill:#EFC849;}
	.st19{fill:#D1933E;}
</style>
<g>
	<g class="st0">
		<polygon class="st1" points="116.4,80.3 121.3,79.7 116.7,44.5 118.9,10.8 112.2,10.4 111,1.5 66.4,7.4 55.4,6.7 55.3,8.9 48,9.9 
			48.4,12.9 44.6,13.4 51.3,70.7 50.3,85.4 53,85.5 53.7,91.6 87.1,87.8 113.7,89.5 114.1,84.6 116.8,84.3 		"/>
	</g>
	<g>
		
			<rect x="50.7" y="3.9" transform="matrix(0.9914 -0.1309 0.1309 0.9914 -4.9612 11.1682)" class="st2" width="63.6" height="78.8"/>
	</g>
	<g>
		
			<rect x="43" y="14.9" transform="matrix(6.505833e-02 -0.9979 0.9979 6.505833e-02 30.481 125.864)" class="st3" width="78.8" height="63.6"/>
	</g>
	<g>
		<rect x="46.8" y="8" transform="matrix(0.9933 -0.1156 0.1156 0.9933 -4.9538 9.4005)" class="st4" width="63.6" height="78.8"/>
	</g>
	<g>
		<path class="st5" d="M49.4,28.6L48,17l11.6-1.4L61,27.3L49.4,28.6z M49.3,18l1.1,9.4l9.4-1.1l-1.1-9.4L49.3,18z"/>
	</g>
	<g>
		<polygon class="st6" points="53.4,25.7 50.5,22 51.9,20.9 53.5,23.1 57.3,19 58.6,20.2 		"/>
	</g>
	<g>
		<g>
			
				<rect x="63.5" y="15.1" transform="matrix(0.9933 -0.1156 0.1156 0.9933 -1.2572 9.598)" class="st7" width="37.2" height="1.1"/>
		</g>
		<g>
			
				<rect x="63.9" y="18.4" transform="matrix(0.9933 -0.1156 0.1156 0.9933 -1.6357 9.6645)" class="st7" width="37.2" height="1.1"/>
		</g>
		<g>
			
				<rect x="64.3" y="22.6" transform="matrix(0.9933 -0.1156 0.1156 0.9933 -2.1779 8.719)" class="st7" width="19.5" height="1.1"/>
		</g>
	</g>
	<g>
		<path class="st5" d="M50.9,42.2l-1.4-11.6l11.6-1.4l1.4,11.6L50.9,42.2z M50.8,31.5l1.1,9.4l9.4-1.1l-1.1-9.4L50.8,31.5z"/>
	</g>
	<g>
		<polygon class="st6" points="54.9,39.3 52.1,35.5 53.5,34.5 55.1,36.6 58.9,32.5 60.2,33.7 		"/>
	</g>
	<g>
		<g>
			
				<rect x="65.1" y="28.6" transform="matrix(0.9933 -0.1156 0.1156 0.9933 -2.8135 9.8716)" class="st7" width="37.2" height="1.1"/>
		</g>
		<g>
			<rect x="65.5" y="31.9" transform="matrix(0.9933 -0.1156 0.1156 0.9933 -3.192 9.938)" class="st7" width="37.2" height="1.1"/>
		</g>
		<g>
			
				<rect x="65.9" y="36.1" transform="matrix(0.9933 -0.1156 0.1156 0.9933 -3.7341 8.9924)" class="st7" width="19.5" height="1.1"/>
		</g>
	</g>
	<g>
		<path class="st5" d="M52.5,55.7l-1.4-11.6l11.6-1.4l1.4,11.6L52.5,55.7z M52.4,45.1l1.1,9.4l9.4-1.1L61.8,44L52.4,45.1z"/>
	</g>
	<g>
		<polygon class="st6" points="56.5,52.8 53.7,49.1 55.1,48 56.7,50.2 60.5,46.1 61.7,47.3 		"/>
	</g>
	<g>
		<g>
			
				<rect x="66.7" y="42.2" transform="matrix(0.9933 -0.1156 0.1156 0.9933 -4.3697 10.1447)" class="st7" width="37.2" height="1.1"/>
		</g>
		<g>
			
				<rect x="67" y="45.5" transform="matrix(0.9933 -0.1156 0.1156 0.9933 -4.7482 10.2114)" class="st7" width="37.2" height="1.1"/>
		</g>
		<g>
			
				<rect x="67.5" y="49.7" transform="matrix(0.9933 -0.1156 0.1156 0.9933 -5.2904 9.266)" class="st7" width="19.5" height="1.1"/>
		</g>
	</g>
	<g>
		<path class="st5" d="M54.1,69.3l-1.4-11.6l11.6-1.4l1.4,11.6L54.1,69.3z M54,58.6l1.1,9.4l9.4-1.1l-1.1-9.4L54,58.6z"/>
	</g>
	<g>
		<polygon class="st6" points="58.1,66.4 55.3,62.6 56.7,61.6 58.2,63.7 62,59.6 63.3,60.8 		"/>
	</g>
	<g>
		<g>
			
				<rect x="68.2" y="55.7" transform="matrix(0.9933 -0.1156 0.1156 0.9933 -5.9258 10.4179)" class="st7" width="37.2" height="1.1"/>
		</g>
		<g>
			<rect x="68.6" y="59" transform="matrix(0.9933 -0.1157 0.1157 0.9933 -6.3046 10.485)" class="st7" width="37.2" height="1.1"/>
		</g>
		<g>
			
				<rect x="69.1" y="63.2" transform="matrix(0.9933 -0.1156 0.1156 0.9933 -6.8465 9.539)" class="st7" width="19.5" height="1.1"/>
		</g>
	</g>
	<g>
		<path class="st5" d="M55.7,82.8l-1.4-11.6l11.6-1.4l1.4,11.6L55.7,82.8z M55.6,72.2l1.1,9.4l9.4-1.1l-1.1-9.4L55.6,72.2z"/>
	</g>
	<g>
		<polygon class="st6" points="59.7,79.9 56.9,76.2 58.2,75.1 59.8,77.3 63.6,73.2 64.9,74.4 		"/>
	</g>
	<g>
		<g>
			
				<rect x="69.8" y="69.3" transform="matrix(0.9933 -0.1157 0.1157 0.9933 -7.4824 10.6919)" class="st7" width="37.2" height="1.1"/>
		</g>
		<g>
			
				<rect x="70.2" y="72.6" transform="matrix(0.9933 -0.1156 0.1156 0.9933 -7.8604 10.7576)" class="st7" width="37.2" height="1.1"/>
		</g>
		<g>
			
				<rect x="70.6" y="76.8" transform="matrix(0.9933 -0.1157 0.1157 0.9933 -8.4037 9.8136)" class="st7" width="19.5" height="1.1"/>
		</g>
	</g>
	<g>
		<defs>
			<rect id="SVGID_1_" x="30.8" y="0.1" width="115" height="106.4"/>
		</defs>
		<clipPath id="SVGID_2_">
			<use xlink:href="#SVGID_1_"  style="overflow:visible;"/>
		</clipPath>
		<g class="st8">
			<path class="st1" d="M137,96.5c0.2-0.4,0.5-0.8,0.8-1.2c4.2-6,2.1-7.1,0.9-9c-1.2-1.9-3.4-5.7-5.9-11.8c-2.5-6.1-8.9-8.8-8.9-8.8
				c-4.1-2.1-12.2-10.1-14-5.1c-0.3,0.8-0.2,1.7,0.1,2.6l-8.6-10.6l-9-6.4l2.4,10.1l12.5,14.7c-0.5-0.3-1-0.5-1.5-0.5
				c-4.2,0.1-5.8,3-3.1,7.1c2.7,4.1,3.8,8.6,3.8,8.6s1.4,7.3,2.3,12.3c1,5-0.2,6.3,3.4,13.4c3.7,7.1,3,11.3,3,11.3l17.2-1.9
				c-1.2-6.2-0.2-13,1.8-18.7c0.2,0.1,0.3,0,0.5-0.1l3.9-3c0.3-0.2,0.2-0.8-0.2-1.3L137,96.5z M121,74.2c0,0.9,0.2,1.9,0.5,3.1
				l-6.1-7.4C118.2,72.4,121,74.2,121,74.2z M113.7,84.9c-0.7-3.8-2.1-7.8-3.7-10.7l15.3,18C122.9,93.2,114.9,91.9,113.7,84.9z"/>
		</g>
		<g class="st9">
			<g>
				<g>
					<path class="st10" d="M114.6,113.3c0,0,0.7-4.1-3-11.3c-3.7-7.1-2.5-8.4-3.4-13.4c-1-5-2.3-12.3-2.3-12.3s-1.1-4.4-3.8-8.6
						c-2.7-4.1-1.1-7,3.1-7.1c3.2-0.1,6.9,7.6,8.1,14.6c1.2,7,9.2,8.3,11.6,7.3c2.3-1-4.4-13-4.3-18c0,0-13.1-8.7-11.2-13.7
						c1.8-5,10,3,14,5.1c0,0,6.4,2.7,8.9,8.8c2.5,6.1,4.7,10,5.9,11.8c1.2,1.9,3.3,3-0.9,9c-4.2,6-7.1,16.7-5.4,25.8L114.6,113.3z"
						/>
				</g>
				<g>
					<defs>
						<path id="SVGID_3_" d="M114.6,113.3c0,0,0.7-4.1-3-11.3c-3.7-7.1-2.5-8.4-3.4-13.4c-1-5-2.3-12.3-2.3-12.3s-1.1-4.4-3.8-8.6
							c-2.7-4.1-1.1-7,3.1-7.1c3.2-0.1,6.9,7.6,8.1,14.6c1.2,7,9.2,8.3,11.6,7.3c2.3-1-4.4-13-4.3-18c0,0-13.1-8.7-11.2-13.7
							c1.8-5,10,3,14,5.1c0,0,6.4,2.7,8.9,8.8c2.5,6.1,4.7,10,5.9,11.8c1.2,1.9,3.3,3-0.9,9c-4.2,6-7.1,16.7-5.4,25.8L114.6,113.3z"
							/>
					</defs>
					<clipPath id="SVGID_4_">
						<use xlink:href="#SVGID_3_"  style="overflow:visible;"/>
					</clipPath>
					<g class="st11">
						<path class="st12" d="M99.3,68c0,0-2.9-4.8,0.3-4.9c3.2-0.2,10.9,7.3,2.9,8.6L99.3,68z"/>
					</g>
					<g class="st11">
						<g>
							<path class="st13" d="M121.1,52.8c-0.2,0.9,0.4,1.9,0.9,2.6c0.8,1.3,1.9,2.6,2.9,3.8c1.1,1.3,2.2,2.6,3.4,3.8
								c0.8,1,1.7,1.9,2.4,3c0.7,1.2,1.3,2.6,1.7,4c0.5,1.4,0.7,2.8,1.3,4.1c0.1,0.2,0.3,0,0.3-0.1c-0.2-1.2-0.6-2.5-1-3.7
								c-0.4-1.1-0.8-2.2-1.3-3.2c-0.6-1.3-1.4-2.4-2.4-3.4c-2.1-2.4-4.4-4.7-6.4-7.4c-0.6-0.8-1.9-2.3-1.7-3.4
								C121.3,52.8,121.1,52.7,121.1,52.8L121.1,52.8z"/>
						</g>
					</g>
					<g class="st11">
						<path class="st12" d="M113.1,47.8c0,0-3.9,2.3,0,4.8c3.9,2.5,4.5-0.1,3.1-2.3C114.8,48.1,113.1,47.8,113.1,47.8z"/>
					</g>
				</g>
			</g>
			<g>
				<g>
					<path class="st14" d="M127.1,85.1c-0.4-0.5-0.5-1.1-0.2-1.3l3.9-3c0.3-0.2,0.8,0,1.2,0.5l5.8,7.1c0.4,0.5,0.5,1.1,0.2,1.3
						l-3.9,3c-0.3,0.2-0.8,0-1.2-0.5L127.1,85.1z"/>
				</g>
				<g>
					<defs>
						<polygon id="SVGID_5_" points="134.1,83.7 100.8,42.8 91.8,36.4 94.2,46.5 129.2,87.7 						"/>
					</defs>
					<clipPath id="SVGID_6_">
						<use xlink:href="#SVGID_5_"  style="overflow:visible;"/>
					</clipPath>
					<g class="st15">
						<polygon class="st16" points="134.1,84.5 105.5,49.2 91.8,37.2 99.5,52.8 129.2,88.5 						"/>
					</g>
					<g class="st15">
						<path class="st17" d="M105.6,47.3c0.3,0.8-5.6-2.4-5.6-2.4l-3.2-1.2l0.5,3.4l0.4,4.3c0,0-11.2-13.7-11-13.9
							c0.3-0.2,0.7-6.7,2.8-6.3c2,0.4,12.6,11,13.6,11.6C104.2,43.3,105.6,47.3,105.6,47.3z"/>
					</g>
					<g class="st15">
						<path class="st1" d="M95.5,38l-3.6,2.6c0,0-6.6-10.2-6.4-10.7C85.8,29.4,95.5,38,95.5,38z"/>
					</g>
					<g class="st15">
						<path class="st18" d="M133.7,86.3L100,44.9l-0.7-3.1c0,0,12.1,8.4,13.1,9.3c1,0.9,10.1,9.7,11,10.7c0.9,1,7.6,15.2,8.3,15.8
							c0.7,0.6,4.8,7.7,4.8,7.7L133.7,86.3z"/>
					</g>
					<g class="st15">
						<path class="st19" d="M130.8,87.6L97.4,47.1c0,0-2.9-2.4-3-2.2c0,0.2,0.5,8,1.2,8.8c0.7,0.9,8,12.2,11,14.8
							c3,2.6,10.6,13.1,13.2,15.4c2.6,2.3,13.3,9,13.3,9L130.8,87.6z"/>
					</g>
				</g>
			</g>
		</g>
	</g>
</g>
</svg>
