<svg id="Capa_1" data-name="Capa 1" xmlns="http://www.w3.org/2000/svg" viewBox="0 0 500 500"><defs><style>.cls-1{fill:#158cba;}.cls-2{fill:#fbce9d;}.cls-3{fill:#aaa;}.cls-4{fill:#686868;}</style></defs><title>user_planning</title><circle class="cls-1" cx="250" cy="250" r="250"/><path class="cls-2" d="M235.31,170.17A109.4,109.4,0,0,0,126.51,72.1H75.25A11.76,11.76,0,0,1,63.48,60.34V54.78a12,12,0,0,1,8-11.1c50-18.81,84.29-76.74,77.33-134.74-6.57-54.75-51.08-102-105.88-108.16A121,121,0,0,0,29.68-200h-.41c-66.78-.15-121,57.09-121,123.83,0,51.93,32.82,103,78.84,120.06a11.59,11.59,0,0,1,7.37,11v5.48A11.76,11.76,0,0,1-17.25,72.1H-68.51a109.4,109.4,0,0,0-108.8,98.07A249.68,249.68,0,0,0,29,279,249.68,249.68,0,0,0,235.31,170.17Z" transform="translate(221 221)"/><path class="cls-3" d="M235.31,170.17A109.4,109.4,0,0,0,126.51,72.1H98l-69,69-69-69H-68.51a109.4,109.4,0,0,0-108.8,98.07A249.68,249.68,0,0,0,29,279,249.68,249.68,0,0,0,235.31,170.17Z" transform="translate(221 221)"/><path class="cls-4" d="M149.69,247.9c5.9-3.27,11.64-6.81,17.24-10.52V184.17H149.69Z" transform="translate(221 221)"/><path class="cls-4" d="M-91.69,247.9V184.17h-17.24v53.21C-103.33,241.09-97.59,244.63-91.69,247.9Z" transform="translate(221 221)"/></svg>