<?xml version="1.0" encoding="utf-8"?>
<!-- Generator: Adobe Illustrator 21.1.0, SVG Export Plug-In . SVG Version: 6.00 Build 0)  -->
<svg version="1.1" id="Calque_1" xmlns="http://www.w3.org/2000/svg" xmlns:xlink="http://www.w3.org/1999/xlink" x="0px" y="0px"
	 viewBox="0 0 330.6 200" style="enable-background:new 0 0 330.6 200;" xml:space="preserve">
<style type="text/css">
	.st0{fill:#211D1C;}
	.st1{fill:#D6A796;}
	.st2{fill:#929697;}
	.st3{fill:#4A4849;}
	.st4{fill:#EFC0AF;}
	.st5{fill:#17171D;}
	.st6{fill:#FFFFFF;}
	.st7{fill:#28201C;}
</style>
<g>
	<polygon class="st0" points="179.1,84.3 165,84.3 151,84.3 114.4,122.3 112.8,144.4 121.3,144.4 121.3,186.4 165,186.4 
		208.8,186.4 208.8,144.4 217.3,144.4 215.7,122.3 	"/>
	<polygon class="st1" points="179,81.5 151,81.5 151,91.2 165,104.4 179,91.2 	"/>
	<path class="st2" d="M173.1,124.3c0,0,19.9-1.2,29,1l-1.6,19.1c0,0,0.6-8.2-27.5-7.7L173.1,124.3z"/>
	<path class="st2" d="M165.4,166.3l11.9-3.5c-9.2-3.3-4.7-27.4-4.7-27.4l-7.2-0.5v0l-0.1,0l-0.1,0v0l-7.2,0.5c0,0,4.4,24.1-4.7,27.4
		l11.9,3.5v0.1L165.4,166.3L165.4,166.3L165.4,166.3z"/>
	<path class="st2" d="M157.2,124.3c0,0-19.9-1.2-29,1l1.6,19.1c0,0-0.6-8.2,27.5-7.7L157.2,124.3z"/>
	<path class="st3" d="M168.4,141.4h-6c-4.7,0-8.5-3.8-8.5-8.5v-4.1c0-4.7,3.8-8.5,8.5-8.5h6c4.7,0,8.5,3.8,8.5,8.5v4.1
		C176.9,137.5,173.1,141.4,168.4,141.4z"/>
	<g>
		<path class="st3" d="M165.2,173.6c-23.6,0-42.8-19.2-42.8-42.8S141.6,88,165.2,88s42.8,19.2,42.8,42.8S188.8,173.6,165.2,173.6z
			 M165.2,98.5c-17.8,0-32.3,14.5-32.3,32.3c0,17.8,14.5,32.3,32.3,32.3c17.8,0,32.3-14.5,32.3-32.3C197.5,113,183,98.5,165.2,98.5z
			"/>
	</g>
	<polygon class="st1" points="127.8,141.2 120.5,148.4 104.2,132.1 118.4,117.9 	"/>
	<path class="st4" d="M142.5,131.8h-1.4c-1.6,0-2.8-1.3-2.8-2.8v-13.4c0-1.6,1.3-2.8,2.8-2.8h1.4c1.6,0,2.8,1.3,2.8,2.8V129
		C145.3,130.6,144,131.8,142.5,131.8z"/>
	<path class="st4" d="M135,119.8c1.8,0,3.3-1.5,3.3-3.3v-0.4c0-1.8-1.5-3.3-3.3-3.3h-10.3c-0.1,0-0.2,0-0.4,0c-0.1,0-0.3,0-0.4,0h-1
		c-3.7,0-6.8,3.1-6.8,6.8v15.9c0,3.7,3.1,6.8,6.8,6.8h1c0.1,0,0.3,0,0.4,0c0.1,0,0.2,0,0.4,0H135c1.8,0,3.3-1.5,3.3-3.3v-0.4
		c0-1.8-1.5-3.3-3.3-3.3h-4.3v-0.5h4.3c1.8,0,3.3-1.5,3.3-3.3v-0.4c0-1.8-1.5-3.3-3.3-3.3h-4.3v-0.5h4.3c1.8,0,3.3-1.5,3.3-3.3v-0.4
		c0-1.8-1.5-3.3-3.3-3.3h-4.3v-0.5H135z"/>
	<path class="st0" d="M77.7,155.6l25.7-25.7l19.6,19.6l-25.7,25.7c-4.4,4.4-11.4,4.4-15.8,0l-3.8-3.8C73.3,167,73.3,160,77.7,155.6z
		"/>
	<polygon class="st1" points="202.8,141.2 210.1,148.4 226.4,132.1 212.2,117.9 	"/>
	<path class="st4" d="M188.1,131.8h1.4c1.6,0,2.8-1.3,2.8-2.8v-13.4c0-1.6-1.3-2.8-2.8-2.8h-1.4c-1.6,0-2.8,1.3-2.8,2.8V129
		C185.3,130.6,186.6,131.8,188.1,131.8z"/>
	<path class="st4" d="M207.7,112.8h-1c-0.1,0-0.3,0-0.4,0c-0.1,0-0.2,0-0.4,0h-10.3c-1.8,0-3.3,1.5-3.3,3.3v0.4
		c0,1.8,1.5,3.3,3.3,3.3h4.3v0.5h-4.3c-1.8,0-3.3,1.5-3.3,3.3v0.4c0,1.8,1.5,3.3,3.3,3.3h4.3v0.5h-4.3c-1.8,0-3.3,1.5-3.3,3.3v0.4
		c0,1.8,1.5,3.3,3.3,3.3h4.3v0.5h-4.3c-1.8,0-3.3,1.5-3.3,3.3v0.4c0,1.8,1.5,3.3,3.3,3.3H206c0.1,0,0.2,0,0.4,0c0.1,0,0.3,0,0.4,0h1
		c3.7,0,6.8-3.1,6.8-6.8v-15.9C214.5,115.8,211.5,112.8,207.7,112.8z"/>
	<path class="st0" d="M252.9,155.6l-25.7-25.7l-19.6,19.6l25.7,25.7c4.4,4.4,11.4,4.4,15.8,0l3.8-3.8
		C257.3,167,257.3,160,252.9,155.6z"/>
	<ellipse class="st4" cx="137.2" cy="59.2" rx="3.7" ry="5.3"/>
	<ellipse class="st1" cx="137.2" cy="59.2" rx="2.8" ry="3.9"/>
	<ellipse class="st4" cx="192.8" cy="59.2" rx="3.7" ry="5.3"/>
	<ellipse class="st1" cx="192.8" cy="59.2" rx="2.8" ry="3.9"/>
	<path class="st5" d="M139.2,53.9c0,0-0.7-7.8-0.9-12.3s0.9-13.5,6.9-19.5s12.1-7.9,17.2-8.4s28.9,0,28.9,0s-1,9.4-4.5,11.2
		c0,0,6.7,3.7,4.5,29.9L139.2,53.9z"/>
	<path class="st4" d="M191.2,53c-1.6-3.4-5.7-24-5.7-24c-0.4-2.2-1.1-1.5-3.7,0.5c-2.6,1.9-16.7,1.2-16.8,1.2v0c0,0,0,0,0,0s0,0,0,0
		v0c-0.1,0-14.2,0.7-16.8-1.2c-2.6-1.9-3.3-2.7-3.7-0.5c0,0-4.1,20.7-5.7,24c-1.6,3.4,0.8,14.7,2.1,17.5c1.3,2.8,4.7,8.3,10.1,11
		c5.4,2.7,14,2.4,14,2.4c0,0,8.7,0.3,14-2.4c5.4-2.7,8.8-8.2,10.1-11C190.4,67.7,192.8,56.3,191.2,53z"/>
	<g>
		<path class="st6" d="M174.2,68.2c0,5.1-4.1,9.2-9.2,9.2s-9.2-4.1-9.2-9.2H174.2z"/>
		<g>
			<ellipse class="st7" cx="155" cy="49.7" rx="2.5" ry="3.8"/>
			<rect x="150.7" y="42.4" class="st7" width="8.7" height="3.2"/>
			<ellipse class="st7" cx="175" cy="49.7" rx="2.5" ry="3.8"/>
			<rect x="170.7" y="42.4" class="st7" width="8.7" height="3.2"/>
		</g>
	</g>
</g>
</svg>
