<?xml version="1.0" encoding="utf-8"?>
<!-- Generator: Adobe Illustrator 21.1.0, SVG Export Plug-In . SVG Version: 6.00 Build 0)  -->
<svg version="1.1" id="Calque_1" xmlns="http://www.w3.org/2000/svg" xmlns:xlink="http://www.w3.org/1999/xlink" x="0px" y="0px"
	 viewBox="0 0 176.7 106.6" style="enable-background:new 0 0 176.7 106.6;" xml:space="preserve">
<style type="text/css">
	.st0{fill:#211D1C;}
	.st1{fill:#D6A796;}
	.st2{fill:#929697;}
	.st3{fill:#4A4849;}
	.st4{fill:#EFC0AF;}
	.st5{fill:#17171D;}
	.st6{fill:#FFFFFF;}
	.st7{fill:#28201C;}
</style>
<g>
	<polygon class="st0" points="96.8,43.6 88.1,43.6 79.5,43.6 56.9,67 55.9,80.7 61.1,80.7 61.1,106.6 88.1,106.6 115.1,106.6 
		115.1,80.7 120.3,80.7 119.4,67 	"/>
	<polygon class="st1" points="96.8,41.9 79.5,41.9 79.5,47.9 88.1,56 96.8,47.9 	"/>
	<path class="st2" d="M93.1,68.3c0,0,12.3-0.8,17.8,0.6l-1,11.8c0,0,0.3-5.1-16.9-4.7L93.1,68.3z"/>
	<path class="st2" d="M88.4,94.1l7.3-2.2C90,89.9,92.8,75,92.8,75l-4.4-0.3v0l-0.1,0l-0.1,0v0L83.8,75c0,0,2.7,14.9-2.9,16.9
		l7.3,2.2v0L88.4,94.1L88.4,94.1L88.4,94.1z"/>
	<path class="st2" d="M83.3,68.3c0,0-12.3-0.8-17.8,0.6l1,11.8c0,0-0.3-5.1,16.9-4.7L83.3,68.3z"/>
	<path class="st3" d="M89,78.8h-1.3c-3.5,0-6.4-2.9-6.4-6.4v-0.1c0-3.5,2.9-6.4,6.4-6.4H89c3.5,0,6.4,2.9,6.4,6.4v0.1
		C95.5,75.9,92.6,78.8,89,78.8z"/>
	<g>
		<path class="st3" d="M88.2,98.7c-14.5,0-26.4-11.8-26.4-26.4s11.8-26.4,26.4-26.4s26.4,11.8,26.4,26.4S102.7,98.7,88.2,98.7z
			 M88.2,52.4c-11,0-19.9,8.9-19.9,19.9c0,11,8.9,19.9,19.9,19.9c11,0,19.9-8.9,19.9-19.9C108.1,61.3,99.2,52.4,88.2,52.4z"/>
	</g>
	<polygon class="st1" points="65.2,78.7 60.7,83.1 50.6,73.1 59.4,64.3 	"/>
	<path class="st4" d="M73.8,72.9L73.8,72.9c-1.2,0-2.2-1-2.2-2.1v-7.5c0-1.2,1-2.1,2.1-2.1h0c1.2,0,2.1,1,2.1,2.1v7.5
		C76,72,75,72.9,73.8,72.9z"/>
	<path class="st4" d="M69.6,65.5c1.1,0,2-0.9,2-2v-0.2c0-1.1-0.9-2-2-2h-6.4c-0.1,0-0.2,0-0.2,0c-0.1,0-0.2,0-0.3,0h-0.6
		c-2.3,0-4.2,1.9-4.2,4.2v9.8c0,2.3,1.9,4.2,4.2,4.2h0.6c0.1,0,0.2,0,0.3,0c0.1,0,0.1,0,0.2,0h6.4c1.1,0,2-0.9,2-2v-0.2
		c0-1.1-0.9-2-2-2H67v-0.3h2.6c1.1,0,2-0.9,2-2v-0.2c0-1.1-0.9-2-2-2H67v-0.3h2.6c1.1,0,2-0.9,2-2v-0.2c0-1.1-0.9-2-2-2H67v-0.3
		H69.6z"/>
	<path class="st0" d="M35.4,86.5l14.7-14.7l12.1,12.1L47.4,98.5c-3.3,3.3-8.6,3.3-11.9,0l-0.1-0.1C32.1,95.1,32.1,89.8,35.4,86.5z"
		/>
	<polygon class="st1" points="111.4,78.7 115.9,83.1 126,73.1 117.2,64.3 	"/>
	<path class="st4" d="M102.8,72.9L102.8,72.9c1.2,0,2.2-1,2.2-2.1v-7.5c0-1.2-1-2.1-2.1-2.1h0c-1.2,0-2.1,1-2.1,2.1v7.5
		C100.6,72,101.6,72.9,102.8,72.9z"/>
	<path class="st4" d="M114.4,61.2h-0.6c-0.1,0-0.2,0-0.3,0c-0.1,0-0.1,0-0.2,0H107c-1.1,0-2,0.9-2,2v0.2c0,1.1,0.9,2,2,2h2.6v0.3
		H107c-1.1,0-2,0.9-2,2v0.2c0,1.1,0.9,2,2,2h2.6v0.3H107c-1.1,0-2,0.9-2,2v0.2c0,1.1,0.9,2,2,2h2.6V75H107c-1.1,0-2,0.9-2,2v0.2
		c0,1.1,0.9,2,2,2h6.4c0.1,0,0.2,0,0.2,0c0.1,0,0.2,0,0.3,0h0.6c2.3,0,4.2-1.9,4.2-4.2v-9.8C118.6,63.1,116.7,61.2,114.4,61.2z"/>
	<path class="st0" d="M141.2,86.5l-14.7-14.7l-12.1,12.1l14.7,14.7c3.3,3.3,8.6,3.3,11.9,0l0.1-0.1
		C144.5,95.1,144.5,89.8,141.2,86.5z"/>
	<ellipse class="st4" cx="71" cy="28.1" rx="2.3" ry="3.3"/>
	<ellipse class="st1" cx="71" cy="28.1" rx="1.7" ry="2.4"/>
	<ellipse class="st4" cx="105.3" cy="28.1" rx="2.3" ry="3.3"/>
	<ellipse class="st1" cx="105.3" cy="28.1" rx="1.7" ry="2.4"/>
	<path class="st5" d="M72.2,24.9c0,0-0.5-4.8-0.6-7.6c-0.1-2.8,0.6-8.3,4.2-12c3.7-3.7,7.5-4.9,10.6-5.2c3.1-0.3,17.8,0,17.8,0
		s-0.6,5.8-2.7,6.9c0,0,4.1,2.3,2.7,18.4L72.2,24.9z"/>
	<path class="st4" d="M104.2,24.3c-1-2.1-3.5-14.8-3.5-14.8c-0.3-1.4-0.7-0.9-2.3,0.3c-1.6,1.2-10.3,0.8-10.3,0.8v0c0,0,0,0,0,0
		s0,0,0,0v0c-0.1,0-8.7,0.4-10.3-0.8c-1.6-1.2-2-1.7-2.3-0.3c0,0-2.5,12.7-3.5,14.8c-1,2.1,0.5,9,1.3,10.8c0.8,1.7,2.9,5.1,6.2,6.8
		c3.3,1.7,8.6,1.5,8.6,1.5c0,0,5.3,0.2,8.6-1.5c3.3-1.7,5.4-5.1,6.2-6.8C103.8,33.4,105.2,26.4,104.2,24.3z"/>
	<g>
		<path class="st6" d="M93.8,33.7c0,3.1-2.5,5.6-5.6,5.6c-3.1,0-5.6-2.5-5.6-5.6H93.8z"/>
		<g>
			<ellipse class="st7" cx="81.9" cy="22.3" rx="1.5" ry="2.3"/>
			<rect x="79.3" y="17.8" class="st7" width="5.4" height="2"/>
			<ellipse class="st7" cx="94.2" cy="22.3" rx="1.5" ry="2.3"/>
			<rect x="91.6" y="17.8" class="st7" width="5.4" height="2"/>
		</g>
	</g>
</g>
</svg>
